<?xml version="1.0" standalone="no"?>
<!DOCTYPE svg PUBLIC "-//W3C//DTD SVG 1.1//EN" "http://www.w3.org/Graphics/SVG/1.1/DTD/svg11.dtd" >
<svg xmlns="http://www.w3.org/2000/svg" xmlns:xlink="http://www.w3.org/1999/xlink" version="1.1">
<metadata>
Created by FontForge 20161013 at Thu Feb  5 18:28:24 2015
 By ,,,
Copyright (c) 2015 by Fontsmith Ltd. All rights reserved.
</metadata>
<defs>
<font id="RenaultLife" horiz-adv-x="576" >
  <font-face 
    font-family="Renault Life"
    font-weight="400"
    font-stretch="normal"
    units-per-em="1000"
    panose-1="2 0 5 4 4 0 0 2 0 4"
    ascent="745"
    descent="-255"
    x-height="486"
    cap-height="672"
    bbox="-113 -256 1204 1008"
    underline-thickness="128"
    underline-position="-384"
    unicode-range="U+000D-FB04"
  />
<missing-glyph horiz-adv-x="500" 
d="M12 0v672h476v-672h-476zM88 624l162 -244l162 244h-324zM60 580v-488l162 244zM440 580l-162 -244l162 -244v488zM412 48l-162 244l-162 -244h324z" />
    <glyph glyph-name="f_f" unicode="ff" horiz-adv-x="634" 
d="M262 645q-53 0 -76.5 -23.5t-23.5 -75.5v-60h240v64q0 86 42.5 126t128.5 40q56 0 91 -13l-13 -62q-31 11 -69 11q-53 0 -76.5 -23.5t-23.5 -75.5v-67h147v-63h-147v-423h-80v423h-240v-423h-80v411v6.5t-1 3.5t-3 3t-6 2l-57 16l7 44h60v57q0 86 42.5 126t128.5 40
q58 0 99 -14l-13 -62q-34 12 -77 12z" />
    <glyph glyph-name="fi" unicode="fi" horiz-adv-x="553" 
d="M162 553v-67h311q9 0 9 -10v-476h-80v423h-240v-423h-80v411v6.5t-1 3.5t-3 3t-6 2l-57 16l7 44h60v64q0 88 40.5 127t130.5 39q56 0 91 -13l-13 -62q-31 11 -69 11q-53 0 -76.5 -23.5t-23.5 -75.5zM388 634q0 27 12 39t40 12q52 0 52 -51q0 -50 -52 -50q-28 0 -40 12
t-12 38z" />
    <glyph glyph-name="fl" unicode="fl" horiz-adv-x="559" 
d="M400 10v634q-45 9 -99 9q-80 0 -113 -31q-26 -24 -26 -79v-57h147v-63h-147v-423h-80v411v6.5t-1 3.5t-3 3t-6 2l-57 16l7 44h60v55q0 87 47 129q52 46 171 46q101 0 166 -20q14 -5 14 -17v-611q0 -11 8 -14l30 -13l-8 -41h-101q-9 0 -9 10z" />
    <glyph glyph-name="f_f_i" unicode="ffi" horiz-adv-x="872" 
d="M482 423v-423h-80v423h-240v-423h-80v411v6.5t-1 3.5t-3 3t-6 2l-57 16l7 44h60v57q0 86 42.5 126t128.5 40q58 0 99 -14l-13 -62q-34 12 -77 12q-53 0 -76.5 -23.5t-23.5 -75.5v-60h240v64q0 86 42.5 126t128.5 40q56 0 91 -13l-13 -62q-31 11 -69 11q-53 0 -76.5 -23.5
t-23.5 -75.5v-67h310q9 0 9 -10v-476h-80v423h-239zM707 634q0 27 12 39t40 12q52 0 52 -51q0 -50 -52 -50q-28 0 -40 12t-12 38z" />
    <glyph glyph-name="f_f_l" unicode="ffl" horiz-adv-x="879" 
d="M621 653q-80 0 -113 -31q-26 -24 -26 -79v-57h147v-63h-147v-423h-80v423h-240v-423h-80v411v6.5t-1 3.5t-3 3t-6 2l-57 16l7 44h60v57q0 86 42.5 126t128.5 40q58 0 99 -14l-13 -62q-34 12 -77 12q-53 0 -76.5 -23.5t-23.5 -75.5v-60h240v55q0 87 47 129q52 46 171 46
q101 0 166 -20q14 -5 14 -17v-611q0 -11 8 -14l30 -13l-8 -41h-101q-9 0 -9 10v634q-45 9 -99 9z" />
    <glyph glyph-name="f_t" unicode="ft" horiz-adv-x="685" 
d="M398 146v277h-236v-423h-80v411v6.5t-1 3.5t-3 3t-6 2l-57 16l7 44h60v64q0 88 40.5 127t130.5 39q56 0 91 -13l-13 -62q-31 11 -69 11q-53 0 -76.5 -23.5t-23.5 -75.5v-67h236v145h80v-145h166v-63h-166v-274q0 -51 23 -74t73 -23q30 0 71 9v-64q-37 -9 -83 -9
q-86 0 -125 37.5t-39 120.5z" />
    <glyph glyph-name="t_t" unicode="tt" horiz-adv-x="720" 
d="M433 146v277h-272v-274q0 -51 22.5 -74t73.5 -23q30 0 71 9v-64q-38 -9 -83 -9q-86 0 -125 37.5t-39 120.5v265v6.5t-1 3.5t-3 3t-6 2l-57 16l7 44h60v145h80v-145h272v145h80v-145h167v-63h-167v-274q0 -51 22.5 -74t73.5 -23q30 0 71 9v-64q-38 -9 -83 -9
q-86 0 -125 37.5t-39 120.5z" />
    <glyph glyph-name=".notdef" horiz-adv-x="500" 
d="M12 0v672h476v-672h-476zM88 624l162 -244l162 244h-324zM60 580v-488l162 244zM440 580l-162 -244l162 -244v488zM412 48l-162 244l-162 -244h324z" />
    <glyph glyph-name=".null" horiz-adv-x="0" 
 />
    <glyph glyph-name=".null" horiz-adv-x="0" 
 />
    <glyph glyph-name="nonmarkingreturn" horiz-adv-x="333" 
 />
    <glyph glyph-name="CR" unicode="&#xd;" horiz-adv-x="224" 
 />
    <glyph glyph-name="space" unicode=" " horiz-adv-x="224" 
 />
    <glyph glyph-name="exclam" unicode="!" horiz-adv-x="247" 
d="M87 204l-4 468h81l-4 -468h-73zM70 43q0 29 12.5 41t41.5 12t41.5 -12.5t12.5 -40.5t-12.5 -40t-41.5 -12t-41.5 12t-12.5 40z" />
    <glyph glyph-name="quotedbl" unicode="&#x22;" horiz-adv-x="431" 
d="M150 672v-227h-69v227h69zM349 672v-227h-68v227h68z" />
    <glyph glyph-name="numbersign" unicode="#" horiz-adv-x="652" 
d="M124 0l22 177h-121v56h128l26 206h-121v56h128l22 177h62l-22 -177h195l22 177h62l-21 -177h120v-56h-127l-26 -206h120v-56h-127l-22 -177h-63l22 177h-195l-22 -177h-62zM241 439l-25 -206h194l26 206h-195z" />
    <glyph glyph-name="dollar" unicode="$" 
d="M251 -144v164q-97 5 -176 31v66q96 -33 199 -33q83 0 118.5 25.5t35.5 83.5q0 39 -26.5 63.5t-66.5 34t-87 22.5t-87 27.5t-66.5 50.5t-26.5 90q0 81 43.5 121.5t139.5 47.5v166h74v-165q84 -3 156 -24v-66q-87 27 -179 27q-81 0 -115.5 -24t-34.5 -81q0 -33 20 -54
t51.5 -32t70 -19.5t77 -20t70 -28.5t51.5 -51t20 -83q0 -82 -45 -124.5t-142 -49.5v-165h-74z" />
    <glyph glyph-name="percent" unicode="%" horiz-adv-x="864" 
d="M44 504q0 95 39 137.5t125 42.5t125 -42.5t39 -137.5t-39 -137.5t-125 -42.5t-125 42.5t-39 137.5zM108 504q0 -67 23.5 -96t76.5 -29t76.5 29t23.5 96t-23.5 96t-76.5 29t-76.5 -29t-23.5 -96zM255 0l302 672h52l-302 -672h-52zM492 168q0 95 39 137.5t125 42.5
t125 -42.5t39 -137.5t-39 -137.5t-125 -42.5t-125 42.5t-39 137.5zM556 168q0 -67 23.5 -96t76.5 -29t76.5 29t23.5 96t-23.5 96t-76.5 29t-76.5 -29t-23.5 -96z" />
    <glyph glyph-name="ampersand" unicode="&#x26;" horiz-adv-x="673" 
d="M572 0l-81 82q-73 -94 -208 -94q-119 0 -176.5 46.5t-57.5 142.5q0 132 154 200q-90 79 -90 158q0 149 182 149q173 0 173 -144q0 -56 -37 -99.5t-118 -82.5l171 -172q21 52 21 140h75q-2 -123 -44 -196l127 -130h-91zM127 182q0 -131 156 -131q104 0 159 82l-197 199
q-118 -55 -118 -150zM293 623q-104 0 -104 -91q0 -57 80 -127q65 29 94 60t29 71q0 87 -99 87z" />
    <glyph glyph-name="quotesingle" unicode="'" horiz-adv-x="231" 
d="M150 672v-227h-69v227h69z" />
    <glyph glyph-name="parenleft" unicode="(" horiz-adv-x="311" 
d="M73 288q0 243 133 416h80q-137 -175 -137 -416t137 -416h-80q-133 173 -133 416z" />
    <glyph glyph-name="parenright" unicode=")" horiz-adv-x="311" 
d="M238 288q0 -243 -133 -416h-80q137 175 137 416t-137 416h80q133 -173 133 -416z" />
    <glyph glyph-name="asterisk" unicode="*" horiz-adv-x="471" 
d="M264 672v-159l151 49l18 -54l-151 -49l93 -129l-46 -33l-93 129l-93 -129l-46 33l93 129l-151 49l17 54l151 -49v159h57z" />
    <glyph glyph-name="plus" unicode="+" 
d="M74 254v68h180v180h68v-180h180v-68h-180v-180h-68v180h-180z" />
    <glyph glyph-name="comma" unicode="," horiz-adv-x="231" 
d="M172 83l-76 -227h-65l57 227h84z" />
    <glyph glyph-name="hyphen" unicode="-" horiz-adv-x="320" 
d="M26 216v62h268v-62h-268z" />
    <glyph glyph-name="period" unicode="." horiz-adv-x="231" 
d="M61 44q0 28 13 40.5t42 12.5t41.5 -12t12.5 -41t-12.5 -41t-41.5 -12t-42 12.5t-13 40.5z" />
    <glyph glyph-name="slash" unicode="/" horiz-adv-x="384" 
d="M9 -128l295 832h71l-295 -832h-71z" />
    <glyph glyph-name="zero" unicode="0" 
d="M41 336q0 184 58.5 266t188.5 82t188.5 -82t58.5 -266t-58.5 -266t-188.5 -82t-188.5 82t-58.5 266zM119 336q0 -150 39 -215.5t130 -65.5t130 65.5t39 215.5t-39 215.5t-130 65.5t-130 -65.5t-39 -215.5z" />
    <glyph glyph-name="one" unicode="1" 
d="M304 0v599l-185 -81v67l198 87h67v-672h-80z" />
    <glyph glyph-name="two" unicode="2" 
d="M55 0v60l265 258q88 87 88 166q0 71 -36.5 102t-119.5 31q-87 0 -176 -30v68q83 29 188 29q118 0 171.5 -45.5t53.5 -146.5q0 -105 -101 -203l-226 -223h333v-66h-440z" />
    <glyph glyph-name="three" unicode="3" 
d="M465 672v-55l-194 -237q117 -6 171.5 -52t54.5 -139q0 -106 -64.5 -153.5t-208.5 -47.5q-91 0 -169 25v66q80 -27 163 -27q106 0 152 32t46 106q0 73 -49 104.5t-162 31.5h-25v49l194 234h-311v63h402z" />
    <glyph glyph-name="four" unicode="4" 
d="M371 0v148h-343v60l333 464h84v-461h98v-63h-98v-148h-74zM106 211h265v369z" />
    <glyph glyph-name="five" unicode="5" 
d="M479 672v-63h-310v-219q43 3 88 3q134 0 194 -47t60 -153q0 -108 -64 -156.5t-205 -48.5q-91 0 -169 25v66q81 -27 163 -27q103 0 148 33.5t45 108.5q0 74 -47 107t-154 33q-52 0 -133 -7v345h384z" />
    <glyph glyph-name="six" unicode="6" 
d="M55 304q0 201 69.5 290.5t227.5 89.5q79 0 148 -21v-65q-74 22 -142 22q-121 0 -171.5 -65.5t-52.5 -214.5q34 89 181 89q115 0 167.5 -51.5t52.5 -164.5q0 -118 -57 -171.5t-182 -53.5q-128 0 -184.5 74t-56.5 242zM141 224q0 -172 154 -172q86 0 124 37.5t38 121.5
q0 82 -35 119t-116 37q-86 0 -125.5 -34.5t-39.5 -108.5z" />
    <glyph glyph-name="seven" unicode="7" 
d="M511 672v-57l-280 -615h-81l276 606h-366v66h451z" />
    <glyph glyph-name="eight" unicode="8" 
d="M288 377q80 9 114 38.5t34 88.5q0 63 -34 90t-114 27t-114 -27t-34 -90q0 -59 34 -88.5t114 -38.5zM47 173q0 76 35 115.5t117 55.5q-71 14 -103.5 53t-32.5 110q0 94 53 135.5t172 41.5t172 -41.5t53 -135.5q0 -71 -32.5 -110t-103.5 -53q82 -16 117 -55.5t35 -115.5
q0 -98 -57 -141.5t-184 -43.5t-184 43.5t-57 141.5zM288 311q-90 -10 -126.5 -40t-36.5 -95q0 -67 38 -96t125 -29t125 29t38 96q0 65 -36.5 95t-126.5 40z" />
    <glyph glyph-name="nine" unicode="9" 
d="M521 368q0 -201 -69.5 -290.5t-227.5 -89.5q-79 0 -148 21v65q74 -22 142 -22q121 0 171.5 65.5t52.5 214.5q-34 -89 -181 -89q-115 0 -167.5 51.5t-52.5 164.5q0 118 57 171.5t182 53.5q128 0 184.5 -74t56.5 -242zM435 448q0 172 -154 172q-86 0 -124 -37.5t-38 -121.5
q0 -82 35 -119t116 -37q86 0 125.5 34.5t39.5 108.5z" />
    <glyph glyph-name="colon" unicode=":" horiz-adv-x="247" 
d="M69 44q0 28 13 40.5t42 12.5t41.5 -12t12.5 -41t-12.5 -41t-41.5 -12t-42 12.5t-13 40.5zM69 442q0 28 13 40.5t42 12.5t41.5 -12t12.5 -41t-12.5 -41t-41.5 -12t-42 12.5t-13 40.5z" />
    <glyph glyph-name="semicolon" unicode=";" horiz-adv-x="247" 
d="M180 83l-76 -227h-65l57 227h84zM69 442q0 28 13 40.5t42 12.5t41.5 -12t12.5 -41t-12.5 -41t-41.5 -12t-42 12.5t-13 40.5z" />
    <glyph glyph-name="less" unicode="&#x3c;" 
d="M502 73l-428 177v76l428 177v-72l-346 -143l346 -143v-72z" />
    <glyph glyph-name="equal" unicode="=" 
d="M74 154v69h428v-69h-428zM74 353v69h428v-69h-428z" />
    <glyph glyph-name="greater" unicode="&#x3e;" 
d="M74 503l428 -177v-76l-428 -177v72l346 143l-346 143v72z" />
    <glyph glyph-name="question" unicode="?" horiz-adv-x="444" 
d="M216 204h-68v13q0 46 18 82t43 59.5t50.5 44.5t43.5 48.5t18 59.5q0 58 -32.5 83.5t-107.5 25.5q-73 0 -150 -28v65q77 27 159 27q112 0 162 -39.5t50 -128.5q0 -46 -19 -82t-46.5 -59.5t-55 -46t-46.5 -51.5t-19 -65v-8zM128 43q0 29 12.5 41t41.5 12t41.5 -12.5
t12.5 -40.5t-12.5 -40t-41.5 -12t-41.5 12t-12.5 40z" />
    <glyph glyph-name="at" unicode="@" horiz-adv-x="977" 
d="M57 243q0 236 104.5 341.5t338.5 105.5q222 0 321 -93.5t99 -302.5q0 -140 -43.5 -205.5t-140.5 -65.5q-89 0 -115 62q-45 -62 -154 -62q-97 0 -140 52t-43 168t43 168t140 52q104 0 145 -58l4 46h64v-297q0 -37 16 -53.5t52 -16.5q55 0 78.5 49.5t23.5 154.5
q0 181 -83 261t-270 80q-196 0 -283 -90.5t-87 -295.5t91.5 -295.5t300.5 -90.5q140 0 274 44v-64q-131 -41 -277 -41q-243 0 -351 105t-108 342zM363 243q0 -83 28.5 -119.5t94.5 -36.5q62 0 89.5 27t27.5 88v82q0 61 -27.5 88t-89.5 27q-66 0 -94.5 -36.5t-28.5 -119.5z
" />
    <glyph glyph-name="A" unicode="A" horiz-adv-x="648" 
d="M544 0q-30 105 -54 179h-332q-34 -105 -54 -179h-84q42 163 118 362.5t139 309.5h94q63 -110 139 -309.5t118 -362.5h-84zM324 598q-64 -121 -145 -357h290q-78 228 -145 357z" />
    <glyph glyph-name="B" unicode="B" horiz-adv-x="643" 
d="M86 0v609q0 9 -10 13l-30 13l7 37h316q106 0 153.5 -42.5t47.5 -134.5q0 -115 -89 -148q113 -28 113 -164q0 -96 -49.5 -139.5t-159.5 -43.5h-299zM166 311v-248h205q75 0 108.5 29.5t33.5 94.5t-33.5 94.5t-108.5 29.5h-205zM166 609v-236h189q72 0 103.5 28t31.5 90
t-31.5 90t-103.5 28h-189z" />
    <glyph glyph-name="C" unicode="C" horiz-adv-x="604" 
d="M49 336q0 183 76 265.5t244 82.5q119 0 195 -26l-12 -65q-80 24 -172 24q-131 0 -188.5 -65.5t-57.5 -215.5t57.5 -215.5t188.5 -65.5q90 0 179 26v-68q-87 -25 -190 -25q-168 0 -244 82.5t-76 265.5z" />
    <glyph glyph-name="D" unicode="D" horiz-adv-x="707" 
d="M169 606v-540h133q145 0 208.5 63t63.5 207t-63.5 207t-208.5 63h-133zM53 672h255q185 0 267.5 -79t82.5 -257t-82.5 -257t-267.5 -79h-222v609q0 9 -10 13l-30 13z" />
    <glyph glyph-name="E" unicode="E" horiz-adv-x="590" 
d="M53 672h484v-66h-368v-233h296v-62h-296v-245h376v-66h-459v609q0 9 -10 13l-30 13z" />
    <glyph glyph-name="F" unicode="F" horiz-adv-x="574" 
d="M53 672h484v-66h-368v-233h296v-64h-296v-309h-83v609q0 9 -10 13l-30 13z" />
    <glyph glyph-name="G" unicode="G" horiz-adv-x="673" 
d="M362 351h249v-336q-111 -27 -234 -27q-173 0 -250.5 82t-77.5 266q0 188 81.5 268t259.5 80q129 0 205 -26l-12 -65q-80 24 -182 24q-143 0 -206.5 -64t-63.5 -217q0 -151 59.5 -216.5t194.5 -65.5q79 0 149 16v222h-172v59z" />
    <glyph glyph-name="H" unicode="H" horiz-adv-x="739" 
d="M169 662v-287h404v297h83v-672h-83v309h-404v-309h-83v609q0 9 -10 13l-30 13l7 37h107q9 0 9 -10z" />
    <glyph glyph-name="I" unicode="I" horiz-adv-x="254" 
d="M170 662v-662h-83v609q0 9 -10 13l-30 13l7 37h107q9 0 9 -10z" />
    <glyph glyph-name="J" unicode="J" horiz-adv-x="439" 
d="M356 672v-478q0 -107 -50.5 -156.5t-160.5 -49.5q-64 0 -116 13v67q59 -13 104 -13q75 0 107.5 33t32.5 109v475h83z" />
    <glyph glyph-name="K" unicode="K" horiz-adv-x="607" 
d="M169 662v-319l314 329h97l-294 -311l302 -361h-97l-256 309l-66 -68v-241h-83v609q0 9 -10 13l-30 13l7 37h107q9 0 9 -10z" />
    <glyph glyph-name="L" unicode="L" horiz-adv-x="521" 
d="M169 662v-596h325v-66h-408v609q0 9 -10 13l-30 13l7 37h107q9 0 9 -10z" />
    <glyph glyph-name="M" unicode="M" horiz-adv-x="819" 
d="M180 648l231 -368l245 392h80v-672h-77v547l-219 -347h-25q-25 0 -32 3.5t-20 23.5l-200 317v-544h-77v609q0 9 -10 13l-30 13l7 37h92q14 0 19.5 -4t15.5 -20z" />
    <glyph glyph-name="N" unicode="N" horiz-adv-x="739" 
d="M86 0v609q0 9 -10 13l-30 13l7 37h94q21 0 30 -13l402 -544v557h77v-672h-81l-412 557v-557h-77z" />
    <glyph glyph-name="O" unicode="O" horiz-adv-x="737" 
d="M49 336q0 184 75.5 266t244.5 82t244 -82t75 -266t-75 -266t-244 -82t-244.5 82t-75.5 266zM134 336q0 -150 55 -215.5t180 -65.5t180 65.5t55 215.5t-55 215.5t-180 65.5t-180 -65.5t-55 -215.5z" />
    <glyph glyph-name="P" unicode="P" horiz-adv-x="627" 
d="M166 606v-282h178q86 0 123.5 33t37.5 108t-37.5 108t-123.5 33h-178zM53 672h297q124 0 180 -49t56 -158q0 -108 -56 -157t-180 -49h-184v-259h-80v609q0 9 -10 13l-30 13z" />
    <glyph glyph-name="Q" unicode="Q" horiz-adv-x="737" 
d="M551 -122l-76 120q-44 -10 -106 -10q-169 0 -244.5 82t-75.5 266t75.5 266t244.5 82t244 -82t75 -266q0 -127 -34.5 -203.5t-109.5 -112.5l91 -142h-84zM131 336q0 -151 55.5 -217.5t182.5 -66.5q35 0 68 5l-62 98h84l47 -74q101 58 101 255q0 150 -55.5 215.5
t-182.5 65.5t-182.5 -65.5t-55.5 -215.5z" />
    <glyph glyph-name="R" unicode="R" horiz-adv-x="643" 
d="M166 608v-269h183q84 0 120 31t36 103q0 73 -36.5 104t-119.5 31h-183zM338 275h-172v-275h-80v609q0 9 -10 13l-30 13l7 37h305q121 0 174.5 -46.5t53.5 -152.5q0 -89 -40 -134.5t-126 -54.5l180 -284h-91z" />
    <glyph glyph-name="S" unicode="S" horiz-adv-x="588" 
d="M56 497q0 187 246 187q109 0 207 -31l-12 -64q-91 30 -189 30q-92 0 -132 -27t-40 -93q0 -35 22 -59t57.5 -36.5t78 -23t85 -23.5t78 -32.5t57.5 -56.5t22 -89q0 -97 -61 -144t-189 -47q-123 0 -226 33v67q106 -35 220 -35q93 0 134.5 29t41.5 95q0 38 -22 63t-57.5 38.5
t-78 24t-85 23.5t-78 31.5t-57.5 54t-22 85.5z" />
    <glyph glyph-name="T" unicode="T" horiz-adv-x="593" 
d="M255 0v606h-234v66h551v-66h-234v-606h-83z" />
    <glyph glyph-name="U" unicode="U" horiz-adv-x="732" 
d="M165 662v-399q0 -111 47 -159.5t155 -48.5q107 0 154.5 48.5t47.5 159.5v409h83v-415q0 -142 -67 -205.5t-218 -63.5t-218 63.5t-67 205.5v352q0 9 -10 13l-30 13l7 37h107q9 0 9 -10z" />
    <glyph glyph-name="V" unicode="V" horiz-adv-x="648" 
d="M324 74q53 100 116.5 276t103.5 322h84q-42 -163 -118 -362.5t-139 -309.5h-94q-63 110 -139 309.5t-118 362.5h84q40 -146 103.5 -322t116.5 -276z" />
    <glyph glyph-name="W" unicode="W" horiz-adv-x="974" 
d="M488 538h-1q-18 -117 -70 -289q-30 -101 -86 -249h-93q-59 149 -115.5 342.5t-82.5 329.5h82q18 -96 70 -289q47 -179 93 -298h2q38 98 92 298q57 211 70 275h77q12 -57 70 -275q54 -200 92 -298h2q46 119 93 298q52 193 70 289h81q-26 -137 -82.5 -330t-114.5 -342h-93
q-48 128 -86 249q-50 160 -70 289z" />
    <glyph glyph-name="X" unicode="X" horiz-adv-x="647" 
d="M29 0l243 342l-235 330h92l195 -275l194 275h93l-235 -330l243 -342h-94l-201 287l-202 -287h-93z" />
    <glyph glyph-name="Y" unicode="Y" horiz-adv-x="599" 
d="M258 0v287l-246 385h92l197 -313l195 313h92l-247 -385v-287h-83z" />
    <glyph glyph-name="Z" unicode="Z" horiz-adv-x="620" 
d="M44 58l419 548h-411v66h515v-58l-418 -548h426v-66h-531v58z" />
    <glyph glyph-name="bracketleft" unicode="[" horiz-adv-x="311" 
d="M95 -128v832h190v-63h-116v-706h116v-63h-190z" />
    <glyph glyph-name="backslash" unicode="\" horiz-adv-x="384" 
d="M304 -128l-295 832h71l295 -832h-71z" />
    <glyph glyph-name="bracketright" unicode="]" horiz-adv-x="311" 
d="M217 704v-832h-191v63h117v706h-117v63h191z" />
    <glyph glyph-name="asciicircum" unicode="^" 
d="M51 244l196 428h82l196 -428h-78l-159 347l-159 -347h-78z" />
    <glyph glyph-name="underscore" unicode="_" horiz-adv-x="480" 
d="M0 -159v62h480v-62h-480z" />
    <glyph glyph-name="grave" unicode="`" horiz-adv-x="240" 
d="M99 564l-134 140h87l121 -140h-74z" />
    <glyph glyph-name="a" unicode="a" horiz-adv-x="530" 
d="M382 152v44q-56 22 -130 22q-69 0 -99 -20t-30 -66q0 -44 29 -65t92 -21q72 0 105 25.5t33 80.5zM397 8l-4 42q-44 -62 -164 -62q-95 0 -140 34.5t-45 108.5t47 108t149 34q80 0 142 -21v67q0 62 -34 89t-111 27q-75 0 -150 -24v64q77 23 159 23q112 0 162.5 -43.5
t50.5 -141.5v-245q0 -11 8 -14l30 -13l-8 -41h-83q-8 0 -9 8z" />
    <glyph glyph-name="b" unicode="b" horiz-adv-x="564" 
d="M70 0v636q0 11 -8 14l-30 13l8 41h101q9 0 9 -10v-258q46 62 161 62q111 0 161 -60t50 -195t-50 -195t-161 -60q-118 0 -173 68l-6 -56h-62zM292 434q-76 0 -109 -32.5t-33 -106.5v-197q59 -46 142 -46q79 0 113.5 44.5t34.5 146.5t-34.5 146.5t-113.5 44.5z" />
    <glyph glyph-name="c" unicode="c" horiz-adv-x="463" 
d="M42 243q0 134 57 194.5t183 60.5q90 0 147 -21l-13 -62q-53 19 -123 19q-90 0 -129.5 -44.5t-39.5 -146.5t39.5 -146.5t129.5 -44.5q68 0 131 20v-65q-61 -19 -142 -19q-126 0 -183 60t-57 195z" />
    <glyph glyph-name="d" unicode="d" horiz-adv-x="573" 
d="M273 434q-80 0 -114.5 -44.5t-34.5 -146.5t34.5 -146.5t114.5 -44.5q83 0 142 46v197q0 74 -33 106.5t-109 32.5zM431 8l-5 48q-53 -68 -172 -68q-112 0 -162 60t-50 195t50 195t162 60q113 0 161 -62v268h80v-636q0 -11 8 -14l30 -13l-8 -41h-85q-8 0 -9 8z" />
    <glyph glyph-name="e" unicode="e" horiz-adv-x="523" 
d="M42 243q0 134 54.5 194.5t176.5 60.5q111 0 160.5 -58.5t49.5 -188.5q0 -22 -1 -31h-361q3 -91 46.5 -130t141.5 -39q77 0 155 24v-64q-70 -23 -161 -23q-137 0 -199 60t-62 195zM273 440q-78 0 -114 -39t-38 -126h285q-1 88 -32 126.5t-101 38.5z" />
    <glyph glyph-name="f" unicode="f" horiz-adv-x="314" 
d="M162 553v-67h146v-63h-146v-423h-80v411v6.5t-1 3.5t-3 3t-6 2l-57 16l7 44h60v64q0 88 40.5 127t130.5 39q56 0 91 -13l-13 -62q-31 11 -69 11q-53 0 -76.5 -23.5t-23.5 -75.5z" />
    <glyph glyph-name="g" unicode="g" horiz-adv-x="563" 
d="M432 486h63v-507q0 -110 -57 -154.5t-155 -44.5q-64 0 -106 8v64q56 -8 102 -8q136 0 136 121v85q-46 -62 -161 -62q-112 0 -162 60t-50 195t50 195t162 60q104 0 174 -53zM415 191v207q-64 36 -142 36q-80 0 -114.5 -44.5t-34.5 -146.5t34.5 -146.5t114.5 -44.5
q76 0 109 32.5t33 106.5z" />
    <glyph glyph-name="h" unicode="h" horiz-adv-x="564" 
d="M306 498q100 0 144 -45t44 -148v-237q0 -11 8 -14l30 -13l-8 -41h-101q-9 0 -9 10v293q0 70 -28 99.5t-94 29.5q-43 0 -84.5 -11.5t-59.5 -24.5v-396h-80v636q0 11 -8 14l-30 13l8 41h101q9 0 9 -10v-252q59 56 158 56z" />
    <glyph glyph-name="i" unicode="i" horiz-adv-x="230" 
d="M41 445l8 41h101q9 0 9 -10v-476h-80v418q0 11 -8 14zM65 634q0 27 12 39t40 12q52 0 52 -51q0 -50 -52 -50q-28 0 -40 12t-12 38z" />
    <glyph glyph-name="j" unicode="j" horiz-adv-x="230" 
d="M159 476v-530q0 -163 -152 -163q-32 0 -45 2v62q12 -1 30 -1q50 0 68.5 23.5t18.5 76.5v472q0 11 -8 14l-30 13l8 41h101q9 0 9 -10zM65 634q0 27 12 39t40 12q52 0 52 -51q0 -50 -52 -50q-28 0 -40 12t-12 38z" />
    <glyph glyph-name="k" unicode="k" horiz-adv-x="477" 
d="M148 694v-433l212 225h93l-202 -216l206 -270h-91l-165 220l-53 -53v-167h-80v636q0 11 -8 14l-30 13l8 41h101q9 0 9 -10z" />
    <glyph glyph-name="l" unicode="l" horiz-adv-x="231" 
d="M152 694v-626q0 -11 8 -14l30 -13l-8 -41h-101q-9 0 -9 10v626q0 11 -8 14l-30 13l8 41h101q9 0 9 -10z" />
    <glyph glyph-name="m" unicode="m" horiz-adv-x="874" 
d="M453 432q69 66 173 66q94 0 136 -43t42 -138v-249q0 -11 8 -14l30 -13l-8 -41h-101q-9 0 -9 10v304q0 63 -26 90.5t-86 27.5q-94 0 -141 -39q8 -25 8 -73v-320h-80v314q0 63 -26 90.5t-86 27.5q-40 0 -78 -11.5t-55 -24.5v-396h-80v418q0 11 -8 14l-30 13l8 41h101
q9 0 9 -10v-30q59 52 150 52q106 0 149 -66z" />
    <glyph glyph-name="n" unicode="n" horiz-adv-x="570" 
d="M500 305v-237q0 -11 8 -14l30 -13l-8 -41h-101q-9 0 -9 10v293q0 70 -28 99.5t-94 29.5q-43 0 -84.5 -11.5t-59.5 -24.5v-396h-80v418q0 11 -8 14l-30 13l8 41h101q9 0 9 -10v-34q60 56 158 56q100 0 144 -45t44 -148z" />
    <glyph glyph-name="o" unicode="o" horiz-adv-x="563" 
d="M42 243q0 134 57 194.5t183 60.5t182.5 -60.5t56.5 -194.5q0 -135 -56.5 -195t-182.5 -60t-183 60t-57 195zM124 243q0 -102 37 -146.5t121 -44.5q83 0 120 44.5t37 146.5t-37 146.5t-120 44.5q-84 0 -121 -44.5t-37 -146.5z" />
    <glyph glyph-name="p" unicode="p" horiz-adv-x="568" 
d="M74 -208v626q0 11 -8 14l-30 13l8 41h101q9 0 9 -10v-40q46 62 161 62q111 0 161 -60t50 -195t-50 -195t-161 -60q-99 0 -161 53v-249h-80zM296 434q-76 0 -109 -32.5t-33 -106.5v-197q59 -46 142 -46q79 0 113.5 44.5t34.5 146.5t-34.5 146.5t-113.5 44.5z" />
    <glyph glyph-name="q" unicode="q" horiz-adv-x="562" 
d="M495 486v-687l-80 -14v257q-57 -54 -161 -54q-112 0 -162 60t-50 195t50 195t162 60q125 0 172 -69l6 57h63zM273 434q-80 0 -114.5 -44.5t-34.5 -146.5t34.5 -146.5t114.5 -44.5q83 0 142 46v197q0 74 -33 106.5t-109 32.5z" />
    <glyph glyph-name="r" unicode="r" horiz-adv-x="365" 
d="M74 0v418q0 11 -8 14l-30 13l8 41h101q9 0 9 -10v-49q56 71 158 71q25 0 47 -4l-14 -70q-24 6 -45 6q-82 0 -146 -53v-377h-80z" />
    <glyph glyph-name="s" unicode="s" horiz-adv-x="465" 
d="M50 358q0 69 50.5 104.5t142.5 35.5q80 0 157 -22l-13 -62q-67 22 -140 22q-120 0 -120 -77q0 -32 30 -49t73.5 -25.5t86.5 -20t73 -43.5t30 -86q0 -72 -50.5 -109.5t-144.5 -37.5q-93 0 -170 24v65q80 -27 164 -27q124 0 124 84q0 36 -30 54.5t-73.5 26.5t-86.5 18.5
t-73 41t-30 83.5z" />
    <glyph glyph-name="t" unicode="t" horiz-adv-x="368" 
d="M81 146v265v6.5t-1 3.5t-3 3t-6 2l-57 16l7 44h60v145h80v-145h167v-63h-167v-274q0 -51 22.5 -74t73.5 -23q30 0 71 9v-64q-38 -9 -83 -9q-86 0 -125 37.5t-39 120.5z" />
    <glyph glyph-name="u" unicode="u" horiz-adv-x="562" 
d="M152 476v-285q0 -74 31 -106.5t102 -32.5t102 32.5t31 106.5v295h80v-301q0 -104 -50 -150.5t-163 -46.5t-163 46.5t-50 150.5v235q0 6 -7 9l-31 15l7 42h102q9 0 9 -10z" />
    <glyph glyph-name="v" unicode="v" horiz-adv-x="508" 
d="M295 0h-82q-122 245 -189 486h81q50 -189 149 -412q99 223 149 412h81q-67 -241 -189 -486z" />
    <glyph glyph-name="w" unicode="w" horiz-adv-x="797" 
d="M694 486h79q-82 -290 -169 -486h-87q-27 59 -70 189q-29 86 -48 178h-1q-19 -92 -48 -178q-43 -130 -70 -189h-87q-87 196 -169 486h80q27 -96 65 -216q29 -92 66 -197h2q45 126 67 197q36 115 59 204h71q19 -73 60 -204q22 -71 67 -197h2q37 105 66 197q38 120 65 216z
" />
    <glyph glyph-name="x" unicode="x" horiz-adv-x="500" 
d="M27 0l174 247l-168 239h86l131 -189l132 189h85l-168 -239l174 -247h-88l-135 196l-138 -196h-85z" />
    <glyph glyph-name="y" unicode="y" horiz-adv-x="500" 
d="M220 -3l-210 489h87l161 -389l139 389h85l-208 -554q-32 -86 -72 -119t-114 -33q-23 0 -33 2v62q9 -1 27 -1q47 0 72.5 21.5t46.5 79.5z" />
    <glyph glyph-name="z" unicode="z" horiz-adv-x="481" 
d="M46 0v55l284 368h-276v63h377v-56l-284 -367h292v-63h-393z" />
    <glyph glyph-name="braceleft" unicode="{" horiz-adv-x="311" 
d="M10 257v62h11q48 0 69 21t21 69v146q0 78 36 113.5t116 35.5h22v-63h-11q-48 0 -68.5 -20.5t-20.5 -68.5v-149q0 -93 -68 -115q68 -22 68 -115v-149q0 -48 20.5 -68.5t68.5 -20.5h11v-63h-22q-80 0 -116 35.5t-36 113.5v146q0 48 -21 69t-69 21h-11z" />
    <glyph glyph-name="bar" unicode="|" horiz-adv-x="240" 
d="M86 -224v960h68v-960h-68z" />
    <glyph glyph-name="braceright" unicode="}" horiz-adv-x="311" 
d="M301 319v-62h-11q-48 0 -68.5 -21t-20.5 -69v-146q0 -78 -36 -113.5t-116 -35.5h-23v63h11q48 0 69 20.5t21 68.5v149q0 94 67 115q-67 21 -67 115v149q0 48 -21 68.5t-69 20.5h-11v63h23q80 0 116 -35.5t36 -113.5v-146q0 -48 20.5 -69t68.5 -21h11z" />
    <glyph glyph-name="asciitilde" unicode="~" 
d="M182 379q36 0 67 -17.5t49.5 -38.5t42.5 -38.5t47 -17.5q39 0 57 24.5t19 77.5h68q-1 -89 -34 -130.5t-104 -41.5q-36 0 -67 17.5t-49.5 38.5t-42.5 38.5t-47 17.5q-39 0 -57 -24.5t-19 -77.5h-68q1 89 34 130.5t104 41.5z" />
    <glyph glyph-name="nbspace" unicode="&#xa0;" horiz-adv-x="224" 
 />
    <glyph glyph-name="exclamdown" unicode="&#xa1;" horiz-adv-x="247" 
d="M160 282l4 -468h-81l4 468h73zM178 443q0 -28 -12.5 -40.5t-41.5 -12.5t-41.5 12t-12.5 41q0 28 12.5 40t41.5 12t41.5 -12t12.5 -40z" />
    <glyph glyph-name="cent" unicode="&#xa2;" 
d="M100 336q0 120 44.5 180.5t143.5 71.5v167h74v-164q67 -3 119 -19v-65q-62 20 -130 20q-91 0 -130.5 -44.5t-39.5 -146.5t39.5 -146.5t130.5 -44.5q68 0 130 20v-65q-58 -18 -119 -19v-164h-74v167q-99 11 -143.5 71t-44.5 181z" />
    <glyph glyph-name="sterling" unicode="&#xa3;" 
d="M79 0v64h90v247h-74v62h74v98q0 111 52 162t166 51q61 0 116 -15v-66q-54 15 -104 15q-79 0 -113 -34.5t-34 -115.5v-95h197v-62h-197v-247h259v-64h-432z" />
    <glyph glyph-name="currency" unicode="&#xa4;" 
d="M99 336q0 75 26 114l-73 74l48 48l74 -73q39 26 114 26t114 -26l74 73l48 -48l-73 -74q26 -39 26 -114t-26 -114l73 -74l-48 -48l-74 73q-39 -26 -114 -26t-114 26l-74 -73l-48 48l73 74q-26 39 -26 114zM163 336q0 -67 29 -96t96 -29t96 29t29 96t-29 96t-96 29t-96 -29
t-29 -96z" />
    <glyph glyph-name="yen" unicode="&#xa5;" 
d="M247 0v137h-163v51h163v99h-163v50h140l-216 335h91l189 -300l189 300h91l-216 -335h140v-50h-163v-99h163v-51h-163v-137h-82z" />
    <glyph glyph-name="brokenbar" unicode="&#xa6;" horiz-adv-x="240" 
d="M86 688h68v-384h-68v384zM154 -176h-68v384h68v-384z" />
    <glyph glyph-name="section" unicode="&#xa7;" horiz-adv-x="556" 
d="M68 515q0 89 53.5 129t172.5 40q100 0 181 -25v-66q-85 27 -175 27q-80 0 -114 -24.5t-34 -80.5q0 -43 36.5 -67t88.5 -35t104 -26t88.5 -54t36.5 -105q0 -75 -47 -118q31 -36 31 -93q0 -90 -54 -131.5t-174 -41.5q-110 0 -203 31v66q95 -33 197 -33q81 0 115.5 25.5
t34.5 83.5q0 45 -36.5 70.5t-88.5 37t-104 26t-88.5 52t-36.5 101.5q0 77 49 119q-33 35 -33 92zM134 305q0 -41 29.5 -66t67.5 -33.5t87.5 -23.5t77.5 -34q29 29 29 79q0 42 -29 68t-66.5 35t-87.5 23.5t-77 32.5q-31 -25 -31 -81z" />
    <glyph glyph-name="dieresis" unicode="&#xa8;" horiz-adv-x="240" 
d="M169 634q0 49 51 49q50 0 50 -49t-50 -49q-51 0 -51 49zM-30 634q0 49 50 49q51 0 51 -49t-51 -49q-50 0 -50 49z" />
    <glyph glyph-name="copyright" unicode="&#xa9;" horiz-adv-x="832" 
d="M42 336q0 193 88.5 280.5t285.5 87.5t285.5 -87.5t88.5 -280.5t-88.5 -280.5t-285.5 -87.5t-285.5 87.5t-88.5 280.5zM92 336q0 -171 77.5 -247.5t246.5 -76.5t246.5 76.5t77.5 247.5q0 172 -76 248t-248 76t-248 -76t-76 -248zM228 336q0 114 47.5 165t154.5 51
q61 0 122 -16v-52q-63 17 -112 17q-79 0 -113.5 -38t-34.5 -127t34.5 -127t113.5 -38q49 0 112 17v-52q-61 -16 -122 -16q-107 0 -154.5 51t-47.5 165z" />
    <glyph glyph-name="ordfeminine" unicode="&#xaa;" horiz-adv-x="378" 
d="M42 228v50h294v-50h-294zM98 440q0 -29 18 -42t58 -13q47 0 68 16t21 53v26q-33 13 -83 13q-44 0 -63 -12t-19 -41zM39 438q0 50 31 72.5t101 22.5q53 0 92 -14v39q0 40 -21 57.5t-69 17.5q-56 0 -104 -14v47q46 14 108 14q76 0 110 -30t34 -95v-206h-47l-4 30
q-30 -38 -106 -38q-65 0 -95 23t-30 74z" />
    <glyph glyph-name="guillemotleft" unicode="&#xab;" horiz-adv-x="495" 
d="M246 436l-132 -193l132 -193h-76l-139 193l139 193h76zM461 436l-131 -193l131 -193h-75l-140 193l140 193h75z" />
    <glyph glyph-name="logicalnot" unicode="&#xac;" 
d="M74 254v68h428v-248h-69v180h-359z" />
    <glyph glyph-name="uni00AD" unicode="&#xad;" horiz-adv-x="320" 
d="M26 216v62h268v-62h-268z" />
    <glyph glyph-name="registered" unicode="&#xae;" horiz-adv-x="832" 
d="M42 336q0 193 88.5 280.5t285.5 87.5t285.5 -87.5t88.5 -280.5t-88.5 -280.5t-285.5 -87.5t-285.5 87.5t-88.5 280.5zM92 336q0 -171 77.5 -247.5t246.5 -76.5t246.5 76.5t77.5 247.5q0 172 -76 248t-248 76t-248 -76t-76 -248zM268 128v416h173q77 0 111.5 -29t34.5 -96
q0 -107 -100 -120l109 -171h-68l-101 165h-100v-165h-59zM327 495v-153h110q47 0 68 18t21 59q0 42 -20.5 59t-68.5 17h-110z" />
    <glyph glyph-name="macron" unicode="&#xaf;" horiz-adv-x="240" 
d="M-31 606v57h302v-57h-302z" />
    <glyph glyph-name="degree" unicode="&#xb0;" horiz-adv-x="343" 
d="M47 559q0 59 32.5 90.5t92.5 31.5q59 0 91.5 -31.5t32.5 -90.5q0 -60 -32 -91.5t-92 -31.5q-61 0 -93 31.5t-32 91.5zM95 559q0 -77 77 -77q76 0 76 77q0 76 -76 76q-77 0 -77 -76z" />
    <glyph glyph-name="plusminus" unicode="&#xb1;" 
d="M74 0v68h428v-68h-428zM74 341v69h180v179h68v-179h180v-69h-180v-180h-68v180h-180z" />
    <glyph glyph-name="twosuperior" unicode="&#xb2;" horiz-adv-x="348" 
d="M28 384v44l160 155q53 52 53 96q0 42 -21 60t-70 18q-58 0 -110 -17v51q52 17 119 17q75 0 109.5 -29t34.5 -93q0 -62 -63 -123l-132 -129h197v-50h-277z" />
    <glyph glyph-name="threesuperior" unicode="&#xb3;" horiz-adv-x="348" 
d="M289 800v-40l-115 -139q71 -4 103 -33t32 -85q0 -67 -41 -97t-133 -30q-62 0 -107 15v49q51 -15 103 -15q61 0 88.5 18t27.5 60q0 41 -29 59.5t-95 18.5h-17v36l111 135h-185v48h257z" />
    <glyph glyph-name="acute" unicode="&#xb4;" horiz-adv-x="240" 
d="M275 704l-134 -140h-74l121 140h87z" />
    <glyph glyph-name="uni00B5" unicode="&#xb5;" horiz-adv-x="567" 
d="M71 -208v694h80v-298q0 -71 29.5 -102.5t96.5 -31.5q74 0 107 32.5t33 106.5v293h80v-486h-63l-6 61q-40 -72 -152 -72q-93 0 -125 54v-251h-80z" />
    <glyph glyph-name="paragraph" unicode="&#xb6;" horiz-adv-x="593" 
d="M441 -144v753h-120v-350h-54q-226 0 -226 206q0 207 226 207h243v-816h-69z" />
    <glyph glyph-name="periodcentered" unicode="&#xb7;" horiz-adv-x="231" 
d="M61 247q0 28 13 40.5t42 12.5t41.5 -12t12.5 -41t-12.5 -41t-41.5 -12t-42 12.5t-13 40.5z" />
    <glyph glyph-name="cedilla" unicode="&#xb8;" horiz-adv-x="240" 
d="M92 -96v96h56v-60q42 -3 61.5 -22.5t19.5 -59.5q0 -47 -29.5 -68t-94.5 -21q-40 0 -85 10v48q45 -12 75 -12q38 0 54 10t16 35q0 24 -14.5 34t-50.5 10h-8z" />
    <glyph glyph-name="onesuperior" unicode="&#xb9;" horiz-adv-x="272" 
d="M139 384v360l-107 -45v51l120 50h48v-416h-61z" />
    <glyph glyph-name="ordmasculine" unicode="&#xba;" horiz-adv-x="403" 
d="M42 228v50h318v-50h-318zM39 510q0 90 38.5 130t123.5 40q86 0 124 -40t38 -130q0 -89 -38 -129t-124 -40q-85 0 -123.5 40t-38.5 129zM101 510q0 -64 23.5 -92t76.5 -28q54 0 77 28t23 92q0 65 -23 92.5t-77 27.5q-53 0 -76.5 -28t-23.5 -92z" />
    <glyph glyph-name="guillemotright" unicode="&#xbb;" horiz-adv-x="495" 
d="M33 50l132 193l-132 193h76l140 -193l-140 -193h-76zM249 50l131 193l-131 193h75l140 -193l-140 -193h-75z" />
    <glyph glyph-name="onequarter" unicode="&#xbc;" horiz-adv-x="864" 
d="M726 0v90h-212v45l204 281h63v-279h61v-47h-61v-90h-55zM572 137h154v212zM187 256v360l-107 -45v51l120 50h48v-416h-61zM255 0l302 672h52l-302 -672h-52z" />
    <glyph glyph-name="onehalf" unicode="&#xbd;" horiz-adv-x="864" 
d="M187 256v360l-107 -45v51l120 50h48v-416h-61zM255 0l302 672h52l-302 -672h-52zM534 0v44l160 155q53 52 53 96q0 42 -21 60t-70 18q-58 0 -110 -17v51q52 17 119 17q75 0 109.5 -29t34.5 -93q0 -62 -63 -123l-132 -129h197v-50h-277z" />
    <glyph glyph-name="threequarters" unicode="&#xbe;" horiz-adv-x="864" 
d="M726 0v90h-212v45l204 281h63v-279h61v-47h-61v-90h-55zM572 137h154v212zM299 672v-40l-115 -139q71 -4 103 -33t32 -85q0 -67 -41 -97t-133 -30q-62 0 -107 15v49q51 -15 103 -15q61 0 88.5 18t27.5 60q0 41 -29 59.5t-95 18.5h-17v36l111 135h-185v48h257zM255 0
l302 672h52l-302 -672h-52z" />
    <glyph glyph-name="questiondown" unicode="&#xbf;" horiz-adv-x="412" 
d="M228 282h68v-14q0 -46 -18 -82t-43 -59t-50.5 -44t-43.5 -48.5t-18 -59.5q0 -58 32.5 -83.5t107.5 -25.5q72 0 149 28v-65q-76 -27 -158 -27q-112 0 -162.5 39.5t-50.5 127.5q0 46 19.5 82.5t46.5 60t54.5 46t47 51.5t19.5 65v8zM316 443q0 -28 -12.5 -40.5t-41.5 -12.5
t-41.5 12t-12.5 41q0 28 12.5 40t41.5 12t41.5 -12t12.5 -40z" />
    <glyph glyph-name="Agrave" unicode="&#xc0;" horiz-adv-x="648" 
d="M544 0q-30 105 -54 179h-332q-34 -105 -54 -179h-84q42 163 118 362.5t139 309.5h94q63 -110 139 -309.5t118 -362.5h-84zM324 598q-64 -121 -145 -357h290q-78 228 -145 357zM303 740l-134 140h87l121 -140h-74z" />
    <glyph glyph-name="Aacute" unicode="&#xc1;" horiz-adv-x="648" 
d="M544 0q-30 105 -54 179h-332q-34 -105 -54 -179h-84q42 163 118 362.5t139 309.5h94q63 -110 139 -309.5t118 -362.5h-84zM324 598q-64 -121 -145 -357h290q-78 228 -145 357zM479 880l-134 -140h-74l121 140h87z" />
    <glyph glyph-name="Acircumflex" unicode="&#xc2;" horiz-adv-x="648" 
d="M544 0q-30 105 -54 179h-332q-34 -105 -54 -179h-84q42 163 118 362.5t139 309.5h94q63 -110 139 -309.5t118 -362.5h-84zM324 598q-64 -121 -145 -357h290q-78 228 -145 357zM161 740l123 140h80l123 -140h-73l-90 95l-90 -95h-73z" />
    <glyph glyph-name="Atilde" unicode="&#xc3;" horiz-adv-x="648" 
d="M544 0q-30 105 -54 179h-332q-34 -105 -54 -179h-84q42 163 118 362.5t139 309.5h94q63 -110 139 -309.5t118 -362.5h-84zM324 598q-64 -121 -145 -357h290q-78 228 -145 357zM169 751v10q0 54 21 78t67 24q31 0 69 -25.5t54 -25.5q22 0 31.5 11.5t9.5 39.5v7h58v-11
q0 -54 -21 -78t-67 -24q-31 0 -69 25.5t-54 25.5q-22 0 -31.5 -11.5t-9.5 -39.5v-6h-58z" />
    <glyph glyph-name="Adieresis" unicode="&#xc4;" horiz-adv-x="648" 
d="M544 0q-30 105 -54 179h-332q-34 -105 -54 -179h-84q42 163 118 362.5t139 309.5h94q63 -110 139 -309.5t118 -362.5h-84zM324 598q-64 -121 -145 -357h290q-78 228 -145 357zM373 810q0 49 51 49q50 0 50 -49t-50 -49q-51 0 -51 49zM174 810q0 49 50 49q51 0 51 -49
t-51 -49q-50 0 -50 49z" />
    <glyph glyph-name="Aring" unicode="&#xc5;" horiz-adv-x="648" 
d="M544 0q-30 105 -54 179h-332q-34 -105 -54 -179h-84q42 163 118 362.5t139 309.5h94q63 -110 139 -309.5t118 -362.5h-84zM324 598q-64 -121 -145 -357h290q-78 228 -145 357zM221 810q0 49 24.5 71.5t78.5 22.5t78.5 -22.5t24.5 -71.5t-24.5 -71.5t-78.5 -22.5
t-78.5 22.5t-24.5 71.5zM268 810q0 -30 13 -43t43 -13t43 12.5t13 43.5q0 30 -13 43.5t-43 13.5t-43 -13.5t-13 -43.5z" />
    <glyph glyph-name="AE" unicode="&#xc6;" horiz-adv-x="966" 
d="M913 672v-66h-368v-233h296v-62h-296v-245h376v-66h-459v179h-287q-72 -120 -104 -179h-85q103 188 226.5 373.5t219.5 298.5h481zM462 600q-112 -141 -249 -359h249v359z" />
    <glyph glyph-name="Ccedilla" unicode="&#xc7;" horiz-adv-x="604" 
d="M330 -96v86q-147 8 -214 90.5t-67 255.5q0 183 76 265.5t244 82.5q103 0 190 -25v-68q-89 26 -179 26q-131 0 -188.5 -65.5t-57.5 -215.5t57.5 -215.5t188.5 -65.5q90 0 179 26v-68q-85 -24 -173 -25v-48q42 -3 61.5 -22.5t19.5 -59.5q0 -47 -29.5 -68t-94.5 -21
q-40 0 -85 10v48q45 -12 75 -12q38 0 54 10t16 35q0 24 -14.5 34t-50.5 10h-8z" />
    <glyph glyph-name="Egrave" unicode="&#xc8;" horiz-adv-x="590" 
d="M53 672h484v-66h-368v-233h296v-62h-296v-245h376v-66h-459v609q0 9 -10 13l-30 13zM288 740l-134 140h87l121 -140h-74z" />
    <glyph glyph-name="Eacute" unicode="&#xc9;" horiz-adv-x="590" 
d="M53 672h484v-66h-368v-233h296v-62h-296v-245h376v-66h-459v609q0 9 -10 13l-30 13zM464 880l-134 -140h-74l121 140h87z" />
    <glyph glyph-name="Ecircumflex" unicode="&#xca;" horiz-adv-x="590" 
d="M53 672h484v-66h-368v-233h296v-62h-296v-245h376v-66h-459v609q0 9 -10 13l-30 13zM146 740l123 140h80l123 -140h-73l-90 95l-90 -95h-73z" />
    <glyph glyph-name="Edieresis" unicode="&#xcb;" horiz-adv-x="590" 
d="M53 672h484v-66h-368v-233h296v-62h-296v-245h376v-66h-459v609q0 9 -10 13l-30 13zM358 810q0 49 51 49q50 0 50 -49t-50 -49q-51 0 -51 49zM159 810q0 49 50 49q51 0 51 -49t-51 -49q-50 0 -50 49z" />
    <glyph glyph-name="Igrave" unicode="&#xcc;" horiz-adv-x="254" 
d="M170 662v-662h-83v609q0 9 -10 13l-30 13l7 37h107q9 0 9 -10zM107 740l-134 140h87l121 -140h-74z" />
    <glyph glyph-name="Iacute" unicode="&#xcd;" horiz-adv-x="254" 
d="M170 662v-662h-83v609q0 9 -10 13l-30 13l7 37h107q9 0 9 -10zM283 880l-134 -140h-74l121 140h87z" />
    <glyph glyph-name="Icircumflex" unicode="&#xce;" horiz-adv-x="254" 
d="M170 662v-662h-83v609q0 9 -10 13l-30 13l7 37h107q9 0 9 -10zM-35 740l123 140h80l123 -140h-73l-90 95l-90 -95h-73z" />
    <glyph glyph-name="Idieresis" unicode="&#xcf;" horiz-adv-x="254" 
d="M170 662v-662h-83v609q0 9 -10 13l-30 13l7 37h107q9 0 9 -10zM177 810q0 49 51 49q50 0 50 -49t-50 -49q-51 0 -51 49zM-22 810q0 49 50 49q51 0 51 -49t-51 -49q-50 0 -50 49z" />
    <glyph glyph-name="Eth" unicode="&#xd0;" horiz-adv-x="731" 
d="M110 372v237q0 9 -10 13l-30 13l7 37h255q185 0 267.5 -79t82.5 -257q0 -177 -82.5 -256.5t-267.5 -79.5h-222v312h-79v60h79zM193 606v-234h181v-60h-181v-246h133q145 0 208.5 63t63.5 207t-63.5 207t-208.5 63h-133z" />
    <glyph glyph-name="Ntilde" unicode="&#xd1;" horiz-adv-x="739" 
d="M86 0v609q0 9 -10 13l-30 13l7 37h94q21 0 30 -13l402 -544v557h77v-672h-81l-412 557v-557h-77zM216 751v10q0 54 21 78t67 24q30 0 69 -25.5t54 -25.5q22 0 31.5 11.5t9.5 39.5v7h58v-11q0 -54 -21 -78t-67 -24q-30 0 -69 25.5t-54 25.5q-22 0 -31.5 -11.5t-9.5 -39.5
v-6h-58z" />
    <glyph glyph-name="Ograve" unicode="&#xd2;" horiz-adv-x="737" 
d="M49 336q0 184 75.5 266t244.5 82t244 -82t75 -266t-75 -266t-244 -82t-244.5 82t-75.5 266zM134 336q0 -150 55 -215.5t180 -65.5t180 65.5t55 215.5t-55 215.5t-180 65.5t-180 -65.5t-55 -215.5zM348 740l-134 140h87l121 -140h-74z" />
    <glyph glyph-name="Oacute" unicode="&#xd3;" horiz-adv-x="737" 
d="M49 336q0 184 75.5 266t244.5 82t244 -82t75 -266t-75 -266t-244 -82t-244.5 82t-75.5 266zM134 336q0 -150 55 -215.5t180 -65.5t180 65.5t55 215.5t-55 215.5t-180 65.5t-180 -65.5t-55 -215.5zM524 880l-134 -140h-74l121 140h87z" />
    <glyph glyph-name="Ocircumflex" unicode="&#xd4;" horiz-adv-x="737" 
d="M49 336q0 184 75.5 266t244.5 82t244 -82t75 -266t-75 -266t-244 -82t-244.5 82t-75.5 266zM134 336q0 -150 55 -215.5t180 -65.5t180 65.5t55 215.5t-55 215.5t-180 65.5t-180 -65.5t-55 -215.5zM206 740l123 140h80l123 -140h-73l-90 95l-90 -95h-73z" />
    <glyph glyph-name="Otilde" unicode="&#xd5;" horiz-adv-x="737" 
d="M49 336q0 184 75.5 266t244.5 82t244 -82t75 -266t-75 -266t-244 -82t-244.5 82t-75.5 266zM134 336q0 -150 55 -215.5t180 -65.5t180 65.5t55 215.5t-55 215.5t-180 65.5t-180 -65.5t-55 -215.5zM214 751v10q0 54 21 78t67 24q30 0 69 -25.5t54 -25.5q22 0 31.5 11.5
t9.5 39.5v7h58v-11q0 -54 -21 -78t-67 -24q-31 0 -69.5 25.5t-53.5 25.5q-22 0 -31.5 -11.5t-9.5 -39.5v-6h-58z" />
    <glyph glyph-name="Odieresis" unicode="&#xd6;" horiz-adv-x="737" 
d="M49 336q0 184 75.5 266t244.5 82t244 -82t75 -266t-75 -266t-244 -82t-244.5 82t-75.5 266zM134 336q0 -150 55 -215.5t180 -65.5t180 65.5t55 215.5t-55 215.5t-180 65.5t-180 -65.5t-55 -215.5zM418 810q0 49 51 49q50 0 50 -49t-50 -49q-51 0 -51 49zM219 810
q0 49 50 49q51 0 51 -49t-51 -49q-50 0 -50 49z" />
    <glyph glyph-name="multiply" unicode="&#xd7;" 
d="M138 90l-48 48l150 150l-150 150l48 48l150 -150l150 150l48 -48l-150 -150l150 -150l-48 -48l-150 150z" />
    <glyph glyph-name="Oslash" unicode="&#xd8;" horiz-adv-x="737" 
d="M49 336q0 184 75.5 266t244.5 82q124 0 196 -44l48 64h64l-72 -95q83 -82 83 -273q0 -184 -75 -266t-244 -82q-123 0 -197 43l-47 -63h-64l71 94q-83 82 -83 274zM128 336q0 -144 51 -211l342 457q-54 38 -152 38q-128 0 -184.5 -66.5t-56.5 -217.5zM609 336
q0 143 -51 210l-342 -457q53 -37 153 -37q128 0 184 66.5t56 217.5z" />
    <glyph glyph-name="Ugrave" unicode="&#xd9;" horiz-adv-x="732" 
d="M165 662v-399q0 -111 47 -159.5t155 -48.5q107 0 154.5 48.5t47.5 159.5v409h83v-415q0 -142 -67 -205.5t-218 -63.5t-218 63.5t-67 205.5v352q0 9 -10 13l-30 13l7 37h107q9 0 9 -10zM346 740l-134 140h87l121 -140h-74z" />
    <glyph glyph-name="Uacute" unicode="&#xda;" horiz-adv-x="732" 
d="M165 662v-399q0 -111 47 -159.5t155 -48.5q107 0 154.5 48.5t47.5 159.5v409h83v-415q0 -142 -67 -205.5t-218 -63.5t-218 63.5t-67 205.5v352q0 9 -10 13l-30 13l7 37h107q9 0 9 -10zM522 880l-134 -140h-74l121 140h87z" />
    <glyph glyph-name="Ucircumflex" unicode="&#xdb;" horiz-adv-x="732" 
d="M165 662v-399q0 -111 47 -159.5t155 -48.5q107 0 154.5 48.5t47.5 159.5v409h83v-415q0 -142 -67 -205.5t-218 -63.5t-218 63.5t-67 205.5v352q0 9 -10 13l-30 13l7 37h107q9 0 9 -10zM204 740l123 140h80l123 -140h-73l-90 95l-90 -95h-73z" />
    <glyph glyph-name="Udieresis" unicode="&#xdc;" horiz-adv-x="732" 
d="M165 662v-399q0 -111 47 -159.5t155 -48.5q107 0 154.5 48.5t47.5 159.5v409h83v-415q0 -142 -67 -205.5t-218 -63.5t-218 63.5t-67 205.5v352q0 9 -10 13l-30 13l7 37h107q9 0 9 -10zM416 810q0 49 51 49q50 0 50 -49t-50 -49q-51 0 -51 49zM217 810q0 49 50 49
q51 0 51 -49t-51 -49q-50 0 -50 49z" />
    <glyph glyph-name="Yacute" unicode="&#xdd;" horiz-adv-x="599" 
d="M258 0v287l-246 385h92l197 -313l195 313h92l-247 -385v-287h-83zM455 880l-134 -140h-74l121 140h87z" />
    <glyph glyph-name="Thorn" unicode="&#xde;" horiz-adv-x="627" 
d="M86 0v609q0 9 -10 13l-30 13l7 37h113v-123h184q124 0 180 -49t56 -158t-56 -158t-180 -49h-184v-135h-80zM166 483v-282h178q86 0 123.5 33t37.5 108t-37.5 108t-123.5 33h-178z" />
    <glyph glyph-name="germandbls" unicode="&#xdf;" horiz-adv-x="567" 
d="M71 0v493q0 117 52.5 170t170.5 53q108 0 156.5 -44t48.5 -142q0 -127 -97 -158q129 -28 129 -182q0 -107 -52 -154.5t-168 -47.5q-52 0 -95 7v66q42 -9 84 -9q82 0 117 33.5t35 110.5q0 75 -37.5 108t-122.5 33h-40v62h32q74 0 106 29t32 96q0 68 -30.5 98t-100.5 30
q-76 0 -109.5 -38.5t-33.5 -126.5v-487h-77z" />
    <glyph glyph-name="agrave" unicode="&#xe0;" horiz-adv-x="530" 
d="M382 152v44q-56 22 -130 22q-69 0 -99 -20t-30 -66q0 -44 29 -65t92 -21q72 0 105 25.5t33 80.5zM397 8l-4 42q-44 -62 -164 -62q-95 0 -140 34.5t-45 108.5t47 108t149 34q80 0 142 -21v67q0 62 -34 89t-111 27q-75 0 -150 -24v64q77 23 159 23q112 0 162.5 -43.5
t50.5 -141.5v-245q0 -11 8 -14l30 -13l-8 -41h-83q-8 0 -9 8zM244 564l-134 140h87l121 -140h-74z" />
    <glyph glyph-name="aacute" unicode="&#xe1;" horiz-adv-x="530" 
d="M382 152v44q-56 22 -130 22q-69 0 -99 -20t-30 -66q0 -44 29 -65t92 -21q72 0 105 25.5t33 80.5zM397 8l-4 42q-44 -62 -164 -62q-95 0 -140 34.5t-45 108.5t47 108t149 34q80 0 142 -21v67q0 62 -34 89t-111 27q-75 0 -150 -24v64q77 23 159 23q112 0 162.5 -43.5
t50.5 -141.5v-245q0 -11 8 -14l30 -13l-8 -41h-83q-8 0 -9 8zM420 704l-134 -140h-74l121 140h87z" />
    <glyph glyph-name="acircumflex" unicode="&#xe2;" horiz-adv-x="530" 
d="M382 152v44q-56 22 -130 22q-69 0 -99 -20t-30 -66q0 -44 29 -65t92 -21q72 0 105 25.5t33 80.5zM397 8l-4 42q-44 -62 -164 -62q-95 0 -140 34.5t-45 108.5t47 108t149 34q80 0 142 -21v67q0 62 -34 89t-111 27q-75 0 -150 -24v64q77 23 159 23q112 0 162.5 -43.5
t50.5 -141.5v-245q0 -11 8 -14l30 -13l-8 -41h-83q-8 0 -9 8zM102 564l123 140h80l123 -140h-73l-90 95l-90 -95h-73z" />
    <glyph glyph-name="atilde" unicode="&#xe3;" horiz-adv-x="530" 
d="M382 152v44q-56 22 -130 22q-69 0 -99 -20t-30 -66q0 -44 29 -65t92 -21q72 0 105 25.5t33 80.5zM397 8l-4 42q-44 -62 -164 -62q-95 0 -140 34.5t-45 108.5t47 108t149 34q80 0 142 -21v67q0 62 -34 89t-111 27q-75 0 -150 -24v64q77 23 159 23q112 0 162.5 -43.5
t50.5 -141.5v-245q0 -11 8 -14l30 -13l-8 -41h-83q-8 0 -9 8zM110 575v10q0 54 21 78t67 24q30 0 69 -25.5t54 -25.5q22 0 31.5 11.5t9.5 39.5v7h58v-11q0 -54 -21 -78t-67 -24q-30 0 -69 25.5t-54 25.5q-22 0 -31.5 -11.5t-9.5 -39.5v-6h-58z" />
    <glyph glyph-name="adieresis" unicode="&#xe4;" horiz-adv-x="530" 
d="M382 152v44q-56 22 -130 22q-69 0 -99 -20t-30 -66q0 -44 29 -65t92 -21q72 0 105 25.5t33 80.5zM397 8l-4 42q-44 -62 -164 -62q-95 0 -140 34.5t-45 108.5t47 108t149 34q80 0 142 -21v67q0 62 -34 89t-111 27q-75 0 -150 -24v64q77 23 159 23q112 0 162.5 -43.5
t50.5 -141.5v-245q0 -11 8 -14l30 -13l-8 -41h-83q-8 0 -9 8zM314 634q0 49 51 49q50 0 50 -49t-50 -49q-51 0 -51 49zM115 634q0 49 50 49q51 0 51 -49t-51 -49q-50 0 -50 49z" />
    <glyph glyph-name="aring" unicode="&#xe5;" horiz-adv-x="530" 
d="M382 152v44q-56 22 -130 22q-69 0 -99 -20t-30 -66q0 -44 29 -65t92 -21q72 0 105 25.5t33 80.5zM397 8l-4 42q-44 -62 -164 -62q-95 0 -140 34.5t-45 108.5t47 108t149 34q80 0 142 -21v67q0 62 -34 89t-111 27q-75 0 -150 -24v64q77 23 159 23q112 0 162.5 -43.5
t50.5 -141.5v-245q0 -11 8 -14l30 -13l-8 -41h-83q-8 0 -9 8zM162 634q0 49 24.5 71.5t78.5 22.5t78.5 -22.5t24.5 -71.5t-24.5 -71.5t-78.5 -22.5t-78.5 22.5t-24.5 71.5zM209 634q0 -30 13 -43t43 -13t43 12.5t13 43.5q0 30 -13 43.5t-43 13.5t-43 -13.5t-13 -43.5z" />
    <glyph glyph-name="ae" unicode="&#xe6;" horiz-adv-x="860" 
d="M44 131q0 73 47 107t149 34q80 0 142 -21v68q0 62 -34 89t-111 27q-75 0 -150 -24v64q77 23 159 23q147 0 180 -91q45 91 184 91q111 0 160.5 -58.5t49.5 -188.5q0 -6 -0.5 -16.5t-0.5 -14.5h-362q2 -90 46 -129.5t142 -39.5q78 0 156 24v-64q-72 -23 -162 -23
q-166 0 -221 95q-37 -95 -186 -95q-97 0 -142.5 34.5t-45.5 108.5zM610 440q-78 0 -114 -38.5t-39 -126.5h285q-2 89 -32 127t-100 38zM123 132q0 -44 29.5 -65t93.5 -21q71 0 103.5 25.5t32.5 80.5v44q-56 22 -130 22q-69 0 -99 -20t-30 -66z" />
    <glyph glyph-name="ccedilla" unicode="&#xe7;" horiz-adv-x="463" 
d="M240 -96v86q-103 9 -150.5 69.5t-47.5 183.5q0 134 57 194.5t183 60.5q81 0 142 -19v-65q-63 20 -131 20q-90 0 -129.5 -44.5t-39.5 -146.5t39.5 -146.5t129.5 -44.5q68 0 131 20v-65q-55 -17 -128 -19v-48q42 -3 61.5 -22.5t19.5 -59.5q0 -47 -29.5 -68t-94.5 -21
q-40 0 -85 10v48q45 -12 75 -12q38 0 54 10t16 35q0 24 -14.5 34t-50.5 10h-8z" />
    <glyph glyph-name="egrave" unicode="&#xe8;" horiz-adv-x="523" 
d="M42 243q0 134 54.5 194.5t176.5 60.5q111 0 160.5 -58.5t49.5 -188.5q0 -22 -1 -31h-361q3 -91 46.5 -130t141.5 -39q77 0 155 24v-64q-70 -23 -161 -23q-137 0 -199 60t-62 195zM273 440q-78 0 -114 -39t-38 -126h285q-1 88 -32 126.5t-101 38.5zM250 564l-134 140h87
l121 -140h-74z" />
    <glyph glyph-name="eacute" unicode="&#xe9;" horiz-adv-x="523" 
d="M42 243q0 134 54.5 194.5t176.5 60.5q111 0 160.5 -58.5t49.5 -188.5q0 -22 -1 -31h-361q3 -91 46.5 -130t141.5 -39q77 0 155 24v-64q-70 -23 -161 -23q-137 0 -199 60t-62 195zM273 440q-78 0 -114 -39t-38 -126h285q-1 88 -32 126.5t-101 38.5zM426 704l-134 -140h-74
l121 140h87z" />
    <glyph glyph-name="ecircumflex" unicode="&#xea;" horiz-adv-x="523" 
d="M42 243q0 134 54.5 194.5t176.5 60.5q111 0 160.5 -58.5t49.5 -188.5q0 -22 -1 -31h-361q3 -91 46.5 -130t141.5 -39q77 0 155 24v-64q-70 -23 -161 -23q-137 0 -199 60t-62 195zM273 440q-78 0 -114 -39t-38 -126h285q-1 88 -32 126.5t-101 38.5zM108 564l123 140h80
l123 -140h-73l-90 95l-90 -95h-73z" />
    <glyph glyph-name="edieresis" unicode="&#xeb;" horiz-adv-x="523" 
d="M42 243q0 134 54.5 194.5t176.5 60.5q111 0 160.5 -58.5t49.5 -188.5q0 -22 -1 -31h-361q3 -91 46.5 -130t141.5 -39q77 0 155 24v-64q-70 -23 -161 -23q-137 0 -199 60t-62 195zM273 440q-78 0 -114 -39t-38 -126h285q-1 88 -32 126.5t-101 38.5zM320 634q0 49 51 49
q50 0 50 -49t-50 -49q-51 0 -51 49zM121 634q0 49 50 49q51 0 51 -49t-51 -49q-50 0 -50 49z" />
    <glyph glyph-name="igrave" unicode="&#xec;" horiz-adv-x="230" 
d="M41 445l8 41h101q9 0 9 -10v-476h-80v418q0 11 -8 14zM98 564l-134 140h87l121 -140h-74z" />
    <glyph glyph-name="iacute" unicode="&#xed;" horiz-adv-x="230" 
d="M41 445l8 41h101q9 0 9 -10v-476h-80v418q0 11 -8 14zM274 704l-134 -140h-74l121 140h87z" />
    <glyph glyph-name="icircumflex" unicode="&#xee;" horiz-adv-x="230" 
d="M41 445l8 41h101q9 0 9 -10v-476h-80v418q0 11 -8 14zM-44 564l123 140h80l123 -140h-73l-90 95l-90 -95h-73z" />
    <glyph glyph-name="idieresis" unicode="&#xef;" horiz-adv-x="230" 
d="M41 445l8 41h101q9 0 9 -10v-476h-80v418q0 11 -8 14zM158 634q0 49 51 49q50 0 50 -49t-50 -49q-51 0 -51 49zM-41 634q0 49 50 49q51 0 51 -49t-51 -49q-50 0 -50 49z" />
    <glyph glyph-name="eth" unicode="&#xf0;" horiz-adv-x="567" 
d="M418 726l-59 -69q156 -100 156 -394q0 -144 -57 -209.5t-182 -65.5q-122 0 -177 59t-55 190q0 132 52.5 190.5t169.5 58.5q110 0 154 -66q-24 128 -106 184l-52 -61h-72l74 87q-54 22 -132 25v61q107 -3 177 -33l37 43h72zM126 237q0 -100 35 -144t115 -44q83 0 120 44.5
t37 146.5q0 96 -36 140.5t-115 44.5q-83 0 -119.5 -44t-36.5 -144z" />
    <glyph glyph-name="ntilde" unicode="&#xf1;" horiz-adv-x="570" 
d="M500 305v-237q0 -11 8 -14l30 -13l-8 -41h-101q-9 0 -9 10v293q0 70 -28 99.5t-94 29.5q-43 0 -84.5 -11.5t-59.5 -24.5v-396h-80v418q0 11 -8 14l-30 13l8 41h101q9 0 9 -10v-34q60 56 158 56q100 0 144 -45t44 -148zM133 575v10q0 54 21 78t67 24q30 0 68.5 -25.5
t54.5 -25.5q22 0 31.5 11.5t9.5 39.5v7h58v-11q0 -54 -21 -78t-67 -24q-31 0 -69.5 25.5t-53.5 25.5q-22 0 -31.5 -11.5t-9.5 -39.5v-6h-58z" />
    <glyph glyph-name="ograve" unicode="&#xf2;" horiz-adv-x="563" 
d="M42 243q0 134 57 194.5t183 60.5t182.5 -60.5t56.5 -194.5q0 -135 -56.5 -195t-182.5 -60t-183 60t-57 195zM124 243q0 -102 37 -146.5t121 -44.5q83 0 120 44.5t37 146.5t-37 146.5t-120 44.5q-84 0 -121 -44.5t-37 -146.5zM261 564l-134 140h87l121 -140h-74z" />
    <glyph glyph-name="oacute" unicode="&#xf3;" horiz-adv-x="563" 
d="M42 243q0 134 57 194.5t183 60.5t182.5 -60.5t56.5 -194.5q0 -135 -56.5 -195t-182.5 -60t-183 60t-57 195zM124 243q0 -102 37 -146.5t121 -44.5q83 0 120 44.5t37 146.5t-37 146.5t-120 44.5q-84 0 -121 -44.5t-37 -146.5zM437 704l-134 -140h-74l121 140h87z" />
    <glyph glyph-name="ocircumflex" unicode="&#xf4;" horiz-adv-x="563" 
d="M42 243q0 134 57 194.5t183 60.5t182.5 -60.5t56.5 -194.5q0 -135 -56.5 -195t-182.5 -60t-183 60t-57 195zM124 243q0 -102 37 -146.5t121 -44.5q83 0 120 44.5t37 146.5t-37 146.5t-120 44.5q-84 0 -121 -44.5t-37 -146.5zM119 564l123 140h80l123 -140h-73l-90 95
l-90 -95h-73z" />
    <glyph glyph-name="otilde" unicode="&#xf5;" horiz-adv-x="563" 
d="M42 243q0 134 57 194.5t183 60.5t182.5 -60.5t56.5 -194.5q0 -135 -56.5 -195t-182.5 -60t-183 60t-57 195zM124 243q0 -102 37 -146.5t121 -44.5q83 0 120 44.5t37 146.5t-37 146.5t-120 44.5q-84 0 -121 -44.5t-37 -146.5zM127 575v10q0 54 21 78t67 24
q30 0 68.5 -25.5t54.5 -25.5q22 0 31.5 11.5t9.5 39.5v7h58v-11q0 -54 -21 -78t-67 -24q-31 0 -69 25.5t-54 25.5q-22 0 -31.5 -11.5t-9.5 -39.5v-6h-58z" />
    <glyph glyph-name="odieresis" unicode="&#xf6;" horiz-adv-x="563" 
d="M42 243q0 134 57 194.5t183 60.5t182.5 -60.5t56.5 -194.5q0 -135 -56.5 -195t-182.5 -60t-183 60t-57 195zM124 243q0 -102 37 -146.5t121 -44.5q83 0 120 44.5t37 146.5t-37 146.5t-120 44.5q-84 0 -121 -44.5t-37 -146.5zM331 634q0 49 51 49q50 0 50 -49t-50 -49
q-51 0 -51 49zM132 634q0 49 50 49q51 0 51 -49t-51 -49q-50 0 -50 49z" />
    <glyph glyph-name="divide" unicode="&#xf7;" 
d="M74 257v62h428v-62h-428zM240 464q0 25 11 35.5t37 10.5t37 -10.5t11 -35.5t-11 -35.5t-37 -10.5t-37 10.5t-11 35.5zM240 112q0 25 11 35.5t37 10.5t37 -10.5t11 -35.5t-11 -35.5t-37 -10.5t-37 10.5t-11 35.5z" />
    <glyph glyph-name="oslash" unicode="&#xf8;" horiz-adv-x="563" 
d="M42 243q0 134 57 194.5t183 60.5q89 0 141 -29l37 49h56l-57 -76q62 -61 62 -199q0 -135 -56.5 -195t-182.5 -60q-89 0 -142 28l-36 -48h-57l56 75q-61 60 -61 200zM115 243q0 -95 32 -142l236 315q-37 24 -101 24q-89 0 -128 -46t-39 -151zM448 243q0 95 -32 142
l-236 -316q36 -23 102 -23q88 0 127 46t39 151z" />
    <glyph glyph-name="ugrave" unicode="&#xf9;" horiz-adv-x="562" 
d="M152 476v-285q0 -74 31 -106.5t102 -32.5t102 32.5t31 106.5v295h80v-301q0 -104 -50 -150.5t-163 -46.5t-163 46.5t-50 150.5v235q0 6 -7 9l-31 15l7 42h102q9 0 9 -10zM264 564l-134 140h87l121 -140h-74z" />
    <glyph glyph-name="uacute" unicode="&#xfa;" horiz-adv-x="562" 
d="M152 476v-285q0 -74 31 -106.5t102 -32.5t102 32.5t31 106.5v295h80v-301q0 -104 -50 -150.5t-163 -46.5t-163 46.5t-50 150.5v235q0 6 -7 9l-31 15l7 42h102q9 0 9 -10zM440 704l-134 -140h-74l121 140h87z" />
    <glyph glyph-name="ucircumflex" unicode="&#xfb;" horiz-adv-x="562" 
d="M152 476v-285q0 -74 31 -106.5t102 -32.5t102 32.5t31 106.5v295h80v-301q0 -104 -50 -150.5t-163 -46.5t-163 46.5t-50 150.5v235q0 6 -7 9l-31 15l7 42h102q9 0 9 -10zM122 564l123 140h80l123 -140h-73l-90 95l-90 -95h-73z" />
    <glyph glyph-name="udieresis" unicode="&#xfc;" horiz-adv-x="562" 
d="M152 476v-285q0 -74 31 -106.5t102 -32.5t102 32.5t31 106.5v295h80v-301q0 -104 -50 -150.5t-163 -46.5t-163 46.5t-50 150.5v235q0 6 -7 9l-31 15l7 42h102q9 0 9 -10zM334 634q0 49 51 49q50 0 50 -49t-50 -49q-51 0 -51 49zM135 634q0 49 50 49q51 0 51 -49t-51 -49
q-50 0 -50 49z" />
    <glyph glyph-name="yacute" unicode="&#xfd;" horiz-adv-x="500" 
d="M220 -3l-210 489h87l161 -389l139 389h85l-208 -554q-32 -86 -72 -119t-114 -33q-23 0 -33 2v62q9 -1 27 -1q47 0 72.5 21.5t46.5 79.5zM399 704l-134 -140h-74l121 140h87z" />
    <glyph glyph-name="thorn" unicode="&#xfe;" horiz-adv-x="566" 
d="M524 243q0 -135 -50 -195t-161 -60q-99 0 -161 53v-249h-80v844q0 11 -8 14l-30 13l8 41h101q9 0 9 -10v-258q46 62 161 62q111 0 161 -60t50 -195zM442 243q0 102 -34.5 146.5t-113.5 44.5q-76 0 -109 -32.5t-33 -106.5v-197q59 -46 142 -46q79 0 113.5 44.5t34.5 146.5
z" />
    <glyph glyph-name="ydieresis" unicode="&#xff;" horiz-adv-x="500" 
d="M220 -3l-210 489h87l161 -389l139 389h85l-208 -554q-32 -86 -72 -119t-114 -33q-23 0 -33 2v62q9 -1 27 -1q47 0 72.5 21.5t46.5 79.5zM293 634q0 49 51 49q50 0 50 -49t-50 -49q-51 0 -51 49zM94 634q0 49 50 49q51 0 51 -49t-51 -49q-50 0 -50 49z" />
    <glyph glyph-name="Amacron" unicode="&#x100;" horiz-adv-x="648" 
d="M544 0q-30 105 -54 179h-332q-34 -105 -54 -179h-84q42 163 118 362.5t139 309.5h94q63 -110 139 -309.5t118 -362.5h-84zM324 598q-64 -121 -145 -357h290q-78 228 -145 357zM173 782v57h302v-57h-302z" />
    <glyph glyph-name="amacron" unicode="&#x101;" horiz-adv-x="530" 
d="M382 152v44q-56 22 -130 22q-69 0 -99 -20t-30 -66q0 -44 29 -65t92 -21q72 0 105 25.5t33 80.5zM397 8l-4 42q-44 -62 -164 -62q-95 0 -140 34.5t-45 108.5t47 108t149 34q80 0 142 -21v67q0 62 -34 89t-111 27q-75 0 -150 -24v64q77 23 159 23q112 0 162.5 -43.5
t50.5 -141.5v-245q0 -11 8 -14l30 -13l-8 -41h-83q-8 0 -9 8zM114 606v57h302v-57h-302z" />
    <glyph glyph-name="Abreve" unicode="&#x102;" horiz-adv-x="648" 
d="M544 0q-30 105 -54 179h-332q-34 -105 -54 -179h-84q42 163 118 362.5t139 309.5h94q63 -110 139 -309.5t118 -362.5h-84zM324 598q-64 -121 -145 -357h290q-78 228 -145 357zM172 880h58q0 -50 22 -72t72 -22t72 22t22 72h58q0 -79 -36 -114t-116 -35t-116 35t-36 114z
" />
    <glyph glyph-name="abreve" unicode="&#x103;" horiz-adv-x="530" 
d="M382 152v44q-56 22 -130 22q-69 0 -99 -20t-30 -66q0 -44 29 -65t92 -21q72 0 105 25.5t33 80.5zM397 8l-4 42q-44 -62 -164 -62q-95 0 -140 34.5t-45 108.5t47 108t149 34q80 0 142 -21v67q0 62 -34 89t-111 27q-75 0 -150 -24v64q77 23 159 23q112 0 162.5 -43.5
t50.5 -141.5v-245q0 -11 8 -14l30 -13l-8 -41h-83q-8 0 -9 8zM113 704h58q0 -50 22 -72t72 -22t72 22t22 72h58q0 -79 -36 -114t-116 -35t-116 35t-36 114z" />
    <glyph glyph-name="Aogonek" unicode="&#x104;" horiz-adv-x="648" 
d="M544 0q-30 105 -54 179h-332q-34 -105 -54 -179h-84q42 163 118 362.5t139 309.5h94q63 -110 139 -309.5t118 -362.5q-55 -50 -77 -79.5t-22 -54.5t14.5 -36t47.5 -11q19 0 37 4v-49q-19 -5 -55 -5q-56 0 -82 20.5t-26 64.5q0 63 93 146h-14zM324 598q-64 -121 -145 -357
h290q-78 228 -145 357z" />
    <glyph glyph-name="aogonek" unicode="&#x105;" horiz-adv-x="530" 
d="M44 131q0 74 47 108t149 34q80 0 142 -21v67q0 62 -34 89t-111 27q-75 0 -150 -24v64q77 23 159 23q112 0 162.5 -43.5t50.5 -141.5v-250q0 -6 8 -9l30 -13l-8 -41h-30q-55 -50 -77 -79.5t-22 -54.5t14.5 -36t47.5 -11q19 0 37 4v-49q-19 -5 -55 -5q-56 0 -82 20.5
t-26 64.5q0 63 102 152l-5 44q-44 -62 -164 -62q-95 0 -140 34.5t-45 108.5zM123 132q0 -44 29 -65t92 -21q72 0 105 25.5t33 80.5v44q-56 22 -130 22q-69 0 -99 -20t-30 -66z" />
    <glyph glyph-name="Cacute" unicode="&#x106;" horiz-adv-x="604" 
d="M49 336q0 183 76 265.5t244 82.5q119 0 195 -26l-12 -65q-80 24 -172 24q-131 0 -188.5 -65.5t-57.5 -215.5t57.5 -215.5t188.5 -65.5q90 0 179 26v-68q-87 -25 -190 -25q-168 0 -244 82.5t-76 265.5zM513 880l-134 -140h-74l121 140h87z" />
    <glyph glyph-name="cacute" unicode="&#x107;" horiz-adv-x="463" 
d="M42 243q0 134 57 194.5t183 60.5q90 0 147 -21l-13 -62q-53 19 -123 19q-90 0 -129.5 -44.5t-39.5 -146.5t39.5 -146.5t129.5 -44.5q68 0 131 20v-65q-61 -19 -142 -19q-126 0 -183 60t-57 195zM423 704l-134 -140h-74l121 140h87z" />
    <glyph glyph-name="Ccircumflex" unicode="&#x108;" horiz-adv-x="604" 
d="M49 336q0 183 76 265.5t244 82.5q119 0 195 -26l-12 -65q-80 24 -172 24q-131 0 -188.5 -65.5t-57.5 -215.5t57.5 -215.5t188.5 -65.5q90 0 179 26v-68q-87 -25 -190 -25q-168 0 -244 82.5t-76 265.5zM195 740l123 140h80l123 -140h-73l-90 95l-90 -95h-73z" />
    <glyph glyph-name="ccircumflex" unicode="&#x109;" horiz-adv-x="463" 
d="M42 243q0 134 57 194.5t183 60.5q90 0 147 -21l-13 -62q-53 19 -123 19q-90 0 -129.5 -44.5t-39.5 -146.5t39.5 -146.5t129.5 -44.5q68 0 131 20v-65q-61 -19 -142 -19q-126 0 -183 60t-57 195zM105 564l123 140h80l123 -140h-73l-90 95l-90 -95h-73z" />
    <glyph glyph-name="Cdotaccent" unicode="&#x10a;" horiz-adv-x="604" 
d="M49 336q0 183 76 265.5t244 82.5q119 0 195 -26l-12 -65q-80 24 -172 24q-131 0 -188.5 -65.5t-57.5 -215.5t57.5 -215.5t188.5 -65.5q90 0 179 26v-68q-87 -25 -190 -25q-168 0 -244 82.5t-76 265.5zM307 810q0 26 12 37.5t39 11.5t39 -11.5t12 -37.5t-12 -37.5
t-39 -11.5t-39 11.5t-12 37.5z" />
    <glyph glyph-name="cdotaccent" unicode="&#x10b;" horiz-adv-x="463" 
d="M42 243q0 134 57 194.5t183 60.5q90 0 147 -21l-13 -62q-53 19 -123 19q-90 0 -129.5 -44.5t-39.5 -146.5t39.5 -146.5t129.5 -44.5q68 0 131 20v-65q-61 -19 -142 -19q-126 0 -183 60t-57 195zM217 634q0 26 12 37.5t39 11.5t39 -11.5t12 -37.5t-12 -37.5t-39 -11.5
t-39 11.5t-12 37.5z" />
    <glyph glyph-name="Ccaron" unicode="&#x10c;" horiz-adv-x="604" 
d="M49 336q0 183 76 265.5t244 82.5q119 0 195 -26l-12 -65q-80 24 -172 24q-131 0 -188.5 -65.5t-57.5 -215.5t57.5 -215.5t188.5 -65.5q90 0 179 26v-68q-87 -25 -190 -25q-168 0 -244 82.5t-76 265.5zM521 880l-123 -140h-80l-123 140h73l90 -95l90 95h73z" />
    <glyph glyph-name="ccaron" unicode="&#x10d;" horiz-adv-x="463" 
d="M42 243q0 134 57 194.5t183 60.5q90 0 147 -21l-13 -62q-53 19 -123 19q-90 0 -129.5 -44.5t-39.5 -146.5t39.5 -146.5t129.5 -44.5q68 0 131 20v-65q-61 -19 -142 -19q-126 0 -183 60t-57 195zM431 704l-123 -140h-80l-123 140h73l90 -95l90 95h73z" />
    <glyph glyph-name="Dcaron" unicode="&#x10e;" horiz-adv-x="707" 
d="M169 606v-540h133q145 0 208.5 63t63.5 207t-63.5 207t-208.5 63h-133zM53 672h255q185 0 267.5 -79t82.5 -257t-82.5 -257t-267.5 -79h-222v609q0 9 -10 13l-30 13zM502 880l-123 -140h-80l-123 140h73l90 -95l90 95h73z" />
    <glyph glyph-name="dcaron" unicode="&#x10f;" horiz-adv-x="678" 
d="M273 434q-80 0 -114.5 -44.5t-34.5 -146.5t34.5 -146.5t114.5 -44.5q83 0 142 46v197q0 74 -33 106.5t-109 32.5zM431 8l-5 48q-53 -68 -172 -68q-112 0 -162 60t-50 195t50 195t162 60q113 0 161 -62v268h80v-636q0 -11 8 -14l30 -13l-8 -41h-85q-8 0 -9 8zM678 742
l-65 -188h-56l50 188h71z" />
    <glyph glyph-name="Dcroat" unicode="&#x110;" horiz-adv-x="731" 
d="M110 372v237q0 9 -10 13l-30 13l7 37h255q185 0 267.5 -79t82.5 -257q0 -177 -82.5 -256.5t-267.5 -79.5h-222v312h-79v60h79zM193 606v-234h181v-60h-181v-246h133q145 0 208.5 63t63.5 207t-63.5 207t-208.5 63h-133z" />
    <glyph glyph-name="dcroat" unicode="&#x111;" horiz-adv-x="580" 
d="M270 52q86 0 145 46v171q0 88 -34 126.5t-111 38.5q-78 0 -112 -44.5t-34 -146.5t34 -146.5t112 -44.5zM251 -12q-110 0 -159.5 60t-49.5 195t49.5 195t159.5 60q121 0 164 -82v153h-178v56h178v79h80v-79h65v-56h-65v-501q0 -11 8 -14l30 -13l-8 -41h-85q-8 0 -9 8
l-5 48q-53 -68 -175 -68z" />
    <glyph glyph-name="Emacron" unicode="&#x112;" horiz-adv-x="590" 
d="M53 672h484v-66h-368v-233h296v-62h-296v-245h376v-66h-459v609q0 9 -10 13l-30 13zM158 782v57h302v-57h-302z" />
    <glyph glyph-name="emacron" unicode="&#x113;" horiz-adv-x="523" 
d="M42 243q0 134 54.5 194.5t176.5 60.5q111 0 160.5 -58.5t49.5 -188.5q0 -22 -1 -31h-361q3 -91 46.5 -130t141.5 -39q77 0 155 24v-64q-70 -23 -161 -23q-137 0 -199 60t-62 195zM273 440q-78 0 -114 -39t-38 -126h285q-1 88 -32 126.5t-101 38.5zM120 606v57h302v-57
h-302z" />
    <glyph glyph-name="Ebreve" unicode="&#x114;" horiz-adv-x="590" 
d="M53 672h484v-66h-368v-233h296v-62h-296v-245h376v-66h-459v609q0 9 -10 13l-30 13zM157 880h58q0 -50 22 -72t72 -22t72 22t22 72h58q0 -79 -36 -114t-116 -35t-116 35t-36 114z" />
    <glyph glyph-name="ebreve" unicode="&#x115;" horiz-adv-x="523" 
d="M42 243q0 134 54.5 194.5t176.5 60.5q111 0 160.5 -58.5t49.5 -188.5q0 -22 -1 -31h-361q3 -91 46.5 -130t141.5 -39q77 0 155 24v-64q-70 -23 -161 -23q-137 0 -199 60t-62 195zM273 440q-78 0 -114 -39t-38 -126h285q-1 88 -32 126.5t-101 38.5zM119 704h58
q0 -50 22 -72t72 -22t72 22t22 72h58q0 -79 -36 -114t-116 -35t-116 35t-36 114z" />
    <glyph glyph-name="Edotaccent" unicode="&#x116;" horiz-adv-x="590" 
d="M53 672h484v-66h-368v-233h296v-62h-296v-245h376v-66h-459v609q0 9 -10 13l-30 13zM258 810q0 26 12 37.5t39 11.5t39 -11.5t12 -37.5t-12 -37.5t-39 -11.5t-39 11.5t-12 37.5z" />
    <glyph glyph-name="edotaccent" unicode="&#x117;" horiz-adv-x="523" 
d="M42 243q0 134 54.5 194.5t176.5 60.5q111 0 160.5 -58.5t49.5 -188.5q0 -22 -1 -31h-361q3 -91 46.5 -130t141.5 -39q77 0 155 24v-64q-70 -23 -161 -23q-137 0 -199 60t-62 195zM273 440q-78 0 -114 -39t-38 -126h285q-1 88 -32 126.5t-101 38.5zM220 634q0 26 12 37.5
t39 11.5t39 -11.5t12 -37.5t-12 -37.5t-39 -11.5t-39 11.5t-12 37.5z" />
    <glyph glyph-name="Eogonek" unicode="&#x118;" horiz-adv-x="590" 
d="M86 0v609q0 9 -10 13l-30 13l7 37h484v-64h-368v-235h296v-62h-296v-247h376v-64q-55 -50 -77 -79.5t-22 -54.5t14.5 -36t47.5 -11q19 0 37 4v-49q-19 -5 -55 -5q-56 0 -82 20.5t-26 64.5q0 62 94 146h-390z" />
    <glyph glyph-name="eogonek" unicode="&#x119;" horiz-adv-x="523" 
d="M42 243q0 134 54.5 194.5t176.5 60.5q111 0 160.5 -58.5t49.5 -188.5q0 -22 -1 -31h-361q3 -91 46.5 -130t141.5 -39q77 0 155 24v-64q-99 -94 -99 -144q0 -48 62 -48q19 0 37 4v-49q-19 -5 -54 -5q-57 0 -83 20.5t-26 64.5q0 60 79 139q-42 -5 -77 -5q-137 0 -199 60
t-62 195zM273 440q-78 0 -114 -39t-38 -126h285q-1 88 -32 126.5t-101 38.5z" />
    <glyph glyph-name="Ecaron" unicode="&#x11a;" horiz-adv-x="590" 
d="M53 672h484v-66h-368v-233h296v-62h-296v-245h376v-66h-459v609q0 9 -10 13l-30 13zM472 880l-123 -140h-80l-123 140h73l90 -95l90 95h73z" />
    <glyph glyph-name="ecaron" unicode="&#x11b;" horiz-adv-x="523" 
d="M42 243q0 134 54.5 194.5t176.5 60.5q111 0 160.5 -58.5t49.5 -188.5q0 -22 -1 -31h-361q3 -91 46.5 -130t141.5 -39q77 0 155 24v-64q-70 -23 -161 -23q-137 0 -199 60t-62 195zM273 440q-78 0 -114 -39t-38 -126h285q-1 88 -32 126.5t-101 38.5zM434 704l-123 -140h-80
l-123 140h73l90 -95l90 95h73z" />
    <glyph glyph-name="Gcircumflex" unicode="&#x11c;" horiz-adv-x="673" 
d="M362 351h249v-336q-111 -27 -234 -27q-173 0 -250.5 82t-77.5 266q0 188 81.5 268t259.5 80q129 0 205 -26l-12 -65q-80 24 -182 24q-143 0 -206.5 -64t-63.5 -217q0 -151 59.5 -216.5t194.5 -65.5q79 0 149 16v222h-172v59zM214 740l123 140h80l123 -140h-73l-90 95
l-90 -95h-73z" />
    <glyph glyph-name="gcircumflex" unicode="&#x11d;" horiz-adv-x="563" 
d="M432 486h63v-507q0 -110 -57 -154.5t-155 -44.5q-64 0 -106 8v64q56 -8 102 -8q136 0 136 121v85q-46 -62 -161 -62q-112 0 -162 60t-50 195t50 195t162 60q104 0 174 -53zM415 191v207q-64 36 -142 36q-80 0 -114.5 -44.5t-34.5 -146.5t34.5 -146.5t114.5 -44.5
q76 0 109 32.5t33 106.5zM119 564l123 140h80l123 -140h-73l-90 95l-90 -95h-73z" />
    <glyph glyph-name="Gbreve" unicode="&#x11e;" horiz-adv-x="673" 
d="M362 351h249v-336q-111 -27 -234 -27q-173 0 -250.5 82t-77.5 266q0 188 81.5 268t259.5 80q129 0 205 -26l-12 -65q-80 24 -182 24q-143 0 -206.5 -64t-63.5 -217q0 -151 59.5 -216.5t194.5 -65.5q79 0 149 16v222h-172v59zM225 880h58q0 -50 22 -72t72 -22t72 22t22 72
h58q0 -79 -36 -114t-116 -35t-116 35t-36 114z" />
    <glyph glyph-name="gbreve" unicode="&#x11f;" horiz-adv-x="563" 
d="M432 486h63v-507q0 -110 -57 -154.5t-155 -44.5q-64 0 -106 8v64q56 -8 102 -8q136 0 136 121v85q-46 -62 -161 -62q-112 0 -162 60t-50 195t50 195t162 60q104 0 174 -53zM415 191v207q-64 36 -142 36q-80 0 -114.5 -44.5t-34.5 -146.5t34.5 -146.5t114.5 -44.5
q76 0 109 32.5t33 106.5zM130 704h58q0 -50 22 -72t72 -22t72 22t22 72h58q0 -79 -36 -114t-116 -35t-116 35t-36 114z" />
    <glyph glyph-name="Gdotaccent" unicode="&#x120;" horiz-adv-x="673" 
d="M362 351h249v-336q-111 -27 -234 -27q-173 0 -250.5 82t-77.5 266q0 188 81.5 268t259.5 80q129 0 205 -26l-12 -65q-80 24 -182 24q-143 0 -206.5 -64t-63.5 -217q0 -151 59.5 -216.5t194.5 -65.5q79 0 149 16v222h-172v59zM326 810q0 26 12 37.5t39 11.5t39 -11.5
t12 -37.5t-12 -37.5t-39 -11.5t-39 11.5t-12 37.5z" />
    <glyph glyph-name="gdotaccent" unicode="&#x121;" horiz-adv-x="563" 
d="M432 486h63v-507q0 -110 -57 -154.5t-155 -44.5q-64 0 -106 8v64q56 -8 102 -8q136 0 136 121v85q-46 -62 -161 -62q-112 0 -162 60t-50 195t50 195t162 60q104 0 174 -53zM415 191v207q-64 36 -142 36q-80 0 -114.5 -44.5t-34.5 -146.5t34.5 -146.5t114.5 -44.5
q76 0 109 32.5t33 106.5zM231 634q0 26 12 37.5t39 11.5t39 -11.5t12 -37.5t-12 -37.5t-39 -11.5t-39 11.5t-12 37.5z" />
    <glyph glyph-name="Gcommaaccent" unicode="&#x122;" horiz-adv-x="673" 
d="M362 351h249v-336q-111 -27 -234 -27q-173 0 -250.5 82t-77.5 266q0 188 81.5 268t259.5 80q129 0 205 -26l-12 -65q-80 24 -182 24q-143 0 -206.5 -64t-63.5 -217q0 -151 59.5 -216.5t194.5 -65.5q79 0 149 16v222h-172v59zM430 -68l-65 -188h-56l50 188h71z" />
    <glyph glyph-name="gcommaaccent" unicode="&#x123;" horiz-adv-x="563" 
d="M432 486h63v-507q0 -110 -57 -154.5t-155 -44.5q-64 0 -106 8v64q56 -8 102 -8q136 0 136 121v85q-46 -62 -161 -62q-112 0 -162 60t-50 195t50 195t162 60q104 0 174 -53zM415 191v207q-64 36 -142 36q-80 0 -114.5 -44.5t-34.5 -146.5t34.5 -146.5t114.5 -44.5
q76 0 109 32.5t33 106.5zM229 554l65 188h56l-50 -188h-71z" />
    <glyph glyph-name="Hcircumflex" unicode="&#x124;" horiz-adv-x="739" 
d="M169 662v-287h404v297h83v-672h-83v309h-404v-309h-83v609q0 9 -10 13l-30 13l7 37h107q9 0 9 -10zM208 740l123 140h80l123 -140h-73l-90 95l-90 -95h-73z" />
    <glyph glyph-name="hcircumflex" unicode="&#x125;" horiz-adv-x="564" 
d="M-55 746l123 134h79l123 -134h-71l-91 92l-92 -92h-71zM306 498q100 0 144 -45t44 -148v-237q0 -11 8 -14l30 -13l-8 -41h-101q-9 0 -9 10v293q0 70 -28 99.5t-94 29.5q-43 0 -84.5 -11.5t-59.5 -24.5v-396h-80v636q0 11 -8 14l-30 13l8 41h101q9 0 9 -10v-252
q59 56 158 56z" />
    <glyph glyph-name="Hbar" unicode="&#x126;" horiz-adv-x="737" 
d="M84 0v521h-71v56h71v95h83v-95h404v95h83v-95h70v-56h-70v-521h-83v306h-404v-306h-83zM167 372h404v149h-404v-149z" />
    <glyph glyph-name="hbar" unicode="&#x127;" horiz-adv-x="568" 
d="M152 569v-127q60 56 158 56q100 0 144 -45t44 -148v-237q0 -11 8 -14l30 -13l-8 -41h-101q-9 0 -9 10v293q0 70 -28 99.5t-94 29.5q-43 0 -84.5 -11.5t-59.5 -24.5v-396h-80v569h-66v56h66v79h80v-79h177v-56h-177z" />
    <glyph glyph-name="Itilde" unicode="&#x128;" horiz-adv-x="254" 
d="M170 662v-662h-83v609q0 9 -10 13l-30 13l7 37h107q9 0 9 -10zM-27 751v10q0 54 21 78t67 24q31 0 69 -25.5t54 -25.5q22 0 31.5 11.5t9.5 39.5v7h58v-11q0 -54 -21 -78t-67 -24q-31 0 -69 25.5t-54 25.5q-22 0 -31.5 -11.5t-9.5 -39.5v-6h-58z" />
    <glyph glyph-name="itilde" unicode="&#x129;" horiz-adv-x="230" 
d="M41 445l8 41h101q9 0 9 -10v-476h-80v418q0 11 -8 14zM-36 575v10q0 54 21 78t67 24q30 0 69 -25.5t54 -25.5q22 0 31.5 11.5t9.5 39.5v7h58v-11q0 -54 -21 -78t-67 -24q-30 0 -69 25.5t-54 25.5q-22 0 -31.5 -11.5t-9.5 -39.5v-6h-58z" />
    <glyph glyph-name="Imacron" unicode="&#x12a;" horiz-adv-x="254" 
d="M170 662v-662h-83v609q0 9 -10 13l-30 13l7 37h107q9 0 9 -10zM-23 782v57h302v-57h-302z" />
    <glyph glyph-name="imacron" unicode="&#x12b;" horiz-adv-x="230" 
d="M41 445l8 41h101q9 0 9 -10v-476h-80v418q0 11 -8 14zM-32 606v57h302v-57h-302z" />
    <glyph glyph-name="Ibreve" unicode="&#x12c;" horiz-adv-x="254" 
d="M170 662v-662h-83v609q0 9 -10 13l-30 13l7 37h107q9 0 9 -10zM-24 880h58q0 -50 22 -72t72 -22t72 22t22 72h58q0 -79 -36 -114t-116 -35t-116 35t-36 114z" />
    <glyph glyph-name="ibreve" unicode="&#x12d;" horiz-adv-x="230" 
d="M41 445l8 41h101q9 0 9 -10v-476h-80v418q0 11 -8 14zM-33 704h58q0 -50 22 -72t72 -22t72 22t22 72h58q0 -79 -36 -114t-116 -35t-116 35t-36 114z" />
    <glyph glyph-name="Iogonek" unicode="&#x12e;" horiz-adv-x="254" 
d="M87 0v609q0 9 -10 13l-30 13l7 37h107q9 0 9 -10v-662q-55 -50 -77 -79.5t-22 -54.5t14.5 -36t47.5 -11q19 0 37 4v-49q-19 -5 -55 -5q-56 0 -82 20.5t-26 64.5q0 62 94 146h-14z" />
    <glyph glyph-name="iogonek" unicode="&#x12f;" horiz-adv-x="230" 
d="M41 445l8 41h101q9 0 9 -10v-476q-55 -50 -77 -79.5t-22 -54.5t14.5 -36t47.5 -11q19 0 37 4v-49q-19 -5 -55 -5q-56 0 -82 20.5t-26 64.5q0 62 94 146h-11v418q0 11 -8 14zM67 634q0 27 12 39t40 12q52 0 52 -51q0 -50 -52 -50q-28 0 -40 12t-12 38z" />
    <glyph glyph-name="Idotaccent" unicode="&#x130;" horiz-adv-x="254" 
d="M170 662v-662h-83v609q0 9 -10 13l-30 13l7 37h107q9 0 9 -10zM77 810q0 26 12 37.5t39 11.5t39 -11.5t12 -37.5t-12 -37.5t-39 -11.5t-39 11.5t-12 37.5z" />
    <glyph glyph-name="dotlessi" unicode="&#x131;" horiz-adv-x="230" 
d="M41 445l8 41h101q9 0 9 -10v-476h-80v418q0 11 -8 14z" />
    <glyph glyph-name="IJ" unicode="&#x132;" horiz-adv-x="692" 
d="M170 662v-662h-83v609q0 9 -10 13l-30 13l7 37h107q9 0 9 -10zM609 672v-478q0 -107 -50.5 -156.5t-160.5 -49.5q-64 0 -116 13v67q58 -13 104 -13q75 0 107.5 33t32.5 109v475h83z" />
    <glyph glyph-name="ij" unicode="&#x133;" horiz-adv-x="460" 
d="M41 445l8 41h101q9 0 9 -10v-476h-80v418q0 11 -8 14zM65 634q0 27 12 39t40 12q52 0 52 -51q0 -50 -52 -50q-28 0 -40 12t-12 38zM389 476v-530q0 -163 -152 -163q-32 0 -45 2v62q12 -1 30 -1q50 0 68.5 23.5t18.5 76.5v472q0 11 -8 14l-30 13l8 41h101q9 0 9 -10z
M295 634q0 27 12 39t40 12q52 0 52 -51q0 -50 -52 -50q-28 0 -40 12t-12 38z" />
    <glyph glyph-name="Jcircumflex" unicode="&#x134;" horiz-adv-x="439" 
d="M356 672v-478q0 -107 -50.5 -156.5t-160.5 -49.5q-64 0 -116 13v67q59 -13 104 -13q75 0 107.5 33t32.5 109v475h83zM151 740l123 140h80l123 -140h-73l-90 95l-90 -95h-73z" />
    <glyph glyph-name="jcircumflex" unicode="&#x135;" horiz-adv-x="230" 
d="M159 476v-530q0 -163 -152 -163q-32 0 -45 2v62q12 -1 30 -1q50 0 68.5 23.5t18.5 76.5v472q0 11 -8 14l-30 13l8 41h101q9 0 9 -10zM-44 564l123 140h80l123 -140h-73l-90 95l-90 -95h-73z" />
    <glyph glyph-name="Kcommaaccent" unicode="&#x136;" horiz-adv-x="607" 
d="M169 662v-319l314 329h97l-294 -311l302 -361h-97l-256 309l-66 -68v-241h-83v609q0 9 -10 13l-30 13l7 37h107q9 0 9 -10zM355 -68l-65 -188h-56l50 188h71z" />
    <glyph glyph-name="kcommaaccent" unicode="&#x137;" horiz-adv-x="477" 
d="M148 694v-433l212 225h93l-202 -216l206 -270h-91l-165 220l-53 -53v-167h-80v636q0 11 -8 14l-30 13l8 41h101q9 0 9 -10zM289 -68l-65 -188h-56l50 188h71z" />
    <glyph glyph-name="kgreenlandic" unicode="&#x138;" horiz-adv-x="483" 
d="M74 0v418q0 11 -8 14l-30 13l8 41h98q9 0 9 -10v-216l215 226h93l-211 -224l215 -262h-91l-174 211l-47 -47v-164h-77z" />
    <glyph glyph-name="Lacute" unicode="&#x139;" horiz-adv-x="515" 
d="M169 662v-596h325v-66h-408v609q0 9 -10 13l-30 13l7 37h107q9 0 9 -10zM282 880l-134 -140h-74l121 140h87z" />
    <glyph glyph-name="lacute" unicode="&#x13a;" horiz-adv-x="231" 
d="M269 880l-136 -134h-73l122 134h87zM152 694v-626q0 -11 8 -14l30 -13l-8 -41h-101q-9 0 -9 10v626q0 11 -8 14l-30 13l8 41h101q9 0 9 -10z" />
    <glyph glyph-name="Lcommaaccent" unicode="&#x13b;" horiz-adv-x="515" 
d="M169 662v-596h325v-66h-408v609q0 9 -10 13l-30 13l7 37h107q9 0 9 -10zM346 -68l-65 -188h-56l50 188h71z" />
    <glyph glyph-name="lcommaaccent" unicode="&#x13c;" horiz-adv-x="231" 
d="M152 694v-626q0 -11 8 -14l30 -13l-8 -41h-101q-9 0 -9 10v626q0 11 -8 14l-30 13l8 41h101q9 0 9 -10zM167 -68l-65 -188h-56l50 188h71z" />
    <glyph glyph-name="Lcaron" unicode="&#x13d;" horiz-adv-x="515" 
d="M169 662v-596h325v-66h-408v609q0 9 -10 13l-30 13l7 37h107q9 0 9 -10zM365 710l-65 -188h-56l50 188h71z" />
    <glyph glyph-name="lcaron" unicode="&#x13e;" horiz-adv-x="337" 
d="M152 694v-626q0 -11 8 -14l30 -13l-8 -41h-101q-9 0 -9 10v626q0 11 -8 14l-30 13l8 41h101q9 0 9 -10zM337 742l-65 -188h-56l50 188h71z" />
    <glyph glyph-name="Ldot" unicode="&#x13f;" horiz-adv-x="515" 
d="M169 662v-596h325v-66h-408v609q0 9 -10 13l-30 13l7 37h107q9 0 9 -10zM329 355q0 26 12 37.5t39 11.5t39 -11.5t12 -37.5t-12 -37.5t-39 -11.5t-39 11.5t-12 37.5z" />
    <glyph glyph-name="ldot" unicode="&#x140;" horiz-adv-x="322" 
d="M223 358q0 25 11 35.5t37 10.5q25 0 36 -10.5t11 -35.5t-11 -35.5t-36 -10.5q-26 0 -37 10.5t-11 35.5zM152 694v-626q0 -11 8 -14l30 -13l-8 -41h-101q-9 0 -9 10v626q0 11 -8 14l-30 13l8 41h101q9 0 9 -10z" />
    <glyph glyph-name="Lslash" unicode="&#x141;" horiz-adv-x="529" 
d="M100 346v263q0 9 -10 13l-30 13l7 37h107q9 0 9 -10v-274l165 83v-64l-165 -83v-258h325v-66h-408v283l-79 -40v64z" />
    <glyph glyph-name="lslash" unicode="&#x142;" horiz-adv-x="305" 
d="M193 694v-284l97 49v-64l-97 -49v-278q0 -11 8 -14l30 -13l-8 -41h-101q-9 0 -9 10v296l-98 -49v64l98 49v266q0 11 -8 14l-30 13l8 41h101q9 0 9 -10z" />
    <glyph glyph-name="Nacute" unicode="&#x143;" horiz-adv-x="739" 
d="M86 0v609q0 9 -10 13l-30 13l7 37h94q21 0 30 -13l402 -544v557h77v-672h-81l-412 557v-557h-77zM526 880l-134 -140h-74l121 140h87z" />
    <glyph glyph-name="nacute" unicode="&#x144;" horiz-adv-x="570" 
d="M500 305v-237q0 -11 8 -14l30 -13l-8 -41h-101q-9 0 -9 10v293q0 70 -28 99.5t-94 29.5q-43 0 -84.5 -11.5t-59.5 -24.5v-396h-80v418q0 11 -8 14l-30 13l8 41h101q9 0 9 -10v-34q60 56 158 56q100 0 144 -45t44 -148zM443 704l-134 -140h-74l121 140h87z" />
    <glyph glyph-name="Ncommaaccent" unicode="&#x145;" horiz-adv-x="739" 
d="M86 0v609q0 9 -10 13l-30 13l7 37h94q21 0 30 -13l402 -544v557h77v-672h-81l-412 557v-557h-77zM424 -68l-65 -188h-56l50 188h71z" />
    <glyph glyph-name="ncommaaccent" unicode="&#x146;" horiz-adv-x="570" 
d="M500 305v-237q0 -11 8 -14l30 -13l-8 -41h-101q-9 0 -9 10v293q0 70 -28 99.5t-94 29.5q-43 0 -84.5 -11.5t-59.5 -24.5v-396h-80v418q0 11 -8 14l-30 13l8 41h101q9 0 9 -10v-34q60 56 158 56q100 0 144 -45t44 -148zM341 -68l-65 -188h-56l50 188h71z" />
    <glyph glyph-name="Ncaron" unicode="&#x147;" horiz-adv-x="739" 
d="M86 0v609q0 9 -10 13l-30 13l7 37h94q21 0 30 -13l402 -544v557h77v-672h-81l-412 557v-557h-77zM534 880l-123 -140h-80l-123 140h73l90 -95l90 95h73z" />
    <glyph glyph-name="ncaron" unicode="&#x148;" horiz-adv-x="570" 
d="M500 305v-237q0 -11 8 -14l30 -13l-8 -41h-101q-9 0 -9 10v293q0 70 -28 99.5t-94 29.5q-43 0 -84.5 -11.5t-59.5 -24.5v-396h-80v418q0 11 -8 14l-30 13l8 41h101q9 0 9 -10v-34q60 56 158 56q100 0 144 -45t44 -148zM451 704l-123 -140h-80l-123 140h73l90 -95l90 95
h73z" />
    <glyph glyph-name="napostrophe" unicode="&#x149;" horiz-adv-x="684" 
d="M614 305v-237q0 -11 8 -14l30 -13l-8 -41h-101q-9 0 -9 10v293q0 70 -28 99.5t-94 29.5q-43 0 -84.5 -11.5t-59.5 -24.5v-396h-80v418q0 11 -8 14l-30 13l8 41h101q9 0 9 -10v-34q60 56 158 56q100 0 144 -45t44 -148zM157 672l-65 -188h-56l50 188h71z" />
    <glyph glyph-name="Eng" unicode="&#x14a;" horiz-adv-x="739" 
d="M86 0v609q0 9 -10 13l-30 13l7 37h94q21 0 30 -13l402 -544v557h77v-686q0 -107 -50.5 -156.5t-160.5 -49.5q-63 0 -116 13v67q59 -13 104 -13q75 0 109 30.5t34 97.5v22l-413 560v-557h-77z" />
    <glyph glyph-name="eng" unicode="&#x14b;" horiz-adv-x="571" 
d="M154 476v-34q60 56 158 56q100 0 144 -45t44 -148v-367q0 -83 -38.5 -120.5t-124.5 -37.5q-45 0 -84 9v64q41 -9 72 -9q50 0 72.5 22.5t22.5 74.5v362q0 70 -28 99.5t-94 29.5q-43 0 -84.5 -11.5t-59.5 -24.5v-396h-80v418q0 11 -8 14l-30 13l8 41h101q9 0 9 -10z" />
    <glyph glyph-name="Omacron" unicode="&#x14c;" horiz-adv-x="737" 
d="M49 336q0 184 75.5 266t244.5 82t244 -82t75 -266t-75 -266t-244 -82t-244.5 82t-75.5 266zM134 336q0 -150 55 -215.5t180 -65.5t180 65.5t55 215.5t-55 215.5t-180 65.5t-180 -65.5t-55 -215.5zM218 782v57h302v-57h-302z" />
    <glyph glyph-name="omacron" unicode="&#x14d;" horiz-adv-x="563" 
d="M42 243q0 134 57 194.5t183 60.5t182.5 -60.5t56.5 -194.5q0 -135 -56.5 -195t-182.5 -60t-183 60t-57 195zM124 243q0 -102 37 -146.5t121 -44.5q83 0 120 44.5t37 146.5t-37 146.5t-120 44.5q-84 0 -121 -44.5t-37 -146.5zM131 606v57h302v-57h-302z" />
    <glyph glyph-name="Obreve" unicode="&#x14e;" horiz-adv-x="737" 
d="M49 336q0 184 75.5 266t244.5 82t244 -82t75 -266t-75 -266t-244 -82t-244.5 82t-75.5 266zM134 336q0 -150 55 -215.5t180 -65.5t180 65.5t55 215.5t-55 215.5t-180 65.5t-180 -65.5t-55 -215.5zM217 880h58q0 -50 22 -72t72 -22t72 22t22 72h58q0 -79 -36 -114
t-116 -35t-116 35t-36 114z" />
    <glyph glyph-name="obreve" unicode="&#x14f;" horiz-adv-x="563" 
d="M42 243q0 134 57 194.5t183 60.5t182.5 -60.5t56.5 -194.5q0 -135 -56.5 -195t-182.5 -60t-183 60t-57 195zM124 243q0 -102 37 -146.5t121 -44.5q83 0 120 44.5t37 146.5t-37 146.5t-120 44.5q-84 0 -121 -44.5t-37 -146.5zM130 704h58q0 -50 22 -72t72 -22t72 22t22 72
h58q0 -79 -36 -114t-116 -35t-116 35t-36 114z" />
    <glyph glyph-name="Ohungarumlaut" unicode="&#x150;" horiz-adv-x="737" 
d="M49 336q0 184 75.5 266t244.5 82t244 -82t75 -266t-75 -266t-244 -82t-244.5 82t-75.5 266zM134 336q0 -150 55 -215.5t180 -65.5t180 65.5t55 215.5t-55 215.5t-180 65.5t-180 -65.5t-55 -215.5zM624 880l-133 -140h-75l121 140h87zM424 880l-133 -140h-75l122 140h86z
" />
    <glyph glyph-name="ohungarumlaut" unicode="&#x151;" horiz-adv-x="563" 
d="M42 243q0 134 57 194.5t183 60.5t182.5 -60.5t56.5 -194.5q0 -135 -56.5 -195t-182.5 -60t-183 60t-57 195zM124 243q0 -102 37 -146.5t121 -44.5q83 0 120 44.5t37 146.5t-37 146.5t-120 44.5q-84 0 -121 -44.5t-37 -146.5zM537 704l-133 -140h-75l121 140h87zM337 704
l-133 -140h-75l122 140h86z" />
    <glyph glyph-name="OE" unicode="&#x152;" horiz-adv-x="1022" 
d="M969 672v-64h-360v-235h288v-62h-288v-247h368v-64h-578q-185 0 -267.5 79t-82.5 257t82.5 257t267.5 79h570zM526 66v540h-121q-145 0 -208 -63t-63 -207t63 -207t208 -63h121z" />
    <glyph glyph-name="oe" unicode="&#x153;" horiz-adv-x="922" 
d="M42 243q0 134 57 194.5t183 60.5q158 0 198 -113q41 113 192 113q111 0 160.5 -58.5t49.5 -188.5q0 -6 -0.5 -16.5t-0.5 -14.5h-362q3 -91 46.5 -130t141.5 -39q78 0 156 24v-64q-72 -23 -162 -23q-174 0 -219 116q-36 -116 -200 -116q-126 0 -183 60t-57 195zM124 243
q0 -102 37 -146.5t121 -44.5q83 0 120 44.5t37 146.5t-37 146.5t-120 44.5q-84 0 -121 -44.5t-37 -146.5zM672 440q-78 0 -114.5 -39t-38.5 -126h285q-2 89 -32 127t-100 38z" />
    <glyph glyph-name="Racute" unicode="&#x154;" horiz-adv-x="643" 
d="M166 608v-269h183q84 0 120 31t36 103q0 73 -36.5 104t-119.5 31h-183zM338 275h-172v-275h-80v609q0 9 -10 13l-30 13l7 37h305q121 0 174.5 -46.5t53.5 -152.5q0 -89 -40 -134.5t-126 -54.5l180 -284h-91zM478 880l-134 -140h-74l121 140h87z" />
    <glyph glyph-name="racute" unicode="&#x155;" horiz-adv-x="365" 
d="M74 0v418q0 11 -8 14l-30 13l8 41h101q9 0 9 -10v-49q56 71 158 71q25 0 47 -4l-14 -70q-24 6 -45 6q-82 0 -146 -53v-377h-80zM357 704l-134 -140h-74l121 140h87z" />
    <glyph glyph-name="Rcommaaccent" unicode="&#x156;" horiz-adv-x="641" 
d="M164 608v-269h183q84 0 120 31t36 103q0 73 -36.5 104t-119.5 31h-183zM336 275h-172v-275h-80v609q0 9 -10 13l-30 13l7 37h305q121 0 174.5 -46.5t53.5 -152.5q0 -89 -40 -134.5t-126 -54.5l180 -284h-91zM374 -68l-65 -188h-56l50 188h71z" />
    <glyph glyph-name="rcommaaccent" unicode="&#x157;" horiz-adv-x="365" 
d="M74 0v418q0 11 -8 14l-30 13l8 41h101q9 0 9 -10v-49q56 71 158 71q25 0 47 -4l-14 -70q-24 6 -45 6q-82 0 -146 -53v-377h-80zM148 -68l-65 -188h-56l50 188h71z" />
    <glyph glyph-name="Rcaron" unicode="&#x158;" horiz-adv-x="643" 
d="M166 608v-269h183q84 0 120 31t36 103q0 73 -36.5 104t-119.5 31h-183zM338 275h-172v-275h-80v609q0 9 -10 13l-30 13l7 37h305q121 0 174.5 -46.5t53.5 -152.5q0 -89 -40 -134.5t-126 -54.5l180 -284h-91zM486 880l-123 -140h-80l-123 140h73l90 -95l90 95h73z" />
    <glyph glyph-name="rcaron" unicode="&#x159;" horiz-adv-x="365" 
d="M74 0v418q0 11 -8 14l-30 13l8 41h101q9 0 9 -10v-49q56 71 158 71q25 0 47 -4l-14 -70q-24 6 -45 6q-82 0 -146 -53v-377h-80zM365 704l-123 -140h-80l-123 140h73l90 -95l90 95h73z" />
    <glyph glyph-name="Sacute" unicode="&#x15a;" horiz-adv-x="588" 
d="M56 497q0 187 246 187q109 0 207 -31l-12 -64q-91 30 -189 30q-92 0 -132 -27t-40 -93q0 -35 22 -59t57.5 -36.5t78 -23t85 -23.5t78 -32.5t57.5 -56.5t22 -89q0 -97 -61 -144t-189 -47q-123 0 -226 33v67q106 -35 220 -35q93 0 134.5 29t41.5 95q0 38 -22 63t-57.5 38.5
t-78 24t-85 23.5t-78 31.5t-57.5 54t-22 85.5zM449 880l-134 -140h-74l121 140h87z" />
    <glyph glyph-name="sacute" unicode="&#x15b;" horiz-adv-x="465" 
d="M50 358q0 69 50.5 104.5t142.5 35.5q80 0 157 -22l-13 -62q-67 22 -140 22q-120 0 -120 -77q0 -32 30 -49t73.5 -25.5t86.5 -20t73 -43.5t30 -86q0 -72 -50.5 -109.5t-144.5 -37.5q-93 0 -170 24v65q80 -27 164 -27q124 0 124 84q0 36 -30 54.5t-73.5 26.5t-86.5 18.5
t-73 41t-30 83.5zM388 704l-134 -140h-74l121 140h87z" />
    <glyph glyph-name="Scircumflex" unicode="&#x15c;" horiz-adv-x="588" 
d="M56 497q0 187 246 187q109 0 207 -31l-12 -64q-91 30 -189 30q-92 0 -132 -27t-40 -93q0 -35 22 -59t57.5 -36.5t78 -23t85 -23.5t78 -32.5t57.5 -56.5t22 -89q0 -97 -61 -144t-189 -47q-123 0 -226 33v67q106 -35 220 -35q93 0 134.5 29t41.5 95q0 38 -22 63t-57.5 38.5
t-78 24t-85 23.5t-78 31.5t-57.5 54t-22 85.5zM138 740l123 140h80l123 -140h-73l-90 95l-90 -95h-73z" />
    <glyph glyph-name="scircumflex" unicode="&#x15d;" horiz-adv-x="465" 
d="M50 358q0 69 50.5 104.5t142.5 35.5q80 0 157 -22l-13 -62q-67 22 -140 22q-120 0 -120 -77q0 -32 30 -49t73.5 -25.5t86.5 -20t73 -43.5t30 -86q0 -72 -50.5 -109.5t-144.5 -37.5q-93 0 -170 24v65q80 -27 164 -27q124 0 124 84q0 36 -30 54.5t-73.5 26.5t-86.5 18.5
t-73 41t-30 83.5zM70 564l123 140h80l123 -140h-73l-90 95l-90 -95h-73z" />
    <glyph glyph-name="Scedilla" unicode="&#x15e;" horiz-adv-x="588" 
d="M261 -96v84q-110 3 -201 33v67q106 -35 220 -35q93 0 134.5 29t41.5 95q0 38 -22 63t-57.5 38.5t-78 24t-85 23.5t-78 31.5t-57.5 54t-22 85.5q0 187 246 187q109 0 207 -31l-12 -64q-91 30 -189 30q-92 0 -132 -27t-40 -93q0 -35 22 -59t57.5 -36.5t78 -23t85 -23.5
t78 -32.5t57.5 -56.5t22 -89q0 -91 -54 -138t-165 -52v-49q42 -3 61.5 -22.5t19.5 -59.5q0 -47 -29.5 -68t-94.5 -21q-40 0 -85 10v48q45 -12 75 -12q38 0 54 10t16 35q0 24 -14.5 34t-50.5 10h-8z" />
    <glyph glyph-name="scedilla" unicode="&#x15f;" horiz-adv-x="465" 
d="M200 -96v84q-79 3 -145 24v65q80 -27 164 -27q124 0 124 84q0 36 -30 54.5t-73.5 26.5t-86.5 18.5t-73 41t-30 83.5q0 69 50.5 104.5t142.5 35.5q80 0 157 -22l-13 -62q-67 22 -140 22q-120 0 -120 -77q0 -32 30 -49t73.5 -25.5t86.5 -20t73 -43.5t30 -86
q0 -66 -42.5 -103t-121.5 -43v-49q42 -3 61.5 -22.5t19.5 -59.5q0 -47 -29.5 -68t-94.5 -21q-40 0 -85 10v48q45 -12 75 -12q38 0 54 10t16 35q0 24 -14.5 34t-50.5 10h-8z" />
    <glyph glyph-name="Scaron" unicode="&#x160;" horiz-adv-x="588" 
d="M56 497q0 187 246 187q109 0 207 -31l-12 -64q-91 30 -189 30q-92 0 -132 -27t-40 -93q0 -35 22 -59t57.5 -36.5t78 -23t85 -23.5t78 -32.5t57.5 -56.5t22 -89q0 -97 -61 -144t-189 -47q-123 0 -226 33v67q106 -35 220 -35q93 0 134.5 29t41.5 95q0 38 -22 63t-57.5 38.5
t-78 24t-85 23.5t-78 31.5t-57.5 54t-22 85.5zM467 880l-123 -140h-80l-123 140h73l90 -95l90 95h73z" />
    <glyph glyph-name="scaron" unicode="&#x161;" horiz-adv-x="465" 
d="M50 358q0 69 50.5 104.5t142.5 35.5q80 0 157 -22l-13 -62q-67 22 -140 22q-120 0 -120 -77q0 -32 30 -49t73.5 -25.5t86.5 -20t73 -43.5t30 -86q0 -72 -50.5 -109.5t-144.5 -37.5q-93 0 -170 24v65q80 -27 164 -27q124 0 124 84q0 36 -30 54.5t-73.5 26.5t-86.5 18.5
t-73 41t-30 83.5zM396 704l-123 -140h-80l-123 140h73l90 -95l90 95h73z" />
    <glyph glyph-name="Tcommaaccent" unicode="&#x162;" horiz-adv-x="593" 
d="M255 0v606h-234v66h551v-66h-234v-606h-83zM350 -68l-65 -188h-56l50 188h71z" />
    <glyph glyph-name="tcommaaccent" unicode="&#x163;" horiz-adv-x="368" 
d="M81 146v265v6.5t-1 3.5t-3 3t-6 2l-57 16l7 44h60v145h80v-145h167v-63h-167v-274q0 -51 22.5 -74t73.5 -23q30 0 71 9v-64q-38 -9 -83 -9q-86 0 -125 37.5t-39 120.5zM257 -68l-65 -188h-56l50 188h71z" />
    <glyph glyph-name="Tcaron" unicode="&#x164;" horiz-adv-x="593" 
d="M255 0v606h-234v66h551v-66h-234v-606h-83zM460 880l-123 -140h-80l-123 140h73l90 -95l90 95h73z" />
    <glyph glyph-name="tcaron" unicode="&#x165;" horiz-adv-x="368" 
d="M81 146v265v6.5t-1 3.5t-3 3t-6 2l-57 16l7 44h60v145h80v-145h167v-63h-167v-274q0 -51 22.5 -74t73.5 -23q30 0 71 9v-64q-38 -9 -83 -9q-86 0 -125 37.5t-39 120.5zM345 742l-65 -188h-56l50 188h71z" />
    <glyph glyph-name="Tbar" unicode="&#x166;" horiz-adv-x="593" 
d="M255 0v287h-152v59h152v260h-234v66h551v-66h-234v-260h152v-59h-152v-287h-83z" />
    <glyph glyph-name="tbar" unicode="&#x167;" horiz-adv-x="398" 
d="M110 272v139v6.5t-1 3.5t-3 3t-6 2l-57 16l7 44h60v137l81 14v-151h166v-60h-166v-154h150v-53h-150v-74q0 -51 22 -73.5t72 -22.5q36 0 72 11v-62q-42 -10 -84 -10q-86 0 -124.5 37.5t-38.5 119.5v74h-92v53h92z" />
    <glyph glyph-name="Utilde" unicode="&#x168;" horiz-adv-x="732" 
d="M165 662v-399q0 -111 47 -159.5t155 -48.5q107 0 154.5 48.5t47.5 159.5v409h83v-415q0 -142 -67 -205.5t-218 -63.5t-218 63.5t-67 205.5v352q0 9 -10 13l-30 13l7 37h107q9 0 9 -10zM212 751v10q0 54 21 78t67 24q30 0 69 -25.5t54 -25.5q22 0 31.5 11.5t9.5 39.5v7h58
v-11q0 -54 -21 -78t-67 -24q-30 0 -69 25.5t-54 25.5q-22 0 -31.5 -11.5t-9.5 -39.5v-6h-58z" />
    <glyph glyph-name="utilde" unicode="&#x169;" horiz-adv-x="562" 
d="M152 476v-285q0 -74 31 -106.5t102 -32.5t102 32.5t31 106.5v295h80v-301q0 -104 -50 -150.5t-163 -46.5t-163 46.5t-50 150.5v235q0 6 -7 9l-31 15l7 42h102q9 0 9 -10zM130 575v10q0 54 21 78t67 24q30 0 69 -25.5t54 -25.5q22 0 31.5 11.5t9.5 39.5v7h58v-11
q0 -54 -21 -78t-67 -24q-30 0 -69 25.5t-54 25.5q-22 0 -31.5 -11.5t-9.5 -39.5v-6h-58z" />
    <glyph glyph-name="Umacron" unicode="&#x16a;" horiz-adv-x="732" 
d="M165 662v-399q0 -111 47 -159.5t155 -48.5q107 0 154.5 48.5t47.5 159.5v409h83v-415q0 -142 -67 -205.5t-218 -63.5t-218 63.5t-67 205.5v352q0 9 -10 13l-30 13l7 37h107q9 0 9 -10zM216 782v57h302v-57h-302z" />
    <glyph glyph-name="umacron" unicode="&#x16b;" horiz-adv-x="562" 
d="M152 476v-285q0 -74 31 -106.5t102 -32.5t102 32.5t31 106.5v295h80v-301q0 -104 -50 -150.5t-163 -46.5t-163 46.5t-50 150.5v235q0 6 -7 9l-31 15l7 42h102q9 0 9 -10zM134 606v57h302v-57h-302z" />
    <glyph glyph-name="Ubreve" unicode="&#x16c;" horiz-adv-x="732" 
d="M165 662v-399q0 -111 47 -159.5t155 -48.5q107 0 154.5 48.5t47.5 159.5v409h83v-415q0 -142 -67 -205.5t-218 -63.5t-218 63.5t-67 205.5v352q0 9 -10 13l-30 13l7 37h107q9 0 9 -10zM215 880h58q0 -50 22 -72t72 -22t72 22t22 72h58q0 -79 -36 -114t-116 -35t-116 35
t-36 114z" />
    <glyph glyph-name="ubreve" unicode="&#x16d;" horiz-adv-x="562" 
d="M152 476v-285q0 -74 31 -106.5t102 -32.5t102 32.5t31 106.5v295h80v-301q0 -104 -50 -150.5t-163 -46.5t-163 46.5t-50 150.5v235q0 6 -7 9l-31 15l7 42h102q9 0 9 -10zM133 704h58q0 -50 22 -72t72 -22t72 22t22 72h58q0 -79 -36 -114t-116 -35t-116 35t-36 114z" />
    <glyph glyph-name="Uring" unicode="&#x16e;" horiz-adv-x="732" 
d="M165 662v-399q0 -111 47 -159.5t155 -48.5q107 0 154.5 48.5t47.5 159.5v409h83v-415q0 -142 -67 -205.5t-218 -63.5t-218 63.5t-67 205.5v352q0 9 -10 13l-30 13l7 37h107q9 0 9 -10zM264 810q0 49 24.5 71.5t78.5 22.5t78.5 -22.5t24.5 -71.5t-24.5 -71.5t-78.5 -22.5
t-78.5 22.5t-24.5 71.5zM311 810q0 -30 13 -43t43 -13t43 12.5t13 43.5q0 30 -13 43.5t-43 13.5t-43 -13.5t-13 -43.5z" />
    <glyph glyph-name="uring" unicode="&#x16f;" horiz-adv-x="562" 
d="M152 476v-285q0 -74 31 -106.5t102 -32.5t102 32.5t31 106.5v295h80v-301q0 -104 -50 -150.5t-163 -46.5t-163 46.5t-50 150.5v235q0 6 -7 9l-31 15l7 42h102q9 0 9 -10zM182 634q0 49 24.5 71.5t78.5 22.5t78.5 -22.5t24.5 -71.5t-24.5 -71.5t-78.5 -22.5t-78.5 22.5
t-24.5 71.5zM229 634q0 -30 13 -43t43 -13t43 12.5t13 43.5q0 30 -13 43.5t-43 13.5t-43 -13.5t-13 -43.5z" />
    <glyph glyph-name="Uhungarumlaut" unicode="&#x170;" horiz-adv-x="732" 
d="M165 662v-399q0 -111 47 -159.5t155 -48.5q107 0 154.5 48.5t47.5 159.5v409h83v-415q0 -142 -67 -205.5t-218 -63.5t-218 63.5t-67 205.5v352q0 9 -10 13l-30 13l7 37h107q9 0 9 -10zM622 880l-133 -140h-75l121 140h87zM422 880l-133 -140h-75l122 140h86z" />
    <glyph glyph-name="uhungarumlaut" unicode="&#x171;" horiz-adv-x="562" 
d="M152 476v-285q0 -74 31 -106.5t102 -32.5t102 32.5t31 106.5v295h80v-301q0 -104 -50 -150.5t-163 -46.5t-163 46.5t-50 150.5v235q0 6 -7 9l-31 15l7 42h102q9 0 9 -10zM540 704l-133 -140h-75l121 140h87zM340 704l-133 -140h-75l122 140h86z" />
    <glyph glyph-name="Uogonek" unicode="&#x172;" horiz-adv-x="732" 
d="M82 257v352q0 9 -10 13l-30 13l7 37h107q9 0 9 -10v-399q0 -111 47 -159.5t155 -48.5q107 0 154.5 48.5t47.5 159.5v409h83v-415q0 -110 -35 -166.5t-123 -91.5q-66 -26 -103 -63t-37 -70q0 -25 14.5 -36t47.5 -11q19 0 37 4v-49q-19 -5 -54 -5q-57 0 -83 20.5t-26 64.5
q0 70 98 137q-19 -2 -53 -2q-133 6 -193 69.5t-60 198.5z" />
    <glyph glyph-name="uogonek" unicode="&#x173;" horiz-adv-x="562" 
d="M72 185v235q0 6 -7 9l-31 15l7 42h102q9 0 9 -10v-285q0 -74 31 -106.5t102 -32.5t102 32.5t31 106.5v295h80v-301q0 -76 -23.5 -116t-84.5 -72q-126 -65 -126 -131q0 -25 14.5 -36t47.5 -11q19 0 37 4v-49q-19 -5 -54 -5q-57 0 -83 20.5t-26 64.5q0 66 99 137
q-22 -3 -44 -1q-96 5 -139.5 51t-43.5 144z" />
    <glyph glyph-name="Wcircumflex" unicode="&#x174;" horiz-adv-x="974" 
d="M488 538h-1q-18 -117 -70 -289q-30 -101 -86 -249h-93q-59 149 -115.5 342.5t-82.5 329.5h82q18 -96 70 -289q47 -179 93 -298h2q38 98 92 298q57 211 70 275h77q12 -57 70 -275q54 -200 92 -298h2q46 119 93 298q52 193 70 289h81q-26 -137 -82.5 -330t-114.5 -342h-93
q-48 128 -86 249q-50 160 -70 289zM325 740l123 140h80l123 -140h-73l-90 95l-90 -95h-73z" />
    <glyph glyph-name="wcircumflex" unicode="&#x175;" horiz-adv-x="797" 
d="M694 486h79q-82 -290 -169 -486h-87q-27 59 -70 189q-29 86 -48 178h-1q-19 -92 -48 -178q-43 -130 -70 -189h-87q-87 196 -169 486h80q27 -96 65 -216q29 -92 66 -197h2q45 126 67 197q36 115 59 204h71q19 -73 60 -204q22 -71 67 -197h2q37 105 66 197q38 120 65 216z
M235 564l123 140h80l123 -140h-73l-90 95l-90 -95h-73z" />
    <glyph glyph-name="Ycircumflex" unicode="&#x176;" horiz-adv-x="599" 
d="M258 0v287l-246 385h92l197 -313l195 313h92l-247 -385v-287h-83zM137 740l123 140h80l123 -140h-73l-90 95l-90 -95h-73z" />
    <glyph glyph-name="ycircumflex" unicode="&#x177;" horiz-adv-x="500" 
d="M220 -3l-210 489h87l161 -389l139 389h85l-208 -554q-32 -86 -72 -119t-114 -33q-23 0 -33 2v62q9 -1 27 -1q47 0 72.5 21.5t46.5 79.5zM81 564l123 140h80l123 -140h-73l-90 95l-90 -95h-73z" />
    <glyph glyph-name="Ydieresis" unicode="&#x178;" horiz-adv-x="599" 
d="M258 0v287l-246 385h92l197 -313l195 313h92l-247 -385v-287h-83zM349 820q0 49 51 49q50 0 50 -49t-50 -49q-51 0 -51 49zM150 820q0 49 50 49q51 0 51 -49t-51 -49q-50 0 -50 49z" />
    <glyph glyph-name="Zacute" unicode="&#x179;" horiz-adv-x="620" 
d="M44 58l419 548h-411v66h515v-58l-418 -548h426v-66h-531v58zM465 880l-134 -140h-74l121 140h87z" />
    <glyph glyph-name="zacute" unicode="&#x17a;" horiz-adv-x="481" 
d="M46 0v55l284 368h-276v63h377v-56l-284 -367h292v-63h-393zM398 704l-134 -140h-74l121 140h87z" />
    <glyph glyph-name="Zdotaccent" unicode="&#x17b;" horiz-adv-x="620" 
d="M44 58l419 548h-411v66h515v-58l-418 -548h426v-66h-531v58zM259 810q0 26 12 37.5t39 11.5t39 -11.5t12 -37.5t-12 -37.5t-39 -11.5t-39 11.5t-12 37.5z" />
    <glyph glyph-name="zdotaccent" unicode="&#x17c;" horiz-adv-x="481" 
d="M46 0v55l284 368h-276v63h377v-56l-284 -367h292v-63h-393zM192 634q0 26 12 37.5t39 11.5t39 -11.5t12 -37.5t-12 -37.5t-39 -11.5t-39 11.5t-12 37.5z" />
    <glyph glyph-name="Zcaron" unicode="&#x17d;" horiz-adv-x="620" 
d="M44 58l419 548h-411v66h515v-58l-418 -548h426v-66h-531v58zM473 880l-123 -140h-80l-123 140h73l90 -95l90 95h73z" />
    <glyph glyph-name="zcaron" unicode="&#x17e;" horiz-adv-x="481" 
d="M46 0v55l284 368h-276v63h377v-56l-284 -367h292v-63h-393zM406 704l-123 -140h-80l-123 140h73l90 -95l90 95h73z" />
    <glyph glyph-name="florin" unicode="&#x192;" 
d="M441 422v-63h-126v-218q0 -79 -36.5 -116t-113.5 -37q-36 0 -73 8v64q32 -8 60 -8q83 0 83 89v218h-119v63h119v104q0 81 37.5 119.5t117.5 38.5q40 0 75 -8v-64q-32 8 -62 8q-46 0 -67 -23t-21 -71v-104h126z" />
    <glyph glyph-name="Acaron" unicode="&#x1cd;" horiz-adv-x="648" 
d="M544 0q-30 105 -54 179h-332q-34 -105 -54 -179h-84q42 163 118 362.5t139 309.5h94q63 -110 139 -309.5t118 -362.5h-84zM324 598q-64 -121 -145 -357h290q-78 228 -145 357zM488 880l-123 -140h-80l-123 140h73l90 -95l90 95h73z" />
    <glyph glyph-name="acaron" unicode="&#x1ce;" horiz-adv-x="530" 
d="M382 152v44q-56 22 -130 22q-69 0 -99 -20t-30 -66q0 -44 29 -65t92 -21q72 0 105 25.5t33 80.5zM397 8l-4 42q-44 -62 -164 -62q-95 0 -140 34.5t-45 108.5t47 108t149 34q80 0 142 -21v67q0 62 -34 89t-111 27q-75 0 -150 -24v64q77 23 159 23q112 0 162.5 -43.5
t50.5 -141.5v-245q0 -11 8 -14l30 -13l-8 -41h-83q-8 0 -9 8zM428 704l-123 -140h-80l-123 140h73l90 -95l90 95h73z" />
    <glyph glyph-name="Aringacute" unicode="&#x1fa;" horiz-adv-x="648" 
d="M544 0q-30 105 -54 179h-332q-34 -105 -54 -179h-84q42 163 118 362.5t139 309.5h94q63 -110 139 -309.5t118 -362.5h-84zM324 598q-64 -121 -145 -357h290q-78 228 -145 357zM479 1008l-108 -110q56 -16 56 -88q0 -49 -24.5 -71.5t-78.5 -22.5t-78.5 22.5t-24.5 71.5
q0 83 78 92l93 106h87zM268 810q0 -30 13 -43t43 -13t43 12.5t13 43.5q0 30 -13 43.5t-43 13.5t-43 -13.5t-13 -43.5z" />
    <glyph glyph-name="aringacute" unicode="&#x1fb;" horiz-adv-x="530" 
d="M382 152v44q-56 22 -130 22q-69 0 -99 -20t-30 -66q0 -44 29 -65t92 -21q72 0 105 25.5t33 80.5zM397 8l-4 42q-44 -62 -164 -62q-95 0 -140 34.5t-45 108.5t47 108t149 34q80 0 142 -21v67q0 62 -34 89t-111 27q-75 0 -150 -24v64q77 23 159 23q112 0 162.5 -43.5
t50.5 -141.5v-245q0 -11 8 -14l30 -13l-8 -41h-83q-8 0 -9 8zM414 832l-108 -110q56 -16 56 -88q0 -49 -24.5 -71.5t-78.5 -22.5t-78.5 22.5t-24.5 71.5q0 83 78 92l93 106h87zM203 634q0 -30 13 -43t43 -13t43 12.5t13 43.5q0 30 -13 43.5t-43 13.5t-43 -13.5t-13 -43.5z
" />
    <glyph glyph-name="AEacute" unicode="&#x1fc;" horiz-adv-x="966" 
d="M913 672v-66h-368v-233h296v-62h-296v-245h376v-66h-459v179h-287q-72 -120 -104 -179h-85q103 188 226.5 373.5t219.5 298.5h481zM462 600q-112 -141 -249 -359h249v359zM701 880l-134 -140h-74l121 140h87z" />
    <glyph glyph-name="aeacute" unicode="&#x1fd;" horiz-adv-x="860" 
d="M44 131q0 73 47 107t149 34q80 0 142 -21v68q0 62 -34 89t-111 27q-75 0 -150 -24v64q77 23 159 23q147 0 180 -91q45 91 184 91q111 0 160.5 -58.5t49.5 -188.5q0 -6 -0.5 -16.5t-0.5 -14.5h-362q2 -90 46 -129.5t142 -39.5q78 0 156 24v-64q-72 -23 -162 -23
q-166 0 -221 95q-37 -95 -186 -95q-97 0 -142.5 34.5t-45.5 108.5zM610 440q-78 0 -114 -38.5t-39 -126.5h285q-2 89 -32 127t-100 38zM123 132q0 -44 29.5 -65t93.5 -21q71 0 103.5 25.5t32.5 80.5v44q-56 22 -130 22q-69 0 -99 -20t-30 -66zM587 704l-134 -140h-74
l121 140h87z" />
    <glyph glyph-name="Oslashacute" unicode="&#x1fe;" horiz-adv-x="737" 
d="M49 336q0 184 75.5 266t244.5 82q124 0 196 -44l48 64h64l-72 -95q83 -82 83 -273q0 -184 -75 -266t-244 -82q-123 0 -197 43l-47 -63h-64l71 94q-83 82 -83 274zM128 336q0 -144 51 -211l342 457q-54 38 -152 38q-128 0 -184.5 -66.5t-56.5 -217.5zM609 336
q0 143 -51 210l-342 -457q53 -37 153 -37q128 0 184 66.5t56 217.5zM524 880l-134 -140h-74l121 140h87z" />
    <glyph glyph-name="oslashacute" unicode="&#x1ff;" horiz-adv-x="563" 
d="M42 243q0 134 57 194.5t183 60.5q89 0 141 -29l37 49h56l-57 -76q62 -61 62 -199q0 -135 -56.5 -195t-182.5 -60q-89 0 -142 28l-36 -48h-57l56 75q-61 60 -61 200zM115 243q0 -95 32 -142l236 315q-37 24 -101 24q-89 0 -128 -46t-39 -151zM448 243q0 95 -32 142
l-236 -316q36 -23 102 -23q88 0 127 46t39 151zM437 704l-134 -140h-74l121 140h87z" />
    <glyph glyph-name="Scommaaccent" unicode="&#x218;" horiz-adv-x="588" 
d="M56 497q0 187 246 187q109 0 207 -31l-12 -64q-91 30 -189 30q-92 0 -132 -27t-40 -93q0 -35 22 -59t57.5 -36.5t78 -23t85 -23.5t78 -32.5t57.5 -56.5t22 -89q0 -97 -61 -144t-189 -47q-123 0 -226 33v67q106 -35 220 -35q93 0 134.5 29t41.5 95q0 38 -22 63t-57.5 38.5
t-78 24t-85 23.5t-78 31.5t-57.5 54t-22 85.5zM337 -68l-65 -188h-56l50 188h71z" />
    <glyph glyph-name="scommaaccent" unicode="&#x219;" horiz-adv-x="465" 
d="M50 358q0 69 50.5 104.5t142.5 35.5q80 0 157 -22l-13 -62q-67 22 -140 22q-120 0 -120 -77q0 -32 30 -49t73.5 -25.5t86.5 -20t73 -43.5t30 -86q0 -72 -50.5 -109.5t-144.5 -37.5q-93 0 -170 24v65q80 -27 164 -27q124 0 124 84q0 36 -30 54.5t-73.5 26.5t-86.5 18.5
t-73 41t-30 83.5zM286 -68l-65 -188h-56l50 188h71z" />
    <glyph glyph-name="uni021A" unicode="&#x21a;" horiz-adv-x="593" 
d="M255 0v606h-234v66h551v-66h-234v-606h-83zM350 -68l-65 -188h-56l50 188h71z" />
    <glyph glyph-name="uni021B" unicode="&#x21b;" horiz-adv-x="368" 
d="M81 146v265v6.5t-1 3.5t-3 3t-6 2l-57 16l7 44h60v145h80v-145h167v-63h-167v-274q0 -51 22.5 -74t73.5 -23q30 0 71 9v-64q-38 -9 -83 -9q-86 0 -125 37.5t-39 120.5zM257 -68l-65 -188h-56l50 188h71z" />
    <glyph glyph-name="circumflex" unicode="&#x2c6;" horiz-adv-x="240" 
d="M-43 564l123 140h80l123 -140h-73l-90 95l-90 -95h-73z" />
    <glyph glyph-name="caron" unicode="&#x2c7;" horiz-adv-x="240" 
d="M283 704l-123 -140h-80l-123 140h73l90 -95l90 95h73z" />
    <glyph glyph-name="breve" unicode="&#x2d8;" horiz-adv-x="240" 
d="M-32 704h58q0 -50 22 -72t72 -22t72 22t22 72h58q0 -79 -36 -114t-116 -35t-116 35t-36 114z" />
    <glyph glyph-name="dotaccent" unicode="&#x2d9;" horiz-adv-x="240" 
d="M69 634q0 26 12 37.5t39 11.5t39 -11.5t12 -37.5t-12 -37.5t-39 -11.5t-39 11.5t-12 37.5z" />
    <glyph glyph-name="ring" unicode="&#x2da;" horiz-adv-x="240" 
d="M17 634q0 49 24.5 71.5t78.5 22.5t78.5 -22.5t24.5 -71.5t-24.5 -71.5t-78.5 -22.5t-78.5 22.5t-24.5 71.5zM64 634q0 -30 13 -43t43 -13t43 12.5t13 43.5q0 30 -13 43.5t-43 13.5t-43 -13.5t-13 -43.5z" />
    <glyph glyph-name="ogonek" unicode="&#x2db;" horiz-adv-x="240" 
d="M103 10l57 -10q-55 -50 -77 -79.5t-22 -54.5t14.5 -36t47.5 -11q19 0 37 4v-49q-19 -5 -55 -5q-56 0 -82 20.5t-26 64.5q0 35 25 71t81 85z" />
    <glyph glyph-name="tilde" unicode="&#x2dc;" horiz-adv-x="240" 
d="M-35 575v10q0 54 21 78t67 24q31 0 69 -25.5t54 -25.5q22 0 31.5 11.5t9.5 39.5v7h58v-11q0 -54 -21 -78t-67 -24q-31 0 -69.5 25.5t-53.5 25.5q-22 0 -31.5 -11.5t-9.5 -39.5v-6h-58z" />
    <glyph glyph-name="hungarumlaut" unicode="&#x2dd;" horiz-adv-x="240" 
d="M375 704l-133 -140h-75l121 140h87zM175 704l-133 -140h-75l122 140h86z" />
    <glyph glyph-name="Delta" unicode="&#x394;" horiz-adv-x="679" 
d="M39 0v54l254 618h94l253 -618v-54h-601zM340 596l-215 -530h430z" />
    <glyph glyph-name="Omega" unicode="&#x3a9;" horiz-adv-x="737" 
d="M26 0v66h181q-152 112 -152 308q0 163 74.5 236.5t239.5 73.5t239 -73.5t74 -236.5q0 -196 -152 -308h181v-66h-277v61q165 102 165 301q0 136 -54 195.5t-176 59.5t-176.5 -59.5t-54.5 -195.5q0 -198 165 -301v-61h-277z" />
    <glyph glyph-name="mu" unicode="&#x3bc;" horiz-adv-x="567" 
d="M71 -208v694h80v-298q0 -71 29.5 -102.5t96.5 -31.5q74 0 107 32.5t33 106.5v293h80v-486h-63l-6 61q-40 -72 -152 -72q-93 0 -125 54v-251h-80z" />
    <glyph glyph-name="pi" unicode="&#x3c0;" horiz-adv-x="599" 
d="M103 0v423h-69v63h531v-63h-68v-423h-77v423h-240v-423h-77z" />
    <glyph glyph-name="uni0400" unicode="&#x400;" horiz-adv-x="590" 
d="M53 672h484v-66h-368v-233h296v-62h-296v-245h376v-66h-459v609q0 9 -10 13l-30 13zM288 740l-134 140h87l121 -140h-74z" />
    <glyph glyph-name="uni0401" unicode="&#x401;" horiz-adv-x="588" 
d="M53 672h484v-66h-368v-233h296v-62h-296v-245h376v-66h-459v609q0 9 -10 13l-30 13zM356 810q0 49 51 49q50 0 50 -49t-50 -49q-51 0 -51 49zM157 810q0 49 50 49q51 0 51 -49t-51 -49q-50 0 -50 49z" />
    <glyph glyph-name="uni0402" unicode="&#x402;" horiz-adv-x="844" 
d="M255 0v607h-234v65h551v-65h-234v-240q105 25 210 25q135 0 194.5 -47.5t59.5 -154.5q0 -106 -56.5 -154t-181.5 -48q-58 0 -123 15v67q59 -15 112 -15q88 0 126.5 31.5t38.5 103.5q0 73 -41.5 104.5t-136.5 31.5q-97 0 -202 -23v-303h-83z" />
    <glyph glyph-name="uni0403" unicode="&#x403;" horiz-adv-x="515" 
d="M86 0v609q0 9 -10 13l-30 13l7 37h441v-65h-326v-607h-82zM448 880l-134 -140h-74l121 140h87z" />
    <glyph glyph-name="uni0404" unicode="&#x404;" horiz-adv-x="604" 
d="M487 373v-62h-354q4 -137 62.5 -198t184.5 -61q90 0 179 26v-65q-87 -25 -190 -25q-168 0 -244 82.5t-76 265.5t76 265.5t244 82.5q119 0 195 -26l-12 -65q-85 25 -172 25q-123 0 -181.5 -57t-65.5 -188h354z" />
    <glyph glyph-name="uni0405" unicode="&#x405;" horiz-adv-x="588" 
d="M56 497q0 187 246 187q109 0 207 -31l-12 -64q-91 30 -189 30q-92 0 -132 -27t-40 -93q0 -35 22 -59t57.5 -36.5t78 -23t85 -23.5t78 -32.5t57.5 -56.5t22 -89q0 -97 -61 -144t-189 -47q-123 0 -226 33v67q106 -35 220 -35q93 0 134.5 29t41.5 95q0 38 -22 63t-57.5 38.5
t-78 24t-85 23.5t-78 31.5t-57.5 54t-22 85.5z" />
    <glyph glyph-name="uni0406" unicode="&#x406;" horiz-adv-x="253" 
d="M169 662v-662h-82v609q0 9 -10 13l-30 13l7 37h106q9 0 9 -10z" />
    <glyph glyph-name="uni0407" unicode="&#x407;" horiz-adv-x="254" 
d="M169 662v-662h-82v609q0 9 -10 13l-30 13l7 37h106q9 0 9 -10zM177 810q0 49 51 49q50 0 50 -49t-50 -49q-51 0 -51 49zM-22 810q0 49 50 49q51 0 51 -49t-51 -49q-50 0 -50 49z" />
    <glyph glyph-name="uni0408" unicode="&#x408;" horiz-adv-x="439" 
d="M356 672v-478q0 -107 -50.5 -156.5t-160.5 -49.5q-64 0 -116 13v67q59 -13 104 -13q75 0 107.5 33t32.5 109v475h83z" />
    <glyph glyph-name="uni0409" unicode="&#x409;" horiz-adv-x="1112" 
d="M659 348v-283h170q85 0 123 33.5t38 108.5q0 74 -38 107.5t-123 33.5h-170zM166 672h493v-259h176q124 0 180 -49t56 -157q0 -109 -56 -158t-180 -49h-256v607h-299v-175q0 -238 -53.5 -339t-179.5 -101q-17 0 -26 1v67q9 -1 17 -1q89 0 125 85.5t36 293.5v171
q0 9 -10 13l-30 13z" />
    <glyph glyph-name="uni040A" unicode="&#x40a;" horiz-adv-x="1096" 
d="M51 672h113v-291h399v291h80v-291h192q115 0 167.5 -45.5t52.5 -144.5q0 -100 -52.5 -145.5t-167.5 -45.5h-272v316h-399v-316h-80v609q0 9 -10 13l-30 13zM643 316v-251h186q76 0 110.5 30t34.5 96t-34 95.5t-111 29.5h-186z" />
    <glyph glyph-name="uni040B" unicode="&#x40b;" horiz-adv-x="844" 
d="M255 0v607h-234v65h551v-65h-234v-240q102 25 194 25q129 0 189 -56.5t60 -174.5v-161h-83v155q0 88 -43.5 129.5t-139.5 41.5q-83 0 -177 -23v-303h-83z" />
    <glyph glyph-name="uni040C" unicode="&#x40c;" horiz-adv-x="607" 
d="M169 662v-319l314 329h97l-294 -311l302 -361h-97l-256 309l-66 -68v-241h-83v609q0 9 -10 13l-30 13l7 37h107q9 0 9 -10zM457 880l-134 -140h-74l121 140h87z" />
    <glyph glyph-name="uni040D" unicode="&#x40d;" horiz-adv-x="739" 
d="M163 662v-548l412 558h81v-672h-77v558l-412 -558h-81v609q0 9 -10 13l-30 13l7 37h101q9 0 9 -10zM400 740l-134 140h87l121 -140h-74z" />
    <glyph glyph-name="uni040E" unicode="&#x40e;" horiz-adv-x="615" 
d="M168 880h58q0 -50 22 -72t72 -22t72 22t22 72h58q0 -79 -36 -114t-116 -35t-116 35t-36 114zM604 672l-246 -521q-42 -89 -92 -126t-132 -37q-40 0 -76 9v68q34 -10 70 -10q52 0 87 25t61 80l13 26l-261 486h90l211 -410l188 410h87z" />
    <glyph glyph-name="uni040F" unicode="&#x40f;" horiz-adv-x="739" 
d="M168 662v-597h405v607h83v-672h-247v-160h-76v160h-247v609q0 9 -10 13l-30 13l7 37h106q9 0 9 -10z" />
    <glyph glyph-name="uni0410" unicode="&#x410;" horiz-adv-x="648" 
d="M544 0q-30 105 -54 179h-332q-34 -105 -54 -179h-84q42 163 118 362.5t139 309.5h94q63 -110 139 -309.5t118 -362.5h-84zM324 598q-64 -121 -145 -357h290q-78 228 -145 357z" />
    <glyph glyph-name="uni0411" unicode="&#x411;" horiz-adv-x="643" 
d="M53 672h493v-64h-380v-223h208q116 0 168 -45t52 -147t-52 -147.5t-168 -45.5h-288v609q0 9 -10 13l-30 13zM166 323v-261h200q77 0 112 31t35 100t-35 99.5t-112 30.5h-200z" />
    <glyph glyph-name="uni0412" unicode="&#x412;" horiz-adv-x="643" 
d="M86 0v609q0 9 -10 13l-30 13l7 37h316q106 0 153.5 -42.5t47.5 -134.5q0 -115 -89 -148q113 -28 113 -164q0 -96 -49.5 -139.5t-159.5 -43.5h-299zM166 311v-248h205q75 0 108.5 29.5t33.5 94.5t-33.5 94.5t-108.5 29.5h-205zM166 609v-236h189q72 0 103.5 28t31.5 90
t-31.5 90t-103.5 28h-189z" />
    <glyph glyph-name="uni0413" unicode="&#x413;" horiz-adv-x="515" 
d="M86 0v609q0 9 -10 13l-30 13l7 37h441v-65h-326v-607h-82z" />
    <glyph glyph-name="uni0414" unicode="&#x414;" horiz-adv-x="785" 
d="M165 672h499v-607h92v-225h-76v160h-583v-160h-76v225h63q64 38 89 120.5t25 252.5v171q0 9 -10 13l-30 13zM278 607v-175q0 -157 -19.5 -238.5t-68.5 -128.5h394v542h-306z" />
    <glyph glyph-name="uni0415" unicode="&#x415;" horiz-adv-x="590" 
d="M53 672h484v-66h-368v-233h296v-62h-296v-245h376v-66h-459v609q0 9 -10 13l-30 13z" />
    <glyph glyph-name="uni0416" unicode="&#x416;" horiz-adv-x="921" 
d="M422 0v241l-62 68l-248 -309h-92l289 361l-281 311h92l302 -335v335h77v-335l302 335h92l-281 -311l289 -361h-92l-248 309l-62 -68v-241h-77z" />
    <glyph glyph-name="uni0417" unicode="&#x417;" horiz-adv-x="589" 
d="M147 311v62h115q91 0 131 29t40 95t-41 94t-137 28q-90 0 -195 -35l-12 65q111 35 216 35q133 0 192.5 -43t59.5 -138q0 -66 -25 -103.5t-83 -53.5q70 -16 101 -56.5t31 -114.5q0 -98 -65.5 -142.5t-210.5 -44.5q-111 0 -218 35v66q113 -37 209 -37q107 0 154 30t47 99
q0 70 -45 100t-149 30h-115z" />
    <glyph glyph-name="uni0418" unicode="&#x418;" horiz-adv-x="739" 
d="M163 662v-548l412 558h81v-672h-77v558l-412 -558h-81v609q0 9 -10 13l-30 13l7 37h101q9 0 9 -10z" />
    <glyph glyph-name="uni0419" unicode="&#x419;" horiz-adv-x="739" 
d="M219 880h58q0 -50 22 -72t72 -22t72 22t22 72h58q0 -79 -36 -114t-116 -35t-116 35t-36 114zM163 662v-548l412 558h81v-672h-77v558l-412 -558h-81v609q0 9 -10 13l-30 13l7 37h101q9 0 9 -10z" />
    <glyph glyph-name="uni041A" unicode="&#x41a;" horiz-adv-x="607" 
d="M169 662v-319l314 329h97l-294 -311l302 -361h-97l-256 309l-66 -68v-241h-83v609q0 9 -10 13l-30 13l7 37h107q9 0 9 -10z" />
    <glyph glyph-name="uni041B" unicode="&#x41b;" horiz-adv-x="753" 
d="M166 672h504v-672h-83v607h-307v-175q0 -238 -53.5 -339t-179.5 -101q-17 0 -26 1v67q9 -1 17 -1q89 0 125 85.5t36 293.5v171q0 9 -10 13l-30 13z" />
    <glyph glyph-name="uni041C" unicode="&#x41c;" horiz-adv-x="819" 
d="M180 648l231 -368l245 392h80v-672h-77v548l-219 -347h-25q-25 0 -32 3.5t-20 23.5l-200 317v-545h-77v609q0 9 -10 13l-30 13l7 37h92q14 0 19.5 -4t15.5 -20z" />
    <glyph glyph-name="uni041D" unicode="&#x41d;" horiz-adv-x="739" 
d="M86 0v609q0 9 -10 13l-30 13l7 37h106q9 0 9 -10v-287h405v297h83v-672h-83v309h-405v-309h-82z" />
    <glyph glyph-name="uni041E" unicode="&#x41e;" horiz-adv-x="737" 
d="M49 336q0 184 75.5 266t244.5 82t244 -82t75 -266t-75 -266t-244 -82t-244.5 82t-75.5 266zM134 336q0 -150 55 -215.5t180 -65.5t180 65.5t55 215.5t-55 215.5t-180 65.5t-180 -65.5t-55 -215.5z" />
    <glyph glyph-name="uni041F" unicode="&#x41f;" horiz-adv-x="739" 
d="M86 0v609q0 9 -10 13l-30 13l7 37h603v-672h-83v607h-405v-607h-82z" />
    <glyph glyph-name="uni0420" unicode="&#x420;" horiz-adv-x="627" 
d="M166 606v-282h178q86 0 123.5 33t37.5 108t-37.5 108t-123.5 33h-178zM53 672h297q124 0 180 -49t56 -158q0 -108 -56 -157t-180 -49h-184v-259h-80v609q0 9 -10 13l-30 13z" />
    <glyph glyph-name="uni0421" unicode="&#x421;" horiz-adv-x="604" 
d="M49 336q0 183 76 265.5t244 82.5q119 0 195 -26l-12 -65q-80 24 -172 24q-131 0 -188.5 -65.5t-57.5 -215.5t57.5 -215.5t188.5 -65.5q90 0 179 26v-68q-87 -25 -190 -25q-168 0 -244 82.5t-76 265.5z" />
    <glyph glyph-name="uni0422" unicode="&#x422;" horiz-adv-x="593" 
d="M255 0v606h-234v66h551v-66h-234v-606h-83z" />
    <glyph glyph-name="uni0423" unicode="&#x423;" horiz-adv-x="615" 
d="M604 672l-246 -521q-42 -89 -92 -126t-132 -37q-40 0 -76 9v68q34 -10 70 -10q52 0 87 25t61 80l13 26l-261 486h90l211 -410l188 410h87z" />
    <glyph glyph-name="uni0424" unicode="&#x424;" horiz-adv-x="785" 
d="M354 -48v99q-160 5 -236.5 76.5t-76.5 214.5t76.5 214.5t236.5 76.5v87h77v-87q160 -5 236.5 -76.5t76.5 -214.5t-76.5 -214.5t-236.5 -76.5v-99h-77zM120 342q0 -112 57 -166.5t177 -59.5v452q-120 -5 -177 -59.5t-57 -166.5zM666 342q0 112 -57.5 166.5t-177.5 59.5
v-452q120 5 177.5 59.5t57.5 166.5z" />
    <glyph glyph-name="uni0425" unicode="&#x425;" horiz-adv-x="647" 
d="M29 0l243 342l-234 330h91l195 -275l194 275h93l-235 -330l242 -342h-93l-201 287l-202 -287h-93z" />
    <glyph glyph-name="uni0426" unicode="&#x426;" horiz-adv-x="777" 
d="M86 0v609q0 9 -10 13l-30 13l7 37h106q9 0 9 -10v-597h405v607h83v-607h92v-225h-76v160h-586z" />
    <glyph glyph-name="uni0427" unicode="&#x427;" horiz-adv-x="675" 
d="M65 495v114q0 9 -10 13l-30 13l7 37h106q9 0 9 -10v-161q0 -90 43.5 -130.5t140.5 -40.5q78 0 178 23v319h83v-672h-83v289q-105 -25 -196 -25q-130 0 -189 55.5t-59 175.5z" />
    <glyph glyph-name="uni0428" unicode="&#x428;" horiz-adv-x="1043" 
d="M86 0v609q0 9 -10 13l-30 13l7 37h106q9 0 9 -10v-597h313v607h83v-607h313v607h83v-672h-874z" />
    <glyph glyph-name="uni0429" unicode="&#x429;" horiz-adv-x="1081" 
d="M86 0v609q0 9 -10 13l-30 13l7 37h106q9 0 9 -10v-597h313v607h83v-607h313v607h83v-607h92v-225h-76v160h-890z" />
    <glyph glyph-name="uni042A" unicode="&#x42a;" horiz-adv-x="785" 
d="M252 0v607h-231v65h311v-259h176q124 0 180 -49t56 -157q0 -109 -56 -158t-180 -49h-256zM332 348v-283h170q85 0 123 33.5t38 108.5t-37.5 108t-123.5 33h-170z" />
    <glyph glyph-name="uni042B" unicode="&#x42b;" horiz-adv-x="876" 
d="M793 662v-662h-82v609q0 9 -10 13l-30 13l7 37h106q9 0 9 -10zM166 662v-249h184q124 0 180 -49t56 -157q0 -109 -56 -158t-180 -49h-264v609q0 9 -10 13l-30 13l7 37h104q9 0 9 -10zM166 348v-283h178q85 0 123 33.5t38 108.5t-37.5 108t-123.5 33h-178z" />
    <glyph glyph-name="uni042C" unicode="&#x42c;" horiz-adv-x="627" 
d="M166 662v-249h184q124 0 180 -49t56 -157q0 -109 -56 -158t-180 -49h-264v609q0 9 -10 13l-30 13l7 37h104q9 0 9 -10zM166 348v-283h178q85 0 123 33.5t38 108.5t-37.5 108t-123.5 33h-178z" />
    <glyph glyph-name="uni042D" unicode="&#x42d;" horiz-adv-x="605" 
d="M118 311v62h354q-7 131 -65.5 188.5t-181.5 57.5q-84 0 -171 -25l-12 65q83 25 195 25q168 0 243.5 -82t75.5 -266t-75.5 -266t-243.5 -82q-103 0 -191 25v65q90 -26 179 -26q126 0 185 60.5t63 198.5h-355z" />
    <glyph glyph-name="uni042E" unicode="&#x42e;" horiz-adv-x="970" 
d="M166 662v-287h134q7 163 81 236t229 73q165 0 238 -82t73 -266t-73 -266t-238 -82q-158 0 -232 76t-78 245h-134v-309h-80v609q0 9 -10 13l-30 13l7 37h104q9 0 9 -10zM380 336q0 -150 54 -215.5t176 -65.5t176 65.5t54 215.5t-54 215.5t-176 65.5t-176 -65.5t-54 -215.5
z" />
    <glyph glyph-name="uni042F" unicode="&#x42f;" horiz-adv-x="641" 
d="M558 672v-672h-80v275h-172l-171 -275h-91l179 284q-86 9 -126 55t-40 134q0 106 53.5 152.5t175.5 46.5h272zM478 339v269h-183q-84 0 -120 -31t-36 -104t36 -103.5t120 -30.5h183z" />
    <glyph glyph-name="uni0430" unicode="&#x430;" horiz-adv-x="530" 
d="M382 152v44q-56 22 -130 22q-69 0 -99 -20t-30 -66q0 -44 29 -65t92 -21q72 0 105 25.5t33 80.5zM397 8l-4 42q-44 -62 -164 -62q-95 0 -140 34.5t-45 108.5t47 108t149 34q80 0 142 -21v67q0 62 -34 89t-111 27q-75 0 -150 -24v64q77 23 159 23q112 0 162.5 -43.5
t50.5 -141.5v-245q0 -11 8 -14l30 -13l-8 -41h-83q-8 0 -9 8z" />
    <glyph glyph-name="uni0431" unicode="&#x431;" horiz-adv-x="566" 
d="M52 273q0 216 61.5 314t207.5 114q118 13 165 22l-13 -71q-19 -5 -143 -19q-94 -11 -135.5 -59t-54.5 -147q70 65 174 65q107 0 158.5 -61.5t51.5 -190.5q0 -131 -55.5 -191.5t-176.5 -60.5q-126 0 -183 67t-57 218zM134 266q0 -115 34 -164.5t124 -49.5q79 0 114.5 44
t35.5 144t-34.5 144t-112.5 44q-87 0 -157 -58q-4 -33 -4 -104z" />
    <glyph glyph-name="uni0432" unicode="&#x432;" horiz-adv-x="524" 
d="M74 0v418q0 11 -8 14l-30 13l8 41h270q78 0 113 -31.5t35 -100.5q0 -80 -63 -102q79 -22 79 -117q0 -71 -37 -103t-119 -32h-248zM149 219v-162h156q51 0 73 19t22 62t-22 62t-73 19h-156zM149 429v-154h148q47 0 67.5 18t20.5 59t-20.5 59t-67.5 18h-148z" />
    <glyph glyph-name="uni0433" unicode="&#x433;" horiz-adv-x="418" 
d="M74 0v418q0 11 -8 14l-30 13l8 41h353v-63h-244v-423h-79z" />
    <glyph glyph-name="uni0434" unicode="&#x434;" horiz-adv-x="615" 
d="M21 -144v206h47q43 25 60 82t17 172v102q0 11 -8 14l-30 13l8 41h392v-424h79v-206h-74v144h-417v-144h-74zM221 423v-113q0 -104 -12 -160t-43 -88h264v361h-209z" />
    <glyph glyph-name="uni0435" unicode="&#x435;" horiz-adv-x="523" 
d="M42 243q0 134 54.5 194.5t176.5 60.5q111 0 160.5 -58.5t49.5 -188.5q0 -22 -1 -31h-361q3 -91 46.5 -130t141.5 -39q77 0 155 24v-64q-70 -23 -161 -23q-137 0 -199 60t-62 195zM273 440q-78 0 -114 -39t-38 -126h285q-1 88 -32 126.5t-101 38.5z" />
    <glyph glyph-name="uni0436" unicode="&#x436;" horiz-adv-x="740" 
d="M333 0v167l-43 47l-178 -214h-91l218 262l-213 224h91l216 -229v229h73v-229l216 229h92l-213 -224l218 -262h-91l-179 214l-43 -47v-167h-73z" />
    <glyph glyph-name="uni0437" unicode="&#x437;" horiz-adv-x="465" 
d="M111 220v54h91q64 0 93.5 19t29.5 63t-29.5 63t-95.5 19q-64 0 -145 -26l-12 61q82 25 166 25q103 0 149.5 -32t46.5 -103q0 -47 -18.5 -74t-60.5 -38q49 -12 72 -41.5t23 -82.5q0 -73 -50.5 -106t-161.5 -33q-94 0 -170 25v62q79 -27 161 -27q74 0 107 20t33 66
q0 48 -31.5 67t-106.5 19h-91z" />
    <glyph glyph-name="uni0438" unicode="&#x438;" horiz-adv-x="570" 
d="M74 0v418q0 11 -8 14l-30 13l8 41h95q9 0 9 -10v-368l273 378h79v-486h-74v378l-274 -378h-78z" />
    <glyph glyph-name="uni0439" unicode="&#x439;" horiz-adv-x="570" 
d="M135 704h58q0 -50 22 -72t72 -22t72 22t22 72h58q0 -79 -36 -114t-116 -35t-116 35t-36 114zM74 0v418q0 11 -8 14l-30 13l8 41h95q9 0 9 -10v-368l273 378h79v-486h-74v378l-274 -378h-78z" />
    <glyph glyph-name="uni043A" unicode="&#x43a;" horiz-adv-x="493" 
d="M74 0v418q0 11 -8 14l-30 13l8 41h98q9 0 9 -10v-218l221 228h93l-216 -224l224 -262h-95l-180 211l-47 -47v-164h-77z" />
    <glyph glyph-name="uni043B" unicode="&#x43b;" horiz-adv-x="583" 
d="M513 486v-486h-80v423h-210v-113q0 -170 -42.5 -244t-140.5 -74q-13 0 -19 1v65q7 -1 15 -1q59 0 84.5 60.5t25.5 198.5v102q0 11 -8 14l-30 13l8 41h397z" />
    <glyph glyph-name="uni043C" unicode="&#x43c;" horiz-adv-x="634" 
d="M74 0v418q0 11 -8 14l-30 13l8 41h89q13 0 18.5 -3.5t16.5 -21.5l151 -235l166 260h79v-486h-74v372l-147 -224h-17q-23 0 -29.5 3t-17.5 20l-131 201v-372h-74z" />
    <glyph glyph-name="uni043D" unicode="&#x43d;" horiz-adv-x="570" 
d="M74 0v418q0 11 -8 14l-30 13l8 41h100q9 0 9 -10v-198h267v208h80v-486h-80v216h-267v-216h-79z" />
    <glyph glyph-name="uni043E" unicode="&#x43e;" horiz-adv-x="563" 
d="M42 243q0 134 57 194.5t183 60.5t182.5 -60.5t56.5 -194.5q0 -135 -56.5 -195t-182.5 -60t-183 60t-57 195zM124 243q0 -102 37 -146.5t121 -44.5q83 0 120 44.5t37 146.5t-37 146.5t-120 44.5q-84 0 -121 -44.5t-37 -146.5z" />
    <glyph glyph-name="uni043F" unicode="&#x43f;" horiz-adv-x="570" 
d="M74 0v418q0 11 -8 14l-30 13l8 41h456v-486h-80v423h-267v-423h-79z" />
    <glyph glyph-name="uni0440" unicode="&#x440;" horiz-adv-x="568" 
d="M74 -208v626q0 11 -8 14l-30 13l8 41h101q9 0 9 -10v-40q46 62 161 62q111 0 161 -60t50 -195t-50 -195t-161 -60q-99 0 -161 53v-249h-80zM296 434q-76 0 -109 -32.5t-33 -106.5v-197q59 -46 142 -46q79 0 113.5 44.5t34.5 146.5t-34.5 146.5t-113.5 44.5z" />
    <glyph glyph-name="uni0441" unicode="&#x441;" horiz-adv-x="463" 
d="M42 243q0 134 57 194.5t183 60.5q90 0 147 -21l-13 -62q-53 19 -123 19q-90 0 -129.5 -44.5t-39.5 -146.5t39.5 -146.5t129.5 -44.5q68 0 131 20v-65q-61 -19 -142 -19q-126 0 -183 60t-57 195z" />
    <glyph glyph-name="uni0442" unicode="&#x442;" horiz-adv-x="455" 
d="M188 0v423h-167v63h413v-63h-166v-423h-80z" />
    <glyph glyph-name="uni0443" unicode="&#x443;" horiz-adv-x="500" 
d="M220 -3l-210 489h87l161 -389l139 389h85l-208 -554q-32 -86 -72 -119t-114 -33q-23 0 -33 2v62q9 -1 27 -1q47 0 72.5 21.5t46.5 79.5z" />
    <glyph glyph-name="uni0444" unicode="&#x444;" horiz-adv-x="695" 
d="M112 243q0 -97 47 -141.5t153 -48.5v379q-106 -3 -153 -47.5t-47 -141.5zM583 243q0 97 -47.5 141.5t-151.5 47.5v-379q105 4 152 48.5t47 141.5zM384 694v-198q144 -5 209.5 -66t65.5 -187q0 -127 -65.5 -188t-209.5 -66v-129q0 -11 8 -14l30 -13l-8 -41h-93q-9 0 -9 10
v187q-144 5 -210 66t-66 188q0 126 66 187t210 66v140q0 11 -8 14l-30 13l8 41h93q9 0 9 -10z" />
    <glyph glyph-name="uni0445" unicode="&#x445;" horiz-adv-x="500" 
d="M27 0l174 247l-168 239h86l131 -189l132 189h85l-168 -239l174 -247h-88l-135 196l-138 -196h-85z" />
    <glyph glyph-name="uni0446" unicode="&#x446;" horiz-adv-x="605" 
d="M71 0v418q0 11 -8 14l-30 13l8 41h100q9 0 9 -10v-414h267v424h80v-424h79v-206h-74v144h-431z" />
    <glyph glyph-name="uni0447" unicode="&#x447;" horiz-adv-x="535" 
d="M129 476v-113q0 -62 30.5 -88.5t100.5 -26.5q60 0 125 18v220h80v-486h-80v205q-73 -21 -140 -21q-103 0 -149.5 41t-46.5 132v61q0 11 -8 14l-30 13l8 41h101q9 0 9 -10z" />
    <glyph glyph-name="uni0448" unicode="&#x448;" horiz-adv-x="842" 
d="M74 0v418q0 11 -8 14l-30 13l8 41h100q9 0 9 -10v-414h230v424h80v-424h229v424h80v-486h-698z" />
    <glyph glyph-name="uni0449" unicode="&#x449;" horiz-adv-x="880" 
d="M74 0v418q0 11 -8 14l-30 13l8 41h100q9 0 9 -10v-414h230v424h80v-424h229v424h80v-424h79v-206h-74v144h-703z" />
    <glyph glyph-name="uni044A" unicode="&#x44a;" horiz-adv-x="609" 
d="M182 0v423h-161v63h238v-182h141q91 0 132 -36t41 -116t-41 -116t-132 -36h-218zM259 244v-184h129q57 0 82 21t25 71q0 49 -25 70.5t-82 21.5h-129z" />
    <glyph glyph-name="uni044B" unicode="&#x44b;" horiz-adv-x="727" 
d="M656 476v-476h-79v418q0 11 -8 14l-30 13l8 41h100q9 0 9 -10zM74 0v418q0 11 -8 14l-30 13l8 41h98q9 0 9 -10v-172h145q92 0 133 -36t41 -116t-41 -116t-133 -36h-222zM151 244v-184h134q57 0 81.5 21.5t24.5 70.5t-24.5 70.5t-81.5 21.5h-134z" />
    <glyph glyph-name="uni044C" unicode="&#x44c;" horiz-adv-x="506" 
d="M74 0v418q0 11 -8 14l-30 13l8 41h98q9 0 9 -10v-172h145q92 0 133 -36t41 -116t-41 -116t-133 -36h-222zM151 244v-184h134q57 0 81.5 21.5t24.5 70.5t-24.5 70.5t-81.5 21.5h-134z" />
    <glyph glyph-name="uni044D" unicode="&#x44d;" horiz-adv-x="463" 
d="M87 219v56h251q-6 86 -45.5 124t-122.5 38q-55 0 -118 -20l-13 62q61 19 143 19q125 0 182 -61.5t57 -193.5q0 -129 -57.5 -192t-181.5 -63q-82 0 -143 19v62q63 -20 131 -20q85 0 125 40t44 130h-252z" />
    <glyph glyph-name="uni044E" unicode="&#x44e;" horiz-adv-x="773" 
d="M74 0v418q0 11 -8 14l-30 13l8 41h98q9 0 9 -10v-198h119q7 115 62 167.5t168 52.5q122 0 176.5 -60.5t54.5 -194.5q0 -135 -54.5 -195t-176.5 -60q-115 0 -170 54t-60 174h-119v-216h-77zM347 243q0 -102 35.5 -146.5t117.5 -44.5q81 0 116.5 44.5t35.5 146.5
t-35.5 146.5t-116.5 44.5q-82 0 -117.5 -44.5t-35.5 -146.5z" />
    <glyph glyph-name="uni044F" unicode="&#x44f;" horiz-adv-x="519" 
d="M449 486v-486h-76v190h-134l-115 -190h-85l125 199q-112 16 -112 139q0 77 41 112.5t132 35.5h224zM373 249v177h-140q-56 0 -80 -20.5t-24 -67.5t24.5 -68t79.5 -21h140z" />
    <glyph glyph-name="uni0450" unicode="&#x450;" horiz-adv-x="529" 
d="M42 243q0 134 54.5 194.5t176.5 60.5q111 0 160.5 -58.5t49.5 -188.5q0 -22 -1 -31h-361q3 -91 46.5 -130t141.5 -39q77 0 155 24v-64q-70 -23 -161 -23q-137 0 -199 60t-62 195zM273 440q-78 0 -114 -39t-38 -126h285q-1 88 -32 126.5t-101 38.5zM250 564l-134 140h87
l121 -140h-74z" />
    <glyph glyph-name="uni0451" unicode="&#x451;" horiz-adv-x="529" 
d="M42 243q0 134 54.5 194.5t176.5 60.5q111 0 160.5 -58.5t49.5 -188.5q0 -22 -1 -31h-361q3 -91 46.5 -130t141.5 -39q77 0 155 24v-64q-70 -23 -161 -23q-137 0 -199 60t-62 195zM273 440q-78 0 -114 -39t-38 -126h285q-1 88 -32 126.5t-101 38.5zM322 634q0 49 51 49
q50 0 50 -49t-50 -49q-51 0 -51 49zM123 634q0 49 50 49q51 0 51 -49t-51 -49q-50 0 -50 49z" />
    <glyph glyph-name="uni0452" unicode="&#x452;" horiz-adv-x="562" 
d="M497 305v-367q0 -83 -38.5 -120.5t-124.5 -37.5q-45 0 -84 9v64q41 -9 72 -9q50 0 72.5 22.5t22.5 74.5v362q0 70 -28 99.5t-94 29.5q-43 0 -84.5 -11.5t-59.5 -24.5v-396h-80v559h-66v54h66v23q0 11 -8 14l-30 13l8 41h101q9 0 9 -10v-81h177v-54h-177v-117
q59 56 158 56q100 0 144 -45t44 -148z" />
    <glyph glyph-name="uni0453" unicode="&#x453;" horiz-adv-x="418" 
d="M74 0v418q0 11 -8 14l-30 13l8 41h353v-63h-244v-423h-79zM385 704l-134 -140h-74l121 140h87z" />
    <glyph glyph-name="uni0454" unicode="&#x454;" horiz-adv-x="463" 
d="M376 275v-56h-252q4 -90 44 -130t125 -40q68 0 131 20v-62q-61 -19 -142 -19q-125 0 -182.5 62t-57.5 193q0 130 57.5 192.5t182.5 62.5q88 0 147 -21l-13 -62q-56 20 -123 20q-83 0 -122.5 -37.5t-45.5 -122.5h251z" />
    <glyph glyph-name="uni0455" unicode="&#x455;" horiz-adv-x="465" 
d="M50 358q0 69 50.5 104.5t142.5 35.5q80 0 157 -22l-13 -62q-67 22 -140 22q-120 0 -120 -77q0 -32 30 -49t73.5 -25.5t86.5 -20t73 -43.5t30 -86q0 -72 -50.5 -109.5t-144.5 -37.5q-93 0 -170 24v65q80 -27 164 -27q124 0 124 84q0 36 -30 54.5t-73.5 26.5t-86.5 18.5
t-73 41t-30 83.5z" />
    <glyph glyph-name="uni0456" unicode="&#x456;" horiz-adv-x="230" 
d="M41 445l8 41h101q9 0 9 -10v-476h-80v418q0 11 -8 14zM65 634q0 27 12 39t40 12q52 0 52 -51q0 -50 -52 -50q-28 0 -40 12t-12 38z" />
    <glyph glyph-name="uni0457" unicode="&#x457;" horiz-adv-x="230" 
d="M41 445l8 41h101q9 0 9 -10v-476h-80v418q0 11 -8 14zM158 634q0 49 51 49q50 0 50 -49t-50 -49q-51 0 -51 49zM-41 634q0 49 50 49q51 0 51 -49t-51 -49q-50 0 -50 49z" />
    <glyph glyph-name="uni0458" unicode="&#x458;" horiz-adv-x="230" 
d="M159 476v-530q0 -163 -152 -163q-32 0 -45 2v62q12 -1 30 -1q50 0 68.5 23.5t18.5 76.5v472q0 11 -8 14l-30 13l8 41h101q9 0 9 -10zM65 634q0 27 12 39t40 12q52 0 52 -51q0 -50 -52 -50q-28 0 -40 12t-12 38z" />
    <glyph glyph-name="uni0459" unicode="&#x459;" horiz-adv-x="849" 
d="M502 244v-184h126q57 0 82 21.5t25 70.5t-25 70.5t-82 21.5h-126zM116 486h386v-182h138q91 0 132 -36t41 -116t-41 -116t-132 -36h-215v423h-202v-113q0 -170 -42.5 -244t-140.5 -74q-13 0 -19 1v65q7 -1 15 -1q59 0 84.5 60.5t25.5 198.5v102q0 11 -8 14l-30 13z" />
    <glyph glyph-name="uni045A" unicode="&#x45a;" horiz-adv-x="836" 
d="M489 228v-171h133q53 0 76.5 20t23.5 66t-23.5 65.5t-76.5 19.5h-133zM151 476v-191h261v201h77v-201h149q85 0 123.5 -34t38.5 -108q0 -75 -38.5 -109t-123.5 -34h-226v223h-261v-223h-77v418q0 11 -8 14l-30 13l8 41h98q9 0 9 -10z" />
    <glyph glyph-name="uni045B" unicode="&#x45b;" horiz-adv-x="567" 
d="M151 559v-117q59 56 158 56q100 0 144 -45t44 -148v-237q0 -11 8 -14l30 -13l-8 -41h-101q-9 0 -9 10v293q0 70 -28 99.5t-94 29.5q-43 0 -84.5 -11.5t-59.5 -24.5v-396h-80v559h-66v54h66v23q0 11 -8 14l-30 13l8 41h101q9 0 9 -10v-81h177v-54h-177z" />
    <glyph glyph-name="uni045C" unicode="&#x45c;" horiz-adv-x="483" 
d="M74 0v418q0 11 -8 14l-30 13l8 41h98q9 0 9 -10v-218l221 228h93l-216 -224l224 -262h-95l-180 211l-47 -47v-164h-77zM397 704l-134 -140h-74l121 140h87z" />
    <glyph glyph-name="uni045D" unicode="&#x45d;" horiz-adv-x="570" 
d="M74 0v418q0 11 -8 14l-30 13l8 41h95q9 0 9 -10v-368l273 378h79v-486h-74v378l-274 -378h-78zM266 564l-134 140h87l121 -140h-74z" />
    <glyph glyph-name="uni045E" unicode="&#x45e;" horiz-adv-x="500" 
d="M220 -3l-210 489h87l161 -389l139 389h85l-208 -554q-32 -86 -72 -119t-114 -33q-23 0 -33 2v62q9 -1 27 -1q47 0 72.5 21.5t46.5 79.5zM103 704h58q0 -50 22 -72t72 -22t72 22t22 72h58q0 -79 -36 -114t-116 -35t-116 35t-36 114z" />
    <glyph glyph-name="uni045F" unicode="&#x45f;" horiz-adv-x="570" 
d="M153 62h267v424h80v-486h-176v-144h-74v144h-176v418q0 11 -8 14l-30 13l8 41h100q9 0 9 -10v-414z" />
    <glyph glyph-name="uni0490" unicode="&#x490;" horiz-adv-x="515" 
d="M53 672h364v160h77v-225h-326v-607h-82v609q0 9 -10 13l-30 13z" />
    <glyph glyph-name="uni0491" unicode="&#x491;" horiz-adv-x="418" 
d="M74 0v418q0 11 -8 14l-30 13l8 41h279v144h74v-207h-244v-423h-79z" />
    <glyph glyph-name="uni0492" unicode="&#x492;" horiz-adv-x="529" 
d="M67 672h441v-65h-326v-261h196v-59h-196v-287h-82v287h-87v59h87v263q0 9 -10 13l-30 13z" />
    <glyph glyph-name="uni0493" unicode="&#x493;" horiz-adv-x="434" 
d="M90 255v163q0 11 -8 14l-30 13l8 41h353v-63h-244v-168h140v-57h-140v-198h-79v198h-82v57h82z" />
    <glyph glyph-name="uni049A" unicode="&#x49a;" horiz-adv-x="665" 
d="M169 343l314 329h96l-293 -311l252 -296h114v-225h-76v160h-85l-256 309l-66 -68v-241h-83v609q0 9 -10 13l-30 13l7 37h107q9 0 9 -10v-319z" />
    <glyph glyph-name="uni049B" unicode="&#x49b;" horiz-adv-x="534" 
d="M151 260l215 226h93l-211 -224l164 -200h109v-206h-74v144h-75l-174 212l-47 -48v-164h-77v418q0 11 -8 14l-30 13l8 41h98q9 0 9 -10v-216z" />
    <glyph glyph-name="uni04A2" unicode="&#x4a2;" horiz-adv-x="777" 
d="M86 0v609q0 9 -10 13l-30 13l7 37h106q9 0 9 -10v-287h405v297h83v-607h92v-225h-76v160h-99v309h-405v-309h-82z" />
    <glyph glyph-name="uni04A3" unicode="&#x4a3;" horiz-adv-x="608" 
d="M74 0v418q0 11 -8 14l-30 13l8 41h100q9 0 9 -10v-198h267v208h80v-424h79v-206h-74v144h-85v216h-267v-216h-79z" />
    <glyph glyph-name="uni04AE" unicode="&#x4ae;" horiz-adv-x="599" 
d="M258 0v287l-246 385h92l197 -313l195 313h92l-247 -385v-287h-83z" />
    <glyph glyph-name="uni04AF" unicode="&#x4af;" horiz-adv-x="509" 
d="M215 -208v197l-192 497h84l148 -405l147 405h84l-192 -497v-197h-79z" />
    <glyph glyph-name="uni04B0" unicode="&#x4b0;" horiz-adv-x="611" 
d="M264 0v264h-168v60h146l-224 348h92l197 -313l195 313h92l-225 -348h146v-60h-168v-264h-83z" />
    <glyph glyph-name="uni04B1" unicode="&#x4b1;" horiz-adv-x="517" 
d="M219 -208v194h-144v56h125l-173 444h84l148 -405l147 405h84l-173 -444h135v-56h-154v-194h-79z" />
    <glyph glyph-name="uni04BA" unicode="&#x4ba;" horiz-adv-x="675" 
d="M86 0v609q0 9 -10 13l-30 13l7 37h106q9 0 9 -10v-279q105 25 196 25q131 0 190 -55.5t59 -175.5v-177h-83v171q0 90 -43 130.5t-140 40.5q-80 0 -179 -23v-319h-82z" />
    <glyph glyph-name="uni04BB" unicode="&#x4bb;" horiz-adv-x="564" 
d="M306 498q100 0 144 -45t44 -148v-237q0 -11 8 -14l30 -13l-8 -41h-101q-9 0 -9 10v293q0 70 -28 99.5t-94 29.5q-43 0 -84.5 -11.5t-59.5 -24.5v-396h-80v636q0 11 -8 14l-30 13l8 41h101q9 0 9 -10v-252q59 56 158 56z" />
    <glyph glyph-name="uni04D8" unicode="&#x4d8;" horiz-adv-x="683" 
d="M634 336q0 -184 -72 -266t-233 -82q-148 0 -214 78.5t-66 255.5q0 12 2 38h500q-2 140 -64 200t-204 60q-99 0 -199 -34l-12 65q101 33 217 33q182 0 263.5 -82t81.5 -266zM329 49q115 0 167 58.5t55 192.5h-420q2 -135 48 -193t150 -58z" />
    <glyph glyph-name="uni04D9" unicode="&#x4d9;" horiz-adv-x="525" 
d="M483 243q0 -135 -54.5 -195t-176.5 -60q-111 0 -160.5 58t-49.5 189q0 6 0.5 16t0.5 15h362q-3 91 -42.5 130t-135.5 39q-74 0 -148 -26l-14 62q76 27 168 27q136 0 193 -59.5t57 -195.5zM252 46q78 0 114 39t39 127h-286q1 -89 32 -127.5t101 -38.5z" />
    <glyph glyph-name="uni04E8" unicode="&#x4e8;" horiz-adv-x="737" 
d="M49 336q0 184 75.5 266t244.5 82t244 -82t75 -266t-75 -266t-244 -82t-244.5 82t-75.5 266zM369 52q123 0 179.5 60.5t60.5 198.5h-481q4 -138 61 -198.5t180 -60.5zM369 620q-120 0 -177 -58t-63 -189h480q-7 131 -63.5 189t-176.5 58z" />
    <glyph glyph-name="uni04E9" unicode="&#x4e9;" horiz-adv-x="563" 
d="M42 243q0 134 57 194.5t183 60.5t182.5 -60.5t56.5 -194.5q0 -135 -56.5 -195t-182.5 -60t-183 60t-57 195zM282 46q83 0 122 40t43 131h-331q4 -91 43.5 -131t122.5 -40zM282 440q-82 0 -121.5 -39.5t-44.5 -127.5h331q-5 88 -44 127.5t-121 39.5z" />
    <glyph glyph-name="Wgrave" unicode="&#x1e80;" horiz-adv-x="974" 
d="M488 538h-1q-18 -117 -70 -289q-30 -101 -86 -249h-93q-59 149 -115.5 342.5t-82.5 329.5h82q18 -96 70 -289q47 -179 93 -298h2q38 98 92 298q57 211 70 275h77q12 -57 70 -275q54 -200 92 -298h2q46 119 93 298q52 193 70 289h81q-26 -137 -82.5 -330t-114.5 -342h-93
q-48 128 -86 249q-50 160 -70 289zM472 740l-134 140h87l121 -140h-74z" />
    <glyph glyph-name="wgrave" unicode="&#x1e81;" horiz-adv-x="797" 
d="M694 486h79q-82 -290 -169 -486h-87q-27 59 -70 189q-29 86 -48 178h-1q-19 -92 -48 -178q-43 -130 -70 -189h-87q-87 196 -169 486h80q27 -96 65 -216q29 -92 66 -197h2q45 126 67 197q36 115 59 204h71q19 -73 60 -204q22 -71 67 -197h2q37 105 66 197q38 120 65 216z
M367 564l-134 140h87l121 -140h-74z" />
    <glyph glyph-name="Wacute" unicode="&#x1e82;" horiz-adv-x="974" 
d="M488 538h-1q-18 -117 -70 -289q-30 -101 -86 -249h-93q-59 149 -115.5 342.5t-82.5 329.5h82q18 -96 70 -289q47 -179 93 -298h2q38 98 92 298q57 211 70 275h77q12 -57 70 -275q54 -200 92 -298h2q46 119 93 298q52 193 70 289h81q-26 -137 -82.5 -330t-114.5 -342h-93
q-48 128 -86 249q-50 160 -70 289zM648 880l-134 -140h-74l121 140h87z" />
    <glyph glyph-name="wacute" unicode="&#x1e83;" horiz-adv-x="797" 
d="M694 486h79q-82 -290 -169 -486h-87q-27 59 -70 189q-29 86 -48 178h-1q-19 -92 -48 -178q-43 -130 -70 -189h-87q-87 196 -169 486h80q27 -96 65 -216q29 -92 66 -197h2q45 126 67 197q36 115 59 204h71q19 -73 60 -204q22 -71 67 -197h2q37 105 66 197q38 120 65 216z
M551 704l-134 -140h-74l121 140h87z" />
    <glyph glyph-name="Wdieresis" unicode="&#x1e84;" horiz-adv-x="974" 
d="M488 538h-1q-18 -117 -70 -289q-30 -101 -86 -249h-93q-59 149 -115.5 342.5t-82.5 329.5h82q18 -96 70 -289q47 -179 93 -298h2q38 98 92 298q57 211 70 275h77q12 -57 70 -275q54 -200 92 -298h2q46 119 93 298q52 193 70 289h81q-26 -137 -82.5 -330t-114.5 -342h-93
q-48 128 -86 249q-50 160 -70 289zM537 810q0 49 51 49q50 0 50 -49t-50 -49q-51 0 -51 49zM338 810q0 49 50 49q51 0 51 -49t-51 -49q-50 0 -50 49z" />
    <glyph glyph-name="wdieresis" unicode="&#x1e85;" horiz-adv-x="797" 
d="M694 486h79q-82 -290 -169 -486h-87q-27 59 -70 189q-29 86 -48 178h-1q-19 -92 -48 -178q-43 -130 -70 -189h-87q-87 196 -169 486h80q27 -96 65 -216q29 -92 66 -197h2q45 126 67 197q36 115 59 204h71q19 -73 60 -204q22 -71 67 -197h2q37 105 66 197q38 120 65 216z
M447 634q0 49 51 49q50 0 50 -49t-50 -49q-51 0 -51 49zM248 634q0 49 50 49q51 0 51 -49t-51 -49q-50 0 -50 49z" />
    <glyph glyph-name="uni1E9E" unicode="&#x1e9e;" horiz-adv-x="737" 
d="M84 0v404q0 147 74.5 213.5t242.5 66.5q128 0 255 -25v-53l-162 -226q100 -7 147 -53t47 -138q0 -106 -60.5 -153.5t-194.5 -47.5q-89 0 -162 18v65q79 -19 157 -19q95 0 137 32.5t42 105.5q0 72 -42 104t-138 32h-22v52l162 227q-80 15 -163 15q-128 0 -184 -51.5
t-56 -169.5v-399h-80z" />
    <glyph glyph-name="Ygrave" unicode="&#x1ef2;" horiz-adv-x="599" 
d="M258 0v287l-246 385h92l197 -313l195 313h92l-247 -385v-287h-83zM279 740l-134 140h87l121 -140h-74z" />
    <glyph glyph-name="ygrave" unicode="&#x1ef3;" horiz-adv-x="500" 
d="M220 -3l-210 489h87l161 -389l139 389h85l-208 -554q-32 -86 -72 -119t-114 -33q-23 0 -33 2v62q9 -1 27 -1q47 0 72.5 21.5t46.5 79.5zM223 564l-134 140h87l121 -140h-74z" />
    <glyph glyph-name="endash" unicode="&#x2013;" 
d="M26 216v62h524v-62h-524z" />
    <glyph glyph-name="emdash" unicode="&#x2014;" horiz-adv-x="864" 
d="M26 216v62h812v-62h-812z" />
    <glyph glyph-name="quoteleft" unicode="&#x2018;" horiz-adv-x="231" 
d="M44 445l75 227h66l-58 -227h-83z" />
    <glyph glyph-name="quoteright" unicode="&#x2019;" horiz-adv-x="231" 
d="M188 672l-76 -227h-65l57 227h84z" />
    <glyph glyph-name="quotesinglbase" unicode="&#x201a;" horiz-adv-x="231" 
d="M172 83l-76 -227h-65l57 227h84z" />
    <glyph glyph-name="quotedblleft" unicode="&#x201c;" horiz-adv-x="431" 
d="M44 445l75 227h66l-58 -227h-83zM243 445l75 227h66l-58 -227h-83z" />
    <glyph glyph-name="quotedblright" unicode="&#x201d;" horiz-adv-x="431" 
d="M188 672l-76 -227h-65l57 227h84zM387 672l-76 -227h-65l57 227h84z" />
    <glyph glyph-name="quotedblbase" unicode="&#x201e;" horiz-adv-x="431" 
d="M172 83l-76 -227h-65l57 227h84zM371 83l-76 -227h-65l57 227h84z" />
    <glyph glyph-name="dagger" unicode="&#x2020;" horiz-adv-x="471" 
d="M201 0v445h-167v63h167v164h69v-164h167v-63h-167v-445h-69z" />
    <glyph glyph-name="daggerdbl" unicode="&#x2021;" horiz-adv-x="471" 
d="M201 0v164h-167v63h167v218h-167v63h167v164h69v-164h167v-63h-167v-218h167v-63h-167v-164h-69z" />
    <glyph glyph-name="bullet" unicode="&#x2022;" horiz-adv-x="480" 
d="M96 288q0 60 42 102t102 42t102 -42t42 -102t-42 -102t-102 -42t-102 42t-42 102z" />
    <glyph glyph-name="ellipsis" unicode="&#x2026;" horiz-adv-x="757" 
d="M61 44q0 28 13 40.5t42 12.5t41.5 -12t12.5 -41t-12.5 -41t-41.5 -12t-42 12.5t-13 40.5zM324 44q0 28 13 40.5t42 12.5t41.5 -12t12.5 -41t-12.5 -41t-41.5 -12t-42 12.5t-13 40.5zM587 44q0 28 13 40.5t42 12.5t41.5 -12t12.5 -41t-12.5 -41t-41.5 -12t-42 12.5
t-13 40.5z" />
    <glyph glyph-name="perthousand" unicode="&#x2030;" horiz-adv-x="1248" 
d="M44 504q0 95 39 137.5t125 42.5t125 -42.5t39 -137.5t-39 -137.5t-125 -42.5t-125 42.5t-39 137.5zM108 504q0 -67 23.5 -96t76.5 -29t76.5 29t23.5 96t-23.5 96t-76.5 29t-76.5 -29t-23.5 -96zM492 168q0 95 39 137.5t125 42.5t125 -42.5t39 -137.5t-39 -137.5
t-125 -42.5t-125 42.5t-39 137.5zM556 168q0 -67 23.5 -96t76.5 -29t76.5 29t23.5 96t-23.5 96t-76.5 29t-76.5 -29t-23.5 -96zM876 168q0 95 39 137.5t125 42.5t125 -42.5t39 -137.5t-39 -137.5t-125 -42.5t-125 42.5t-39 137.5zM940 168q0 -67 23.5 -96t76.5 -29t76.5 29
t23.5 96t-23.5 96t-76.5 29t-76.5 -29t-23.5 -96zM255 0l302 672h52l-302 -672h-52z" />
    <glyph glyph-name="guilsinglleft" unicode="&#x2039;" horiz-adv-x="279" 
d="M246 436l-132 -193l132 -193h-76l-139 193l139 193h76z" />
    <glyph glyph-name="guilsinglright" unicode="&#x203a;" horiz-adv-x="279" 
d="M33 50l132 193l-132 193h76l140 -193l-140 -193h-76z" />
    <glyph glyph-name="fraction" unicode="&#x2044;" horiz-adv-x="128" 
d="M-113 0l302 672h52l-302 -672h-52z" />
    <glyph glyph-name="Euro" unicode="&#x20ac;" 
d="M47 242v51h65q-1 14 -1 43q0 37 1 55h-65v51h70q18 126 86 184t197 58q79 0 145 -19v-62q-69 20 -136 20q-95 0 -145 -42.5t-65 -138.5h256v-51h-262q-1 -17 -1 -55q0 -30 1 -43h262v-51h-258q13 -103 63.5 -148t148.5 -45q67 0 136 20v-62q-66 -19 -145 -19
q-132 0 -200 60.5t-84 193.5h-69z" />
    <glyph glyph-name="afii61248" unicode="&#x2105;" horiz-adv-x="864" 
d="M44 510q0 90 38 130t124 40q56 0 96 -13v-51q-42 14 -87 14q-59 0 -84 -28t-25 -92t25 -92t84 -28q47 0 87 15v-51q-40 -13 -96 -13q-86 0 -124 40t-38 129zM495 161q0 90 38.5 130t123.5 40q86 0 124 -40t38 -130q0 -89 -38 -129t-124 -40q-85 0 -123.5 40t-38.5 129z
M557 161q0 -64 23.5 -92t76.5 -28q54 0 77 28t23 92q0 65 -23 92.5t-77 27.5q-53 0 -76.5 -28t-23.5 -92zM239 0l302 672h52l-302 -672h-52z" />
    <glyph glyph-name="litre" unicode="&#x2113;" horiz-adv-x="381" 
d="M345 559q0 -178 -200 -304v-106q0 -52 22.5 -74.5t74.5 -22.5q30 0 75 9v-64q-37 -9 -84 -9q-85 0 -123.5 37.5t-38.5 120.5v399q0 90 33.5 130.5t107.5 40.5q69 0 101 -37.5t32 -119.5zM281 556q0 52 -15 74t-50 22q-38 0 -54.5 -25t-16.5 -84v-212q136 96 136 225z" />
    <glyph glyph-name="numero" unicode="&#x2116;" horiz-adv-x="1140" 
d="M780 228v50h318v-50h-318zM84 0v672h81l412 -557v557h77v-672h-81l-412 557v-557h-77zM777 511q0 89 38 129t124 40q85 0 123.5 -40t38.5 -129q0 -90 -38.5 -130t-123.5 -40q-86 0 -124 40t-38 130zM839 511q0 -65 23 -92.5t77 -27.5q53 0 76.5 28t23.5 92t-23 92t-77 28
t-77 -28t-23 -92z" />
    <glyph glyph-name="uni2117" unicode="&#x2117;" horiz-adv-x="832" 
d="M42 336q0 193 88.5 280.5t285.5 87.5t285.5 -87.5t88.5 -280.5t-88.5 -280.5t-285.5 -87.5t-285.5 87.5t-88.5 280.5zM92 336q0 -171 77.5 -247.5t246.5 -76.5t246.5 76.5t77.5 247.5q0 172 -76 248t-248 76t-248 -76t-76 -248zM277 128v416h170q79 0 114.5 -31t35.5 -99
q0 -69 -35.5 -99.5t-114.5 -30.5h-111v-156h-59zM336 495v-162h108q50 0 71.5 19t21.5 62t-21.5 62t-71.5 19h-108z" />
    <glyph glyph-name="uni2120" unicode="&#x2120;" horiz-adv-x="924" 
d="M43 563q0 61 37.5 89t121.5 28q67 0 126 -17v-52q-63 19 -122 19q-53 0 -76 -15t-23 -50q0 -29 25 -44.5t61 -23t72.5 -17.5t61.5 -37.5t25 -73.5q0 -63 -38.5 -92t-123.5 -29q-76 0 -143 21v52q72 -23 138 -23q54 0 78.5 16.5t24.5 52.5q0 30 -25 46.5t-61 24t-72.5 18
t-61.5 36.5t-25 71zM451 256v416h61l145 -235l147 235h60v-416h-58v324l-128 -204h-43l-125 204v-324h-59z" />
    <glyph glyph-name="trademark" unicode="&#x2122;" horiz-adv-x="929" 
d="M456 256v416h60l145 -235l147 235h61v-416h-59v324l-128 -204h-42l-126 204v-324h-58zM167 256v366h-143v50h348v-50h-143v-366h-62z" />
    <glyph glyph-name="Ohm" unicode="&#x2126;" horiz-adv-x="737" 
d="M26 0v66h181q-152 112 -152 308q0 163 74.5 236.5t239.5 73.5t239 -73.5t74 -236.5q0 -196 -152 -308h181v-66h-277v61q165 102 165 301q0 136 -54 195.5t-176 59.5t-176.5 -59.5t-54.5 -195.5q0 -198 165 -301v-61h-277z" />
    <glyph glyph-name="estimated" unicode="&#x212e;" horiz-adv-x="960" 
d="M480 16q147 0 243 112h66q-54 -67 -135 -105.5t-174 -38.5q-159 0 -271.5 103t-112.5 249t112.5 249t271.5 103t271.5 -103t112.5 -249q0 -11 -1 -16h-623v-196q44 -51 106.5 -79.5t133.5 -28.5zM240 548v-196h480v196q-97 108 -240 108q-145 0 -240 -108z" />
    <glyph glyph-name="onethird" unicode="&#x2153;" horiz-adv-x="864" 
d="M187 256v360l-107 -45v51l120 50h48v-416h-61zM255 0l302 672h52l-302 -672h-52zM795 416v-40l-115 -139q71 -4 103 -33t32 -85q0 -67 -41 -97t-133 -30q-62 0 -107 15v49q51 -15 103 -15q61 0 88.5 18t27.5 60q0 41 -29 59.5t-95 18.5h-17v36l111 135h-185v48h257z" />
    <glyph glyph-name="twothirds" unicode="&#x2154;" horiz-adv-x="864" 
d="M38 256v44l160 155q53 52 53 96q0 42 -21 60t-70 18q-58 0 -110 -17v51q52 17 119 17q75 0 109.5 -29t34.5 -93q0 -62 -63 -123l-132 -129h197v-50h-277zM255 0l302 672h52l-302 -672h-52zM795 416v-40l-115 -139q71 -4 103 -33t32 -85q0 -67 -41 -97t-133 -30
q-62 0 -107 15v49q51 -15 103 -15q61 0 88.5 18t27.5 60q0 41 -29 59.5t-95 18.5h-17v36l111 135h-185v48h257z" />
    <glyph glyph-name="uni2155" unicode="&#x2155;" horiz-adv-x="864" 
d="M803 416v-48h-188v-123q20 3 48 3q83 0 121 -30.5t38 -96.5q0 -68 -40.5 -98.5t-128.5 -30.5q-62 0 -108 15v49q53 -15 103 -15q59 0 85.5 19t26.5 63q0 43 -27.5 61t-91.5 18q-48 0 -82 -4v218h244zM187 256v360l-107 -45v51l120 50h48v-416h-61zM255 0l302 672h52
l-302 -672h-52z" />
    <glyph glyph-name="uni2156" unicode="&#x2156;" horiz-adv-x="864" 
d="M803 416v-48h-188v-123q20 3 48 3q83 0 121 -30.5t38 -96.5q0 -68 -40.5 -98.5t-128.5 -30.5q-62 0 -108 15v49q53 -15 103 -15q59 0 85.5 19t26.5 63q0 43 -27.5 61t-91.5 18q-48 0 -82 -4v218h244zM38 256v44l160 155q53 52 53 96q0 42 -21 60t-70 18q-58 0 -110 -17
v51q52 17 119 17q75 0 109.5 -29t34.5 -93q0 -62 -63 -123l-132 -129h197v-50h-277zM255 0l302 672h52l-302 -672h-52z" />
    <glyph glyph-name="uni2157" unicode="&#x2157;" horiz-adv-x="864" 
d="M803 416v-48h-188v-123q20 3 48 3q83 0 121 -30.5t38 -96.5q0 -68 -40.5 -98.5t-128.5 -30.5q-62 0 -108 15v49q53 -15 103 -15q59 0 85.5 19t26.5 63q0 43 -27.5 61t-91.5 18q-48 0 -82 -4v218h244zM299 672v-40l-115 -139q71 -4 103 -33t32 -85q0 -67 -41 -97t-133 -30
q-62 0 -107 15v49q51 -15 103 -15q61 0 88.5 18t27.5 60q0 41 -29 59.5t-95 18.5h-17v36l111 135h-185v48h257zM255 0l302 672h52l-302 -672h-52z" />
    <glyph glyph-name="uni2158" unicode="&#x2158;" horiz-adv-x="864" 
d="M230 256v90h-212v45l204 281h63v-279h61v-47h-61v-90h-55zM76 393h154v212zM803 416v-48h-188v-123q20 3 48 3q83 0 121 -30.5t38 -96.5q0 -68 -40.5 -98.5t-128.5 -30.5q-62 0 -108 15v49q53 -15 103 -15q59 0 85.5 19t26.5 63q0 43 -27.5 61t-91.5 18q-48 0 -82 -4v218
h244zM255 0l302 672h52l-302 -672h-52z" />
    <glyph glyph-name="uni2159" unicode="&#x2159;" horiz-adv-x="864" 
d="M532 188q0 125 43.5 180.5t144.5 55.5q44 0 93 -13v-48q-45 13 -89 13q-71 0 -101.5 -36.5t-32.5 -120.5q25 50 107 50q72 0 106 -32.5t34 -103.5q0 -73 -36 -107t-115 -34q-82 0 -118 46t-36 150zM594 139q0 -100 91 -100q51 0 73 22t22 71q0 48 -21 69.5t-68 21.5
q-97 0 -97 -84zM187 256v360l-107 -45v51l120 50h48v-416h-61zM255 0l302 672h52l-302 -672h-52z" />
    <glyph glyph-name="uni215A" unicode="&#x215a;" horiz-adv-x="864" 
d="M307 672v-48h-188v-123q20 3 48 3q83 0 121 -30.5t38 -96.5q0 -68 -40.5 -98.5t-128.5 -30.5q-62 0 -108 15v49q53 -15 103 -15q59 0 85.5 19t26.5 63q0 43 -27.5 61t-91.5 18q-48 0 -82 -4v218h244zM532 188q0 125 43.5 180.5t144.5 55.5q44 0 93 -13v-48q-45 13 -89 13
q-71 0 -101.5 -36.5t-32.5 -120.5q25 50 107 50q72 0 106 -32.5t34 -103.5q0 -73 -36 -107t-115 -34q-82 0 -118 46t-36 150zM594 139q0 -100 91 -100q51 0 73 22t22 71q0 48 -21 69.5t-68 21.5q-97 0 -97 -84zM255 0l302 672h52l-302 -672h-52z" />
    <glyph glyph-name="oneeighth" unicode="&#x215b;" horiz-adv-x="864" 
d="M680 237q48 5 68 21.5t20 51.5q0 36 -20.5 52t-67.5 16q-48 0 -68.5 -16t-20.5 -52q0 -34 20.5 -51t68.5 -22zM524 109q0 47 20.5 70t70.5 33q-44 9 -62.5 32.5t-18.5 67.5q0 59 34.5 85.5t111.5 26.5q76 0 110.5 -26.5t34.5 -85.5q0 -44 -18.5 -67.5t-62.5 -32.5
q50 -10 70.5 -33t20.5 -70q0 -61 -37 -89t-118 -28q-82 0 -119 28t-37 89zM680 189q-54 -6 -76 -23.5t-22 -54.5q0 -39 23 -56t75 -17q51 0 74 17t23 56q0 37 -21.5 54.5t-75.5 23.5zM187 256v360l-107 -45v51l120 50h48v-416h-61zM255 0l302 672h52l-302 -672h-52z" />
    <glyph glyph-name="threeeighths" unicode="&#x215c;" horiz-adv-x="864" 
d="M680 237q48 5 68 21.5t20 51.5q0 36 -20.5 52t-67.5 16q-48 0 -68.5 -16t-20.5 -52q0 -34 20.5 -51t68.5 -22zM524 109q0 47 20.5 70t70.5 33q-44 9 -62.5 32.5t-18.5 67.5q0 59 34.5 85.5t111.5 26.5q76 0 110.5 -26.5t34.5 -85.5q0 -44 -18.5 -67.5t-62.5 -32.5
q50 -10 70.5 -33t20.5 -70q0 -61 -37 -89t-118 -28q-82 0 -119 28t-37 89zM680 189q-54 -6 -76 -23.5t-22 -54.5q0 -39 23 -56t75 -17q51 0 74 17t23 56q0 37 -21.5 54.5t-75.5 23.5zM299 672v-40l-115 -139q71 -4 103 -33t32 -85q0 -67 -41 -97t-133 -30q-62 0 -107 15v49
q51 -15 103 -15q61 0 88.5 18t27.5 60q0 41 -29 59.5t-95 18.5h-17v36l111 135h-185v48h257zM255 0l302 672h52l-302 -672h-52z" />
    <glyph glyph-name="fiveeighths" unicode="&#x215d;" horiz-adv-x="864" 
d="M307 672v-48h-188v-123q20 3 48 3q83 0 121 -30.5t38 -96.5q0 -68 -40.5 -98.5t-128.5 -30.5q-62 0 -108 15v49q53 -15 103 -15q59 0 85.5 19t26.5 63q0 43 -27.5 61t-91.5 18q-48 0 -82 -4v218h244zM680 237q48 5 68 21.5t20 51.5q0 36 -20.5 52t-67.5 16
q-48 0 -68.5 -16t-20.5 -52q0 -34 20.5 -51t68.5 -22zM524 109q0 47 20.5 70t70.5 33q-44 9 -62.5 32.5t-18.5 67.5q0 59 34.5 85.5t111.5 26.5q76 0 110.5 -26.5t34.5 -85.5q0 -44 -18.5 -67.5t-62.5 -32.5q50 -10 70.5 -33t20.5 -70q0 -61 -37 -89t-118 -28q-82 0 -119 28
t-37 89zM680 189q-54 -6 -76 -23.5t-22 -54.5q0 -39 23 -56t75 -17q51 0 74 17t23 56q0 37 -21.5 54.5t-75.5 23.5zM255 0l302 672h52l-302 -672h-52z" />
    <glyph glyph-name="seveneighths" unicode="&#x215e;" horiz-adv-x="864" 
d="M323 672v-42l-168 -374h-62l167 366h-219v50h282zM680 237q48 5 68 21.5t20 51.5q0 36 -20.5 52t-67.5 16q-48 0 -68.5 -16t-20.5 -52q0 -34 20.5 -51t68.5 -22zM524 109q0 47 20.5 70t70.5 33q-44 9 -62.5 32.5t-18.5 67.5q0 59 34.5 85.5t111.5 26.5q76 0 110.5 -26.5
t34.5 -85.5q0 -44 -18.5 -67.5t-62.5 -32.5q50 -10 70.5 -33t20.5 -70q0 -61 -37 -89t-118 -28q-82 0 -119 28t-37 89zM680 189q-54 -6 -76 -23.5t-22 -54.5q0 -39 23 -56t75 -17q51 0 74 17t23 56q0 37 -21.5 54.5t-75.5 23.5zM255 0l302 672h52l-302 -672h-52z" />
    <glyph glyph-name="uni215F" unicode="&#x215f;" horiz-adv-x="496" 
d="M187 256v360l-107 -45v51l120 50h48v-416h-61zM255 0l302 672h52l-302 -672h-52z" />
    <glyph glyph-name="arrowleft" unicode="&#x2190;" horiz-adv-x="864" 
d="M812 251h-630l233 -231h-107l-267 268l267 268h107l-233 -231h630v-74z" />
    <glyph glyph-name="arrowup" unicode="&#x2191;" horiz-adv-x="864" 
d="M395 -92v630l-231 -233v107l268 267l268 -267v-107l-231 233v-630h-74z" />
    <glyph glyph-name="arrowright" unicode="&#x2192;" horiz-adv-x="864" 
d="M52 325h630l-233 231h107l267 -268l-267 -268h-107l233 231h-630v74z" />
    <glyph glyph-name="arrowdown" unicode="&#x2193;" horiz-adv-x="864" 
d="M469 668v-630l231 233v-107l-268 -267l-268 267v107l231 -233v630h74z" />
    <glyph glyph-name="uni2196" unicode="&#x2196;" horiz-adv-x="864" 
d="M674 -7l-445 445l2 -327l-75 75v378h378l75 -75l-327 2l445 -445z" />
    <glyph glyph-name="uni2197" unicode="&#x2197;" horiz-adv-x="864" 
d="M137 46l445 445l-328 -2l76 75h378v-378l-75 -76l2 328l-445 -445z" />
    <glyph glyph-name="uni2198" unicode="&#x2198;" horiz-adv-x="864" 
d="M190 583l445 -445l-2 327l75 -75v-378h-378l-75 75l327 -2l-445 445z" />
    <glyph glyph-name="uni2199" unicode="&#x2199;" horiz-adv-x="864" 
d="M727 530l-445 -445l327 2l-75 -75h-378v378l75 75l-2 -327l445 445z" />
    <glyph glyph-name="partialdiff" unicode="&#x2202;" horiz-adv-x="567" 
d="M44 243q0 134 50.5 194.5t161.5 60.5q126 0 173 -76q-9 122 -53 177t-130 55q-76 0 -151 -27v64q72 25 157 25q141 0 202 -97t61 -324q0 -159 -57 -233t-182 -74q-122 0 -177 60.5t-55 194.5zM126 243q0 -102 35 -146.5t115 -44.5q82 0 119.5 51t37.5 153q0 90 -38.5 134
t-122.5 44q-77 0 -111.5 -44.5t-34.5 -146.5z" />
    <glyph glyph-name="increment" unicode="&#x2206;" horiz-adv-x="679" 
d="M39 0v54l254 618h94l253 -618v-54h-601zM340 596l-215 -530h430z" />
    <glyph glyph-name="product" unicode="&#x220f;" horiz-adv-x="785" 
d="M84 -208v912h618v-912h-83v846h-452v-846h-83z" />
    <glyph glyph-name="summation" unicode="&#x2211;" horiz-adv-x="652" 
d="M41 -208v55l326 409l-310 393v55h555v-66h-450l285 -361v-42l-301 -377h482v-66h-587z" />
    <glyph glyph-name="minus" unicode="&#x2212;" 
d="M74 254v68h428v-68h-428z" />
    <glyph glyph-name="uni2215" unicode="&#x2215;" horiz-adv-x="128" 
d="M-113 0l302 672h52l-302 -672h-52z" />
    <glyph glyph-name="radical" unicode="&#x221a;" horiz-adv-x="679" 
d="M649 672l-255 -880h-84l-114 338l-183 -62v72l227 75l111 -326l226 783h72z" />
    <glyph glyph-name="infinity" unicode="&#x221e;" horiz-adv-x="785" 
d="M36 288q0 101 41 146.5t132 45.5q67 0 107.5 -29.5t76.5 -105.5q36 76 76 105.5t108 29.5q91 0 131.5 -45.5t40.5 -146.5t-40.5 -146.5t-131.5 -45.5q-68 0 -108 29.5t-76 105.5q-36 -76 -76.5 -105.5t-107.5 -29.5q-91 0 -132 45.5t-41 146.5zM111 288q0 -68 25 -98
t81 -30q49 0 77.5 27t59.5 101q-31 74 -59.5 101t-77.5 27q-56 0 -81 -30t-25 -98zM675 288q0 68 -25 98t-82 30q-48 0 -77 -27t-60 -101q31 -74 60 -101t77 -27q57 0 82 30t25 98z" />
    <glyph glyph-name="integral" unicode="&#x222b;" horiz-adv-x="401" 
d="M84 557q0 83 37.5 121t119.5 38q42 0 71 -7v-66q-27 7 -56 7q-51 0 -74 -23t-23 -76q0 -52 39.5 -174t79.5 -248.5t40 -189.5q0 -83 -37.5 -121t-120.5 -38q-40 0 -71 7v66q27 -7 56 -7q52 0 74.5 23t22.5 76q0 52 -39.5 174t-79 248.5t-39.5 189.5z" />
    <glyph glyph-name="approxequal" unicode="&#x2248;" 
d="M74 138v75q45 47 118 47q32 0 60 -11.5t45.5 -26t42 -26t50.5 -11.5q62 0 112 54v-75q-45 -47 -118 -47q-40 0 -73 18.5t-63 37t-62 18.5q-62 0 -112 -53zM74 337v75q45 47 118 47q40 0 73 -18.5t63 -37t62 -18.5q62 0 112 53v-75q-45 -47 -118 -47q-32 0 -60 11.5
t-45.5 26t-42 26t-50.5 11.5q-62 0 -112 -54z" />
    <glyph glyph-name="notequal" unicode="&#x2260;" 
d="M74 154v69h156l44 130h-200v69h222l52 154h72l-51 -154h133v-69h-156l-44 -130h200v-69h-222l-52 -154h-72l51 154h-133z" />
    <glyph glyph-name="lessequal" unicode="&#x2264;" 
d="M74 0v68h428v-68h-428zM502 166l-428 171v77l428 171v-73l-346 -137l346 -137v-72z" />
    <glyph glyph-name="greaterequal" unicode="&#x2265;" 
d="M74 0v68h428v-68h-428zM74 585l428 -171v-77l-428 -171v72l346 137l-346 137v73z" />
    <glyph glyph-name="uni22C5" unicode="&#x22c5;" horiz-adv-x="231" 
d="M61 247q0 28 13 40.5t42 12.5t41.5 -12t12.5 -41t-12.5 -41t-41.5 -12t-42 12.5t-13 40.5z" />
    <glyph glyph-name="lozenge" unicode="&#x25ca;" 
d="M248 0l-207 336l207 336h80l207 -336l-207 -336h-80zM288 602l-165 -266l165 -268l165 268z" />
    <glyph glyph-name="zero.lprop" unicode="&#xe010;" horiz-adv-x="636" 
d="M57 336q0 184 62 266t199 82t198.5 -82t61.5 -266t-61.5 -266t-198.5 -82t-199 82t-62 266zM139 336q0 -149 42 -215t137 -66t137 65.5t42 215.5t-42 215.5t-137 65.5t-137 -65.5t-42 -215.5z" />
    <glyph glyph-name="one.lprop" unicode="&#xe011;" horiz-adv-x="391" 
d="M212 0v600l-178 -74v66l193 80h65v-672h-80z" />
    <glyph glyph-name="two.lprop" unicode="&#xe012;" horiz-adv-x="518" 
d="M26 0v60l265 258q88 87 88 166q0 71 -36.5 102t-119.5 31q-87 0 -176 -30v68q83 29 188 29q118 0 171.5 -45.5t53.5 -146.5q0 -105 -101 -203l-226 -223h333v-66h-440z" />
    <glyph glyph-name="three.lprop" unicode="&#xe013;" horiz-adv-x="518" 
d="M436 672v-55l-194 -237q117 -6 171.5 -52t54.5 -139q0 -106 -64.5 -153.5t-208.5 -47.5q-91 0 -169 25v66q80 -27 163 -27q106 0 152 32t46 106q0 73 -49 104.5t-162 31.5h-25v49l194 234h-311v63h402z" />
    <glyph glyph-name="four.lprop" unicode="&#xe014;" horiz-adv-x="593" 
d="M380 0v148h-346v60l336 464h84v-461h100v-63h-100v-148h-74zM112 211h268v370z" />
    <glyph glyph-name="five.lprop" unicode="&#xe015;" horiz-adv-x="534" 
d="M458 672v-63h-310v-219q43 3 88 3q134 0 194 -47t60 -153q0 -108 -64 -156.5t-205 -48.5q-91 0 -169 25v66q81 -27 163 -27q103 0 148 33.5t45 108.5q0 74 -47 107t-154 33q-53 0 -133 -7v345h384z" />
    <glyph glyph-name="six.lprop" unicode="&#xe016;" horiz-adv-x="582" 
d="M58 304q0 201 69.5 290.5t227.5 89.5q79 0 148 -21v-65q-74 22 -142 22q-121 0 -171.5 -65.5t-52.5 -214.5q34 89 181 89q115 0 167.5 -51.5t52.5 -164.5q0 -118 -57 -171.5t-182 -53.5q-128 0 -184.5 74t-56.5 242zM144 224q0 -172 154 -172q86 0 124 37.5t38 121.5
q0 82 -35 119t-116 37q-86 0 -125.5 -34.5t-39.5 -108.5z" />
    <glyph glyph-name="seven.lprop" unicode="&#xe017;" horiz-adv-x="481" 
d="M464 672v-57l-280 -615h-81l276 606h-366v66h451z" />
    <glyph glyph-name="eight.lprop" unicode="&#xe018;" horiz-adv-x="588" 
d="M294 377q82 9 116.5 38.5t34.5 88.5q0 63 -35 90t-116 27t-116 -27t-35 -90q0 -59 34.5 -88.5t116.5 -38.5zM49 173q0 76 35 115.5t118 55.5q-71 14 -104 53t-33 110q0 94 54 135.5t175 41.5t174.5 -41.5t53.5 -135.5q0 -70 -32.5 -109.5t-103.5 -53.5q82 -16 117 -55
t35 -116q0 -98 -57.5 -141.5t-186.5 -43.5t-187 44t-58 141zM294 311q-92 -10 -129 -40t-37 -95q0 -67 38.5 -96t127.5 -29t127.5 29t38.5 96q0 65 -37 95t-129 40z" />
    <glyph glyph-name="nine.lprop" unicode="&#xe019;" horiz-adv-x="582" 
d="M524 368q0 -201 -69.5 -290.5t-227.5 -89.5q-79 0 -148 21v65q74 -22 142 -22q121 0 171.5 65.5t52.5 214.5q-34 -89 -181 -89q-115 0 -167.5 51.5t-52.5 164.5q0 118 57 171.5t182 53.5q128 0 184.5 -74t56.5 -242zM438 448q0 172 -154 172q-86 0 -124 -37.5t-38 -121.5
q0 -82 35 -119t116 -37q86 0 125.5 34.5t39.5 108.5z" />
    <glyph glyph-name="dollar.lprop" unicode="&#xe01a;" horiz-adv-x="545" 
d="M236 -144v164q-97 5 -176 31v66q96 -33 199 -33q83 0 118.5 25.5t35.5 83.5q0 39 -26.5 63.5t-66.5 34t-87 22.5t-87 27.5t-66.5 50.5t-26.5 90q0 81 43.5 121.5t139.5 47.5v166h74v-165q84 -3 156 -24v-66q-87 27 -179 27q-81 0 -115.5 -24t-34.5 -81q0 -33 20 -54
t51.5 -32t70 -19.5t77 -20t70 -28.5t51.5 -51t20 -83q0 -82 -45 -124.5t-142 -49.5v-165h-74z" />
    <glyph glyph-name="cent.lprop" unicode="&#xe01b;" horiz-adv-x="481" 
d="M53 336q0 120 44.5 180.5t143.5 71.5v167h74v-164q67 -3 119 -19v-65q-62 20 -130 20q-91 0 -130.5 -44.5t-39.5 -146.5t39.5 -146.5t130.5 -44.5q68 0 130 20v-65q-58 -18 -119 -19v-164h-74v167q-99 11 -143.5 71t-44.5 181z" />
    <glyph glyph-name="Euro.lprop" unicode="&#xe01c;" horiz-adv-x="556" 
d="M37 242v51h65q-1 14 -1 43q0 37 1 55h-65v51h70q18 126 86 184t197 58q79 0 145 -19v-62q-69 20 -136 20q-95 0 -145 -42.5t-65 -138.5h256v-51h-262q-1 -17 -1 -55q0 -30 1 -43h262v-51h-258q13 -103 63.5 -148t148.5 -45q67 0 136 20v-62q-66 -19 -145 -19
q-132 0 -200 60.5t-84 193.5h-69z" />
    <glyph glyph-name="sterling.lprop" unicode="&#xe01d;" horiz-adv-x="497" 
d="M40 0v64h90v247h-74v62h74v98q0 111 52 162t166 51q60 0 116 -15v-66q-54 15 -104 15q-79 0 -113 -34.5t-34 -115.5v-95h197v-62h-197v-247h259v-64h-432z" />
    <glyph glyph-name="yen.lprop" unicode="&#xe01e;" horiz-adv-x="567" 
d="M243 0v137h-163v51h163v99h-163v50h140l-216 335h91l189 -300l189 300h91l-216 -335h140v-50h-163v-99h163v-51h-163v-137h-82z" />
    <glyph glyph-name="zero.otab" unicode="&#xe020;" 
d="M49 259q0 141 57 206t182 65t182 -65t57 -206t-57 -206t-182 -65t-182 65t-57 206zM125 259q0 -109 38 -158t125 -49q86 0 124.5 49t38.5 158q0 108 -38.5 157.5t-124.5 49.5q-87 0 -125 -49t-38 -158z" />
    <glyph glyph-name="one.otab" unicode="&#xe021;" 
d="M304 0v445l-185 -74v67l201 80h64v-518h-80z" />
    <glyph glyph-name="two.otab" unicode="&#xe022;" 
d="M71 0v60l229 165q49 35 70.5 67t21.5 69q0 56 -32.5 80.5t-107.5 24.5q-74 0 -160 -28v65q86 27 172 27q110 0 159.5 -38t49.5 -122q0 -53 -25.5 -94.5t-84.5 -83.5l-177 -129h293v-63h-408z" />
    <glyph glyph-name="three.otab" unicode="&#xe023;" 
d="M465 518v-56l-194 -231q117 -6 171.5 -51.5t54.5 -137.5q0 -104 -64.5 -151t-208.5 -47q-91 0 -169 25v67q78 -28 163 -28q106 0 152 31.5t46 104.5q0 71 -49 102t-162 31h-25v49l194 229h-311v63h402z" />
    <glyph glyph-name="four.otab" unicode="&#xe024;" 
d="M371 -144v144h-330v57l323 461h81v-455h84v-63h-84v-144h-74zM117 63h254v367z" />
    <glyph glyph-name="five.otab" unicode="&#xe025;" 
d="M479 518v-63h-310v-214q44 3 88 3q134 0 194 -47t60 -151q0 -106 -64 -154t-205 -48q-91 0 -169 25v66q81 -27 163 -27q103 0 148 33t45 107q0 73 -47 105t-154 32q-52 0 -133 -7v340h384z" />
    <glyph glyph-name="six.otab" unicode="&#xe026;" 
d="M55 301q0 198 69 285.5t228 87.5q79 0 148 -21v-65q-74 22 -142 22q-121 0 -171.5 -63.5t-52.5 -208.5q32 86 181 86q116 0 168 -51t52 -163q0 -116 -57 -169t-182 -53q-128 0 -184.5 73t-56.5 240zM141 221q0 -169 154 -169q86 0 124 37t38 120q0 81 -35 116.5
t-116 35.5q-86 0 -125.5 -33.5t-39.5 -106.5z" />
    <glyph glyph-name="seven.otab" unicode="&#xe027;" 
d="M511 518v-57l-280 -605h-81l276 596h-366v66h451z" />
    <glyph glyph-name="eight.otab" unicode="&#xe028;" 
d="M288 371q80 10 114 38.5t34 87.5q0 61 -34.5 87.5t-113.5 26.5t-113.5 -26.5t-34.5 -87.5q0 -59 34 -87.5t114 -38.5zM47 170q0 75 35 114t117 55q-72 14 -104 52t-32 109q0 92 53 133t172 41t172 -41t53 -133q0 -71 -32 -109t-104 -52q82 -16 117 -55t35 -114
q0 -96 -57 -139t-184 -43t-184 43t-57 139zM288 306q-90 -10 -126.5 -40t-36.5 -93q0 -65 38 -93.5t125 -28.5t125 28.5t38 93.5q0 63 -36.5 93t-126.5 40z" />
    <glyph glyph-name="nine.otab" unicode="&#xe029;" 
d="M521 216q0 -198 -69 -285t-228 -87q-79 0 -148 21v65q74 -22 142 -22q121 0 171.5 63.5t52.5 208.5q-32 -86 -181 -86q-116 0 -168 51t-52 163q0 116 57 169t182 53q128 0 184.5 -73.5t56.5 -240.5zM435 296q0 170 -154 170q-86 0 -124 -37t-38 -120q0 -81 35 -117
t116 -36q86 0 125.5 33.5t39.5 106.5z" />
    <glyph glyph-name="dollar.otab" unicode="&#xe02a;" 
d="M251 -160v149q-77 3 -146 24v64q86 -26 169 -26q68 0 97 20.5t29 67.5q0 37 -31 57t-75.5 29.5t-89 22t-75.5 45.5t-31 89q0 69 36 104t117 42v150h74v-149q64 -3 128 -20v-64q-80 22 -151 22q-65 0 -93.5 -20t-28.5 -64q0 -35 31 -54.5t75.5 -28.5t89 -22t75.5 -47
t31 -91q0 -71 -37.5 -107t-119.5 -43v-150h-74z" />
    <glyph glyph-name="cent.otab" unicode="&#xe02b;" 
d="M100 259q0 120 44.5 180.5t143.5 71.5v167h74v-164q67 -3 119 -19v-65q-62 20 -130 20q-91 0 -130.5 -44.5t-39.5 -146.5t39.5 -146.5t130.5 -44.5q68 0 130 20v-65q-58 -18 -119 -19v-164h-74v167q-99 11 -143.5 71t-44.5 181z" />
    <glyph glyph-name="Euro.otab" unicode="&#xe02c;" 
d="M76 182v44h51v33q0 27 1 40h-52v43h57q15 98 74.5 143t174.5 45q72 0 134 -17v-59q-57 19 -125 19q-80 0 -122 -31t-55 -100h217v-43h-222q-1 -13 -1 -40q0 -23 1 -33h222v-44h-218q12 -73 54 -105t124 -32q71 0 125 18v-58q-62 -17 -134 -17q-117 0 -176.5 46t-73.5 148
h-56z" />
    <glyph glyph-name="sterling.otab" unicode="&#xe02d;" 
d="M92 0v59h83v175h-67v58h67v61q0 92 44 134.5t142 42.5q54 0 107 -17v-62q-50 18 -96 18q-65 0 -91 -27t-26 -91v-59h160v-58h-160v-175h221v-59h-384z" />
    <glyph glyph-name="yen.otab" unicode="&#xe02e;" 
d="M248 0v103h-137v45h137v72h-137v45h116l-163 253h88l136 -217l136 217h88l-163 -253h116v-45h-137v-72h137v-45h-137v-103h-80z" />
    <glyph glyph-name="zero.oprop" unicode="&#xe030;" horiz-adv-x="593" 
d="M52 259q0 143 58 207t187 64t186.5 -64t57.5 -207t-57.5 -207t-186.5 -64t-187 64t-58 207zM131 259q0 -111 38.5 -159t127.5 -48t127.5 48t38.5 159t-38.5 159t-127.5 48t-127.5 -48t-38.5 -159z" />
    <glyph glyph-name="one.oprop" unicode="&#xe031;" horiz-adv-x="375" 
d="M204 0v445l-178 -74v67l193 80h65v-518h-80z" />
    <glyph glyph-name="two.oprop" unicode="&#xe032;" horiz-adv-x="486" 
d="M26 0v60l229 165q49 35 70.5 67t21.5 69q0 56 -32.5 80.5t-107.5 24.5q-74 0 -160 -28v65q86 27 172 27q110 0 159.5 -38t49.5 -122q0 -53 -25.5 -94.5t-84.5 -83.5l-177 -129h293v-63h-408z" />
    <glyph glyph-name="three.oprop" unicode="&#xe033;" horiz-adv-x="486" 
d="M420 518v-56l-194 -231q117 -6 171.5 -51.5t54.5 -137.5q0 -104 -64.5 -151t-208.5 -47q-91 0 -169 25v67q78 -28 163 -28q106 0 152 31.5t46 104.5q0 71 -49 102t-162 31h-25v49l194 229h-311v63h402z" />
    <glyph glyph-name="four.oprop" unicode="&#xe034;" horiz-adv-x="529" 
d="M348 -144v144h-330v57l323 461h81v-455h84v-63h-84v-144h-74zM94 63h254v367z" />
    <glyph glyph-name="five.oprop" unicode="&#xe035;" horiz-adv-x="518" 
d="M458 518v-63h-310v-214q43 3 88 3q134 0 194 -47t60 -151q0 -106 -64 -154t-205 -48q-91 0 -169 25v66q81 -27 163 -27q103 0 148 33t45 107q0 73 -47 105t-154 32q-53 0 -133 -7v340h384z" />
    <glyph glyph-name="six.oprop" unicode="&#xe036;" horiz-adv-x="588" 
d="M61 301q0 198 69 285.5t228 87.5q79 0 148 -21v-65q-74 22 -142 22q-121 0 -171.5 -63.5t-52.5 -208.5q32 86 181 86q116 0 168 -51t52 -163q0 -116 -57 -169t-182 -53q-128 0 -184.5 73t-56.5 240zM147 221q0 -169 154 -169q86 0 124 37t38 120q0 81 -35 116.5
t-116 35.5q-86 0 -125.5 -33.5t-39.5 -106.5z" />
    <glyph glyph-name="seven.oprop" unicode="&#xe037;" horiz-adv-x="481" 
d="M464 518v-57l-280 -605h-81l276 596h-366v66h451z" />
    <glyph glyph-name="eight.oprop" unicode="&#xe038;" horiz-adv-x="572" 
d="M286 371q80 10 114 38.5t34 87.5q0 61 -34.5 87.5t-113.5 26.5t-113.5 -26.5t-34.5 -87.5q0 -59 34 -87.5t114 -38.5zM45 170q0 75 35 114t117 55q-72 14 -104 52t-32 109q0 92 53 133t172 41t172 -41t53 -133q0 -71 -32 -109t-104 -52q82 -16 117 -55t35 -114
q0 -96 -57 -139t-184 -43t-184 43t-57 139zM286 306q-90 -10 -126.5 -40t-36.5 -93q0 -65 38 -93.5t125 -28.5t125 28.5t38 93.5q0 63 -36.5 93t-126.5 40z" />
    <glyph glyph-name="nine.oprop" unicode="&#xe039;" horiz-adv-x="588" 
d="M527 216q0 -198 -69 -285t-228 -87q-79 0 -148 21v65q74 -22 142 -22q121 0 171.5 63.5t52.5 208.5q-32 -86 -181 -86q-116 0 -168 51t-52 163q0 116 57 169t182 53q128 0 184.5 -73.5t56.5 -240.5zM441 296q0 170 -154 170q-86 0 -124 -37t-38 -120q0 -81 35 -117
t116 -36q86 0 125.5 33.5t39.5 106.5z" />
    <glyph glyph-name="dollar.oprop" unicode="&#xe03a;" horiz-adv-x="497" 
d="M212 -160v149q-77 3 -146 24v64q86 -26 169 -26q68 0 97 20.5t29 67.5q0 37 -31 57t-75.5 29.5t-89 22t-75.5 45.5t-31 89q0 69 36 104t117 42v150h74v-149q64 -3 128 -20v-64q-80 22 -151 22q-65 0 -93.5 -20t-28.5 -64q0 -35 31 -54.5t75.5 -28.5t89 -22t75.5 -47
t31 -91q0 -71 -37.5 -107t-119.5 -43v-150h-74z" />
    <glyph glyph-name="cent.oprop" unicode="&#xe03b;" horiz-adv-x="481" 
d="M53 259q0 120 44.5 180.5t143.5 71.5v167h74v-164q67 -3 119 -19v-65q-62 20 -130 20q-91 0 -130.5 -44.5t-39.5 -146.5t39.5 -146.5t130.5 -44.5q68 0 130 20v-65q-58 -18 -119 -19v-164h-74v167q-99 11 -143.5 71t-44.5 181z" />
    <glyph glyph-name="Euro.oprop" unicode="&#xe03c;" horiz-adv-x="524" 
d="M50 182v44h51v33q0 27 1 40h-52v43h57q15 98 74.5 143t174.5 45q72 0 134 -17v-59q-57 19 -125 19q-80 0 -122 -31t-55 -100h217v-43h-222q-1 -13 -1 -40q0 -23 1 -33h222v-44h-218q12 -73 54 -105t124 -32q71 0 125 18v-58q-62 -17 -134 -17q-117 0 -176.5 46t-73.5 148
h-56z" />
    <glyph glyph-name="sterling.oprop" unicode="&#xe03d;" horiz-adv-x="449" 
d="M29 0v59h83v175h-67v58h67v61q0 92 44 134.5t142 42.5q54 0 107 -17v-62q-49 18 -96 18q-65 0 -91 -27t-26 -91v-59h160v-58h-160v-175h221v-59h-384z" />
    <glyph glyph-name="yen.oprop" unicode="&#xe03e;" horiz-adv-x="477" 
d="M199 0v103h-137v45h137v72h-137v45h116l-163 253h88l136 -217l136 217h88l-163 -253h116v-45h-137v-72h137v-45h-137v-103h-80z" />
    <glyph glyph-name="hyphen.cap" unicode="&#xe800;" horiz-adv-x="336" 
d="M26 311v62h268v-62h-268z" />
    <glyph glyph-name="uni00AD.cap" unicode="&#xe801;" horiz-adv-x="336" 
d="M26 311v62h268v-62h-268z" />
    <glyph glyph-name="endash.cap" unicode="&#xe802;" 
d="M26 311v62h524v-62h-524z" />
    <glyph glyph-name="emdash.cap" unicode="&#xe803;" horiz-adv-x="864" 
d="M26 311v62h812v-62h-812z" />
    <glyph glyph-name="periodcentered.cap" unicode="&#xe805;" horiz-adv-x="231" 
d="M61 342q0 28 13 40.5t42 12.5t41.5 -12t12.5 -41t-12.5 -41t-41.5 -12t-42 12.5t-13 40.5z" />
    <glyph glyph-name="slash.cap" unicode="&#xe806;" horiz-adv-x="384" 
d="M9 -80l295 832h71l-295 -832h-71z" />
    <glyph glyph-name="backslash.cap" unicode="&#xe807;" horiz-adv-x="384" 
d="M304 -80l-295 832h71l295 -832h-71z" />
    <glyph glyph-name="parenleft.cap" unicode="&#xe808;" horiz-adv-x="311" 
d="M73 336q0 243 133 416h80q-137 -175 -137 -416t137 -416h-80q-133 173 -133 416z" />
    <glyph glyph-name="parenright.cap" unicode="&#xe809;" horiz-adv-x="311" 
d="M238 336q0 -243 -133 -416h-80q137 175 137 416t-137 416h80q133 -173 133 -416z" />
    <glyph glyph-name="bracketleft.cap" unicode="&#xe80a;" horiz-adv-x="311" 
d="M95 -80v832h190v-63h-116v-706h116v-63h-190z" />
    <glyph glyph-name="bracketright.cap" unicode="&#xe80b;" horiz-adv-x="311" 
d="M217 752v-832h-191v63h117v706h-117v63h191z" />
    <glyph glyph-name="braceleft.cap" unicode="&#xe80c;" horiz-adv-x="311" 
d="M10 305v62h11q48 0 69 21t21 69v146q0 78 36 113.5t116 35.5h22v-63h-11q-48 0 -68.5 -20.5t-20.5 -68.5v-149q0 -93 -68 -115q68 -22 68 -115v-149q0 -48 20.5 -68.5t68.5 -20.5h11v-63h-22q-80 0 -116 35.5t-36 113.5v146q0 48 -21 69t-69 21h-11z" />
    <glyph glyph-name="braceright.cap" unicode="&#xe80d;" horiz-adv-x="311" 
d="M301 367v-62h-11q-48 0 -68.5 -21t-20.5 -69v-146q0 -78 -36 -113.5t-116 -35.5h-23v63h11q48 0 69 20.5t21 68.5v149q0 94 67 115q-67 21 -67 115v149q0 48 -21 68.5t-69 20.5h-11v63h23q80 0 116 -35.5t36 -113.5v-146q0 -48 20.5 -69t68.5 -21h11z" />
    <glyph glyph-name="guilsinglleft.cap" unicode="&#xe80e;" horiz-adv-x="279" 
d="M246 531l-132 -193l132 -193h-76l-139 193l139 193h76z" />
    <glyph glyph-name="guilsinglright.cap" unicode="&#xe80f;" horiz-adv-x="279" 
d="M33 145l132 193l-132 193h76l140 -193l-140 -193h-76z" />
    <glyph glyph-name="guillemotleft.cap" unicode="&#xe810;" horiz-adv-x="506" 
d="M246 531l-132 -193l132 -193h-76l-139 193l139 193h76zM473 531l-132 -193l132 -193h-76l-139 193l139 193h76z" />
    <glyph glyph-name="guillemotright.cap" unicode="&#xe811;" horiz-adv-x="506" 
d="M33 145l132 193l-132 193h76l140 -193l-140 -193h-76zM260 145l132 193l-132 193h76l140 -193l-140 -193h-76z" />
    <glyph glyph-name="exclamdown.cap" unicode="&#xe812;" horiz-adv-x="247" 
d="M160 468l4 -468h-81l4 468h73zM178 629q0 -28 -12.5 -40.5t-41.5 -12.5t-41.5 12t-12.5 41q0 28 12.5 40t41.5 12t41.5 -12t12.5 -40z" />
    <glyph glyph-name="questiondown.cap" unicode="&#xe813;" horiz-adv-x="444" 
d="M228 468h68v-14q0 -46 -18 -82t-43 -59t-50.5 -44t-43.5 -48.5t-18 -59.5q0 -58 32.5 -83.5t107.5 -25.5q72 0 149 28v-65q-76 -27 -158 -27q-112 0 -162.5 39.5t-50.5 127.5q0 46 19.5 82.5t46.5 60t54.5 46t47 51.5t19.5 65v8zM316 629q0 -28 -12.5 -40.5t-41.5 -12.5
t-41.5 12t-12.5 41q0 28 12.5 40t41.5 12t41.5 -12t12.5 -40z" />
    <glyph glyph-name="at.cap" unicode="&#xe814;" horiz-adv-x="977" 
d="M57 336q0 236 104.5 341.5t338.5 105.5q222 0 321 -93.5t99 -302.5q0 -140 -43.5 -205.5t-140.5 -65.5q-89 0 -115 62q-45 -62 -154 -62q-97 0 -140 52t-43 168t43 168t140 52q104 0 145 -58l4 46h64v-297q0 -37 16 -53.5t52 -16.5q55 0 78.5 49.5t23.5 154.5
q0 181 -83 261t-270 80q-196 0 -283 -90.5t-87 -295.5t91.5 -295.5t300.5 -90.5q140 0 274 44v-64q-131 -41 -277 -41q-243 0 -351 105t-108 342zM363 336q0 -83 28.5 -119.5t94.5 -36.5q62 0 89.5 27t27.5 88v82q0 61 -27.5 88t-89.5 27q-66 0 -94.5 -36.5t-28.5 -119.5z
" />
    <glyph glyph-name="bullet.cap" unicode="&#xe815;" horiz-adv-x="480" 
d="M96 336q0 60 42 102t102 42t102 -42t42 -102t-42 -102t-102 -42t-102 42t-42 102z" />
    <glyph glyph-name="grave.cap" unicode="&#xe840;" horiz-adv-x="240" 
d="M99 740l-134 140h87l121 -140h-74z" />
    <glyph glyph-name="acute.cap" unicode="&#xe841;" horiz-adv-x="240" 
d="M275 880l-134 -140h-74l121 140h87z" />
    <glyph glyph-name="circumflex.cap" unicode="&#xe842;" horiz-adv-x="240" 
d="M-43 740l123 140h80l123 -140h-73l-90 95l-90 -95h-73z" />
    <glyph glyph-name="caron.cap" unicode="&#xe843;" horiz-adv-x="240" 
d="M283 880l-123 -140h-80l-123 140h73l90 -95l90 95h73z" />
    <glyph glyph-name="tilde.cap" unicode="&#xe844;" horiz-adv-x="240" 
d="M-35 751v10q0 54 21 78t67 24q31 0 69 -25.5t54 -25.5q22 0 31.5 11.5t9.5 39.5v7h58v-11q0 -54 -21 -78t-67 -24q-31 0 -69.5 25.5t-53.5 25.5q-22 0 -31.5 -11.5t-9.5 -39.5v-6h-58z" />
    <glyph glyph-name="dieresis.cap" unicode="&#xe845;" horiz-adv-x="240" 
d="M169 810q0 49 51 49q50 0 50 -49t-50 -49q-51 0 -51 49zM-30 810q0 49 50 49q51 0 51 -49t-51 -49q-50 0 -50 49z" />
    <glyph glyph-name="macron.cap" unicode="&#xe846;" horiz-adv-x="240" 
d="M-31 782v57h302v-57h-302z" />
    <glyph glyph-name="breve.cap" unicode="&#xe847;" horiz-adv-x="240" 
d="M-32 880h58q0 -50 22 -72t72 -22t72 22t22 72h58q0 -79 -36 -114t-116 -35t-116 35t-36 114z" />
    <glyph glyph-name="ring.cap" unicode="&#xe848;" horiz-adv-x="240" 
d="M17 810q0 49 24.5 71.5t78.5 22.5t78.5 -22.5t24.5 -71.5t-24.5 -71.5t-78.5 -22.5t-78.5 22.5t-24.5 71.5zM64 810q0 -30 13 -43t43 -13t43 12.5t13 43.5q0 30 -13 43.5t-43 13.5t-43 -13.5t-13 -43.5z" />
    <glyph glyph-name="hungarumlaut.cap" unicode="&#xe849;" horiz-adv-x="240" 
d="M375 880l-133 -140h-75l121 140h87zM175 880l-133 -140h-75l122 140h86z" />
    <glyph glyph-name="dotaccent.cap" unicode="&#xe84a;" horiz-adv-x="240" 
d="M69 810q0 26 12 37.5t39 11.5t39 -11.5t12 -37.5t-12 -37.5t-39 -11.5t-39 11.5t-12 37.5z" />
    <glyph glyph-name="arrowleft.cap" unicode="&#xe880;" horiz-adv-x="864" 
d="M812 299h-630l233 -231h-107l-267 268l267 268h107l-233 -231h630v-74z" />
    <glyph glyph-name="arrowup.cap" unicode="&#xe881;" horiz-adv-x="864" 
d="M395 -44v630l-231 -233v107l268 267l268 -267v-107l-231 233v-630h-74z" />
    <glyph glyph-name="arrowright.cap" unicode="&#xe882;" horiz-adv-x="864" 
d="M52 373h630l-233 231h107l267 -268l-267 -268h-107l233 231h-630v74z" />
    <glyph glyph-name="arrowdown.cap" unicode="&#xe883;" horiz-adv-x="864" 
d="M469 716v-630l231 233v-107l-268 -267l-268 267v107l231 -233v630h74z" />
    <glyph glyph-name="uni2196.cap" unicode="&#xe884;" horiz-adv-x="864" 
d="M674 41l-445 445l2 -327l-75 75v378h378l75 -75l-327 2l445 -445z" />
    <glyph glyph-name="uni2197.cap" unicode="&#xe885;" horiz-adv-x="864" 
d="M137 94l445 445l-328 -2l76 75h378v-378l-75 -76l2 328l-445 -445z" />
    <glyph glyph-name="uni2198.cap" unicode="&#xe886;" horiz-adv-x="864" 
d="M190 631l445 -445l-2 327l75 -75v-378h-378l-75 75l327 -2l-445 445z" />
    <glyph glyph-name="uni2199.cap" unicode="&#xe887;" horiz-adv-x="864" 
d="M727 578l-445 -445l327 2l-75 -75h-378v378l75 75l-2 -327l445 445z" />
    <glyph glyph-name="commaaccent.alt" unicode="&#xea01;" horiz-adv-x="240" 
d="M67 554l65 188h56l-50 -188h-71z" />
    <glyph glyph-name="caron.alt" unicode="&#xea02;" horiz-adv-x="240" 
d="M194 742l-65 -188h-56l50 188h71z" />
    <glyph glyph-name="ringacute" unicode="&#xea03;" horiz-adv-x="240" 
d="M275 832l-108 -110q56 -16 56 -88q0 -49 -24.5 -71.5t-78.5 -22.5t-78.5 22.5t-24.5 71.5q0 83 78 92l93 106h87zM64 634q0 -30 13 -43t43 -13t43 12.5t13 43.5q0 30 -13 43.5t-43 13.5t-43 -13.5t-13 -43.5z" />
    <glyph glyph-name="registered.alt" unicode="&#xec00;" horiz-adv-x="528" 
d="M36 464q0 119 53.5 171.5t174.5 52.5q120 0 174 -53t54 -171t-54 -171t-174 -53t-174 53t-54 171zM72 464q0 -103 45 -148t147 -45t147 45t45 148t-45 148t-147 45t-147 -45t-45 -148zM179 344v240h100q44 0 64 -17t20 -55q0 -62 -57 -69l63 -99h-41l-60 95h-54v-95h-35z
M214 555v-87h63q27 0 39 10t12 34q0 23 -12 33t-39 10h-63z" />
    <glyph glyph-name="commaaccent" unicode="&#xf6c3;" horiz-adv-x="240" 
d="M173 -68l-65 -188h-56l50 188h71z" />
    <glyph glyph-name="apple" unicode="&#xf8ff;" horiz-adv-x="591" 
d="M491 202h-261v65h196v66h-196v195h261v-65h-196v-65h196v-196zM491 594h-326v-529h73v-65h-138v659h391v-65z" />
    <glyph glyph-name="idotaccent" horiz-adv-x="230" 
d="M41 445l8 41h101q9 0 9 -10v-476h-80v418q0 11 -8 14zM65 634q0 27 12 39t40 12q52 0 52 -51q0 -50 -52 -50q-28 0 -40 12t-12 38z" />
    <glyph glyph-name="uni0431.locl" horiz-adv-x="531" 
d="M36 206q0 166 171 242q-62 35 -85.5 62.5t-23.5 67.5q0 59 44 89.5t140 36.5q121 7 178 19l-13 -66q-39 -10 -145 -15q-69 -4 -98 -20.5t-29 -49.5q0 -25 27 -45.5t108 -58.5q101 -47 143 -107t42 -155q0 -110 -55.5 -164t-173.5 -54q-119 0 -174.5 54.5t-55.5 163.5z
M115 209q0 -79 36 -118t115 -39q78 0 114 39t36 118q0 75 -32.5 120.5t-121.5 90.5q-81 -40 -114 -89.5t-33 -121.5z" />
    <glyph glyph-name="uni0433.locl" horiz-adv-x="464" 
d="M414 358q0 -44 -21.5 -73t-54.5 -40.5t-70.5 -21.5t-70.5 -17.5t-54.5 -27.5t-21.5 -52q0 -40 30 -58t94 -18q85 0 164 27v-65q-77 -24 -170 -24q-195 0 -195 139q0 47 21.5 78.5t54.5 45t70.5 24.5t70.5 17.5t54.5 23t21.5 43.5q0 77 -120 77q-73 0 -140 -22l-13 62
q77 22 157 22q92 0 142.5 -35.5t50.5 -104.5z" />
    <glyph glyph-name="uni0434.locl" horiz-adv-x="563" 
d="M432 486h63v-507q0 -110 -57 -154.5t-155 -44.5q-64 0 -106 8v64q56 -8 102 -8q136 0 136 121v85q-46 -62 -161 -62q-112 0 -162 60t-50 195t50 195t162 60q104 0 174 -53zM415 191v207q-64 36 -142 36q-80 0 -114.5 -44.5t-34.5 -146.5t34.5 -146.5t114.5 -44.5
q76 0 109 32.5t33 106.5z" />
    <glyph glyph-name="uni043F.salt" horiz-adv-x="570" 
d="M500 305v-237q0 -11 8 -14l30 -13l-8 -41h-101q-9 0 -9 10v293q0 70 -28 99.5t-94 29.5q-43 0 -84.5 -11.5t-59.5 -24.5v-396h-80v418q0 11 -8 14l-30 13l8 41h101q9 0 9 -10v-34q60 56 158 56q100 0 144 -45t44 -148z" />
    <glyph glyph-name="uni0442.locl" horiz-adv-x="874" 
d="M453 432q69 66 173 66q94 0 136 -43t42 -138v-249q0 -11 8 -14l30 -13l-8 -41h-101q-9 0 -9 10v304q0 63 -26 90.5t-86 27.5q-94 0 -141 -39q8 -25 8 -73v-320h-80v314q0 63 -26 90.5t-86 27.5q-40 0 -78 -11.5t-55 -24.5v-396h-80v418q0 11 -8 14l-30 13l8 41h101
q9 0 9 -10v-30q59 52 150 52q106 0 149 -66z" />
    </font>
</defs>
</svg>
